<svg width="46" height="40" viewBox="0 0 46 40" fill="none" xmlns="http://www.w3.org/2000/svg">
<path d="M45.665 26.8835C45.665 33.8032 40.0555 39.4127 33.1358 39.4127L14.3419 39.4127C12.4198 39.4127 10.8616 37.8545 10.8616 35.9324L10.8616 12.266C10.8616 8.42172 13.978 5.30531 17.8223 5.30531L42.1847 5.30532C44.1068 5.30532 45.665 6.86352 45.665 8.78566L45.665 26.8835Z" fill="#E8F5E9"/>
<path d="M20.1288 16.8912C19.9612 16.8912 19.8055 16.8451 19.6673 16.771V16.773C19.6673 17.0367 19.5648 17.2843 19.3788 17.4698C19.1929 17.6558 18.9454 17.7583 18.682 17.7583C18.512 17.7583 18.3544 17.711 18.2146 17.6349C18.2005 17.8762 18.1041 18.1016 17.9321 18.2739C17.7461 18.4598 17.4986 18.5623 17.2351 18.5623C16.7114 18.5623 16.2862 18.1507 16.2556 17.6348C16.0935 17.7223 15.9103 17.7683 15.7214 17.7561C15.2063 17.7223 14.8029 17.2773 14.8029 16.7426V12.311L14.2983 13.1852C14.1061 13.5196 13.7463 13.7272 13.3589 13.7272C13.1702 13.7272 12.9837 13.6777 12.8186 13.5831C12.6129 13.4639 12.4658 13.2725 12.4046 13.0435C12.3432 12.8144 12.375 12.5748 12.4939 12.3695C12.494 12.3695 14.1449 9.5106 14.2456 9.33499C14.2576 9.30859 14.2917 9.23201 14.3208 9.16674C14.3485 9.10442 14.3723 9.04046 14.395 8.97618C14.8929 7.57062 16.1257 6.69751 17.6124 6.69751C19.5431 6.69751 21.1138 8.40073 21.1138 10.4943L21.114 15.9058C21.114 16.1692 21.0116 16.4166 20.8258 16.6028C20.6399 16.7887 20.3924 16.8912 20.1287 16.8912L20.1288 16.8912ZM17.6124 7.22106C16.3349 7.22106 15.3167 7.94265 14.8885 9.15127C14.8611 9.22801 14.8326 9.30476 14.7993 9.37954C14.7027 9.59618 14.7027 9.59618 14.6755 9.62733L14.6719 9.62422C14.5371 9.87857 14.1366 10.5721 12.9472 12.6315C12.8983 12.716 12.8853 12.814 12.9103 12.9078C12.9355 13.0017 12.996 13.0807 13.0798 13.1291C13.3399 13.2785 13.6961 13.182 13.8444 12.9238L14.838 11.2035C14.8974 11.101 15.0174 11.0506 15.1325 11.0818C15.247 11.1124 15.3265 11.2162 15.3265 11.3346V16.7428C15.3265 16.998 15.5191 17.2182 15.7557 17.2338C15.8922 17.241 16.0194 17.1952 16.115 17.0998C16.202 17.0129 16.2498 16.8971 16.2498 16.7733V13.2363C16.2498 13.0916 16.3671 12.9744 16.5117 12.9744C16.6564 12.9744 16.7736 13.0915 16.7736 13.2363L16.7735 17.5772C16.7735 17.8317 16.9806 18.0389 17.2351 18.0389C17.3588 18.0389 17.4749 17.991 17.5619 17.9041C17.6489 17.817 17.6967 17.7009 17.6967 17.5772V13.2363C17.6967 13.0916 17.8138 12.9744 17.9586 12.9744C18.1033 12.9744 18.2205 13.0915 18.2205 13.2363L18.2204 16.7326V16.7733C18.2204 17.0276 18.4275 17.2347 18.6822 17.2347C18.8057 17.2347 18.9214 17.1867 19.009 17.0994C19.0959 17.0127 19.1438 16.8969 19.1438 16.7731V13.2361C19.1438 13.0915 19.2609 12.9742 19.4057 12.9742C19.5504 12.9742 19.6676 13.0913 19.6676 13.2361L19.6673 15.9059C19.6673 16.1606 19.8744 16.3677 20.1287 16.3677C20.2526 16.3677 20.3683 16.3197 20.4553 16.2329C20.5425 16.1457 20.5902 16.0296 20.5902 15.9059L20.5904 10.4944C20.5904 8.68969 19.2545 7.22111 17.6124 7.22111L17.6124 7.22106Z" fill="#103E13"/>
<path d="M9.83859 20.6523L13.6389 18.3725C14.0971 18.0973 14.6867 18.2142 14.9806 18.6388C15.0878 18.7934 15.1426 18.9737 15.1511 19.1572C15.2928 19.0832 15.4469 19.0431 15.6039 19.0431C15.6842 19.0431 15.7649 19.0531 15.8446 19.0729C16.1 19.1367 16.3151 19.2963 16.4504 19.5219C16.5859 19.7479 16.6254 20.0127 16.5616 20.2678C16.5027 20.5037 16.3592 20.7024 16.1597 20.8386C16.2992 20.921 16.4196 21.0333 16.5052 21.1763C16.6407 21.4023 16.6802 21.667 16.6165 21.9223C16.5528 22.1773 16.3932 22.3925 16.1672 22.5281L16.1659 22.5289C16.303 22.6111 16.4212 22.7223 16.5059 22.8631C16.6415 23.0891 16.681 23.354 16.6172 23.6093C16.5533 23.8645 16.3937 24.0796 16.168 24.2151L11.5278 26.9989C10.6617 27.5182 9.66053 27.6975 8.70905 27.5032C7.74904 27.307 6.95398 26.7552 6.47056 25.9493C5.70552 24.6743 5.82017 23.1679 6.76919 22.0181C6.81265 21.9656 6.85545 21.9122 6.89432 21.8567C6.93548 21.7982 6.98353 21.7293 6.99993 21.7057C7.09816 21.5302 8.70104 18.6423 8.70088 18.6426C8.86274 18.3506 9.16612 18.1852 9.47901 18.1854C9.62497 18.1854 9.77305 18.2213 9.90967 18.2971C10.0746 18.3892 10.2132 18.5236 10.3101 18.6854C10.5094 19.0175 10.5164 19.4331 10.3288 19.7694L9.83859 20.6523ZM9.86138 18.9546C9.81055 18.8699 9.74068 18.8023 9.65524 18.7544C9.47862 18.6567 9.25625 18.7203 9.15901 18.8963C8.01206 20.9626 7.62109 21.6667 7.4702 21.9173L7.47365 21.9182C7.46102 21.9601 7.46102 21.9601 7.32294 22.1574C7.27604 22.2242 7.22504 22.2883 7.17305 22.3514C6.357 23.3401 6.26225 24.5844 6.91935 25.68C7.32638 26.3586 7.99909 26.8238 8.81362 26.9901C9.63702 27.1575 10.5049 27.0017 11.2581 26.5498L15.8988 23.7659C16.0048 23.7024 16.0795 23.6016 16.1094 23.482C16.1392 23.3626 16.1207 23.2385 16.0571 23.1325C15.9262 22.9144 15.642 22.8428 15.4239 22.9741L13.1346 24.3476C13.0106 24.422 12.8495 24.382 12.7753 24.2579C12.7008 24.1339 12.741 23.973 12.865 23.8986L15.1545 22.5251L15.898 22.0791C16.0039 22.0154 16.0789 21.9146 16.1087 21.7954C16.1386 21.6758 16.12 21.5515 16.0564 21.4457C15.9254 21.2274 15.6412 21.1564 15.4232 21.2873L12.3902 23.1068C12.2659 23.1814 12.1053 23.1411 12.0309 23.0171C11.9564 22.8931 11.9968 22.7323 12.1206 22.6578L15.8431 20.4247C15.949 20.3611 16.0238 20.2604 16.0536 20.1409C16.0835 20.0215 16.0649 19.8973 16.0015 19.7914C15.938 19.6856 15.8372 19.6108 15.7176 19.581C15.5974 19.5511 15.4738 19.5697 15.3681 19.633L14.679 20.0464C14.6789 20.0464 14.6789 20.0466 14.6787 20.0466H14.6786L11.6457 21.8661C11.5214 21.9409 11.3607 21.9005 11.2864 21.7764C11.2119 21.6524 11.2523 21.4915 11.3761 21.4171L14.4091 19.5976C14.5151 19.5339 14.59 19.4331 14.6198 19.3139C14.6526 19.183 14.6277 19.0492 14.55 18.937C14.4152 18.742 14.1269 18.6902 13.9083 18.8215L9.27095 21.6035C9.16944 21.6642 9.0394 21.6494 8.95428 21.5673C8.86901 21.485 8.84982 21.3556 8.90722 21.2521L9.8715 19.5147C9.96826 19.3411 9.96448 19.1266 9.86133 18.9547L9.86138 18.9546Z" fill="#103E13"/>
<path d="M27.998 25.9492C27.5147 26.7552 26.7199 27.3069 25.7597 27.503C24.8081 27.697 23.8072 27.5181 22.941 26.9987L18.3003 24.2148C18.0745 24.0793 17.9148 23.8642 17.8508 23.6087C17.7873 23.3537 17.827 23.0888 17.9623 22.8631C18.0468 22.7221 18.1652 22.6109 18.3024 22.5288L18.3011 22.528C18.0753 22.3925 17.9156 22.1773 17.852 21.9221C17.788 21.667 17.8277 21.4019 17.9631 21.176C18.0504 21.0309 18.1699 20.9174 18.3064 20.8369C18.1083 20.7006 17.9656 20.5027 17.9069 20.2678C17.8429 20.0125 17.8826 19.7476 18.0181 19.5219C18.1534 19.2961 18.3687 19.1366 18.6239 19.0728C18.7036 19.0528 18.7844 19.0429 18.8645 19.0429C19.0216 19.0431 19.1757 19.0829 19.3174 19.1571C19.3261 18.9736 19.3807 18.7933 19.488 18.6387C19.782 18.2144 20.371 18.097 20.8299 18.3724L24.6301 20.6519L24.1403 19.7696C23.9523 19.4327 23.9592 19.0172 24.1585 18.6849C24.2556 18.5232 24.3943 18.3889 24.5601 18.2959C24.6964 18.2205 24.844 18.1847 24.9896 18.1847C25.3023 18.1849 25.606 18.3499 25.7677 18.642C26.3312 19.6573 27.3945 21.572 27.4693 21.7057C27.4852 21.7288 27.5332 21.7977 27.5744 21.8562C27.6136 21.9118 27.6559 21.965 27.6997 22.0178C28.6486 23.168 28.763 24.6743 27.998 25.9492L27.998 25.9492ZM27.2957 22.3515C27.2435 22.2884 27.1924 22.2239 27.1458 22.1575C27.0041 21.9565 27.0005 21.9512 26.9898 21.8986C26.8242 21.6245 26.4201 20.8971 25.3094 18.896C25.212 18.7204 24.9906 18.6563 24.8143 18.7537C24.7276 18.8022 24.6579 18.8699 24.607 18.9547C24.504 19.1264 24.5001 19.3409 24.5974 19.5151L25.5613 21.2519C25.6189 21.3556 25.5997 21.4848 25.5146 21.5671C25.4296 21.6496 25.2997 21.664 25.1977 21.6034L20.5604 18.8214C20.3418 18.6904 20.0537 18.7417 19.9185 18.9368C19.8408 19.049 19.816 19.1828 19.8485 19.3135C19.8784 19.4329 19.9533 19.5336 20.0594 19.5972C20.0597 19.5974 20.0599 19.5977 20.0602 19.5979L23.0923 21.4169C23.2163 21.4913 23.2564 21.6521 23.182 21.7762C23.1075 21.9 22.947 21.9405 22.8227 21.8659L19.1002 19.6328C18.9946 19.5695 18.8703 19.5508 18.7509 19.5808C18.6312 19.6107 18.5305 19.6855 18.467 19.7916C18.4034 19.8974 18.385 20.0215 18.4146 20.1409C18.4444 20.2603 18.5194 20.3611 18.6253 20.4248L19.3497 20.8592L22.3476 22.6579C22.4716 22.7323 22.5118 22.893 22.4373 23.0172C22.3628 23.141 22.2023 23.1813 22.078 23.1069L19.0453 21.2874C18.8272 21.1562 18.5431 21.2273 18.4119 21.4458C18.3483 21.5517 18.33 21.6759 18.3595 21.7953C18.3893 21.9146 18.4643 22.0153 18.5704 22.0791L19.3139 22.5252L21.6031 23.8986C21.727 23.9731 21.7672 24.1338 21.6928 24.2579C21.6183 24.3817 21.4578 24.4224 21.3335 24.3476L19.0443 22.9742C18.9387 22.9109 18.8149 22.8922 18.6948 22.9222C18.5754 22.9521 18.4744 23.0268 18.411 23.1326C18.3475 23.2385 18.329 23.3629 18.3585 23.4821C18.3883 23.6015 18.4633 23.7022 18.5694 23.7659L23.2101 26.5499C23.9632 27.0017 24.8316 27.1581 25.6546 26.9902C26.4689 26.8239 27.1417 26.3586 27.5487 25.68C28.2064 24.5842 28.1118 23.3399 27.296 22.3515L27.2957 22.3515Z" fill="#103E13"/>
</svg>
