<svg width="46" height="40" viewBox="0 0 46 40" fill="none" xmlns="http://www.w3.org/2000/svg">
<path d="M45.918 26.8835C45.918 33.8032 40.3084 39.4127 33.3887 39.4127L14.5948 39.4127C12.6727 39.4127 11.1145 37.8545 11.1145 35.9324L11.1145 12.266C11.1145 8.42172 14.2309 5.30531 18.0752 5.30531L42.4376 5.30532C44.3598 5.30532 45.918 6.86352 45.918 8.78566L45.918 26.8835Z" fill="#E8F5E9"/>
<path d="M17.3725 7.39355C14.8867 7.39355 12.863 9.43574 12.863 11.9322C12.863 13.5114 13.6739 14.9059 14.8985 15.7187C13.4195 16.2132 12.1397 17.1375 11.201 18.3467C10.682 17.9475 10.1022 17.6265 9.47705 17.3964C10.425 16.6927 11.0445 15.5622 11.0445 14.2916C11.0445 12.1743 9.33209 10.4411 7.22765 10.4411C5.12321 10.4411 3.41083 12.1743 3.41083 14.2916C3.41083 15.5629 4.03081 16.6939 4.97956 17.3977C2.46774 18.3246 0.673828 20.7513 0.673828 23.6073V25.6135C0.674085 25.7664 0.735261 25.9129 0.843731 26.0206C0.9522 26.1286 1.09897 26.1887 1.25191 26.1882H10.0537C10.075 26.1905 10.0964 26.1918 10.1177 26.1916H24.6278C24.6492 26.1918 24.6708 26.1905 24.6919 26.1882H33.4943C33.8107 26.1869 34.067 25.9301 34.0677 25.6135V23.6073C34.0677 20.7513 32.2769 18.3246 29.7664 17.3974C30.7152 16.6939 31.3352 15.5626 31.3352 14.2913C31.3352 12.1741 29.6228 10.4408 27.5183 10.4408C25.414 10.4408 23.7015 12.1741 23.7015 14.2913C23.7015 15.5619 24.3212 16.6926 25.2692 17.3962C24.6428 17.6267 24.0626 17.9488 23.5429 18.349C22.6047 17.1391 21.3267 16.2135 19.8477 15.7187C21.072 14.9059 21.8832 13.5114 21.8832 11.9322C21.8832 9.43574 19.8585 7.39355 17.3727 7.39355H17.3725ZM17.3725 8.5451C19.2317 8.5451 20.7305 10.054 20.7305 11.9322C20.7305 13.7957 19.2551 15.2899 17.4165 15.3138C17.4018 15.3138 17.3874 15.3118 17.3725 15.3118C17.3576 15.3118 17.3435 15.3138 17.3286 15.3138C15.49 15.2902 14.0155 13.7958 14.0155 11.9322C14.0155 10.0537 15.5131 8.5451 17.3723 8.5451H17.3725ZM7.22771 11.5926C8.70288 11.5926 9.89299 12.7898 9.89299 14.2915C9.89299 15.7831 8.71828 16.9753 7.257 16.9915C7.24723 16.9915 7.23772 16.9904 7.22769 16.9904C7.21793 16.9904 7.20842 16.9915 7.19839 16.9915C5.73711 16.9753 4.5624 15.7829 4.5624 14.2915C4.5624 12.7899 5.75251 11.5926 7.22767 11.5926H7.22771ZM27.518 11.5926C28.9932 11.5926 30.1833 12.7898 30.1833 14.2915C30.1833 15.7831 29.0085 16.9753 27.5473 16.9915C27.5375 16.9915 27.528 16.9904 27.518 16.9904C27.5082 16.9904 27.4987 16.9915 27.4887 16.9915C26.0274 16.9753 24.8527 15.7829 24.8527 14.2915C24.8527 12.7899 26.0428 11.5926 27.5179 11.5926H27.518ZM17.3284 16.4653C17.3431 16.4656 17.3575 16.4674 17.3724 16.4674C17.387 16.4674 17.4014 16.4653 17.4163 16.4653C21.1036 16.489 24.0545 19.4653 24.0545 23.191L24.0543 25.0397H10.691V23.191C10.691 19.4649 13.6411 16.489 17.3279 16.4653H17.3284ZM7.18363 18.1443C7.19828 18.1446 7.21267 18.1464 7.22758 18.1464C7.24249 18.1464 7.25663 18.1443 7.27153 18.1443C8.51869 18.1544 9.65688 18.5844 10.5632 19.3038C9.91467 20.4513 9.53962 21.7758 9.53962 23.1913V25.0356H1.82491V23.6072C1.82491 20.5792 4.20565 18.168 7.18349 18.1441L7.18363 18.1443ZM27.4739 18.1443C27.4888 18.1446 27.5029 18.1464 27.5179 18.1464C27.5328 18.1464 27.5469 18.1443 27.5618 18.1443C30.5396 18.168 32.9204 20.5796 32.9204 23.6075V25.0356H25.2017L25.2015 23.1913C25.2015 21.7766 24.8275 20.4531 24.1802 19.3059C25.0868 18.5854 26.2258 18.1543 27.474 18.1443H27.4739Z" fill="#103E13"/>
</svg>
