<svg width="134" height="22" viewBox="0 0 134 22" fill="none" xmlns="http://www.w3.org/2000/svg">
<path d="M17.0185 12.0324L12.3793 19.9779L7.74004 12.0324H17.0185ZM18.2614 11.3223H6.49219L12.3793 21.3833L18.2614 11.3223Z" fill="white"/>
<path d="M25.0844 2.14975L29.7236 10.0953H20.4451L25.0844 2.14975ZM25.0844 0.729492L19.1973 10.7905H30.9715L25.0844 0.729492Z" fill="white"/>
<path d="M0.851562 0.729492L5.78769 9.62848L11.1817 0.952948L0.851562 0.729492Z" fill="#4CAF4F"/>
<path d="M12.3791 1.50903L17.5568 10.3584H7.19141L12.3791 1.50903Z" fill="#4CAF4F"/>
<path d="M18.8902 12.2905L24.0728 21.3832H13.4609L18.7291 12.2905H18.8902Z" fill="#4CAF4F"/>
<path d="M20.0127 11.7393L25.0847 20.6929L30.2271 11.7393H20.0127Z" fill="#4CAF4F"/>
<path d="M52.5142 2.16602V19.6903H49.314L41.6899 8.6606H41.5615V19.6903H37.8564V2.16602H41.108L48.6722 13.1871H48.8262V2.16602H52.5142Z" fill="white"/>
<path d="M61.4967 19.947C60.1447 19.947 58.981 19.6732 58.0055 19.1255C57.0357 18.5722 56.2884 17.7907 55.7636 16.781C55.2388 15.7656 54.9764 14.5648 54.9764 13.1786C54.9764 11.8266 55.2388 10.6401 55.7636 9.61896C56.2884 8.59785 57.0272 7.80207 57.9798 7.23162C58.9382 6.66117 60.062 6.37595 61.3512 6.37595C62.2183 6.37595 63.0255 6.51571 63.7728 6.79523C64.5258 7.06904 65.1818 7.48262 65.7408 8.03596C66.3056 8.5893 66.7448 9.28525 67.0586 10.1238C67.3723 10.9567 67.5292 11.9321 67.5292 13.0502V14.0514H56.4311V11.7924H64.0979C64.0979 11.2676 63.9838 10.8026 63.7556 10.3976C63.5275 9.99261 63.2109 9.67601 62.8058 9.44783C62.4065 9.21394 61.9416 9.097 61.4111 9.097C60.8578 9.097 60.3672 9.22535 59.9393 9.48205C59.5172 9.73305 59.1863 10.0725 58.9467 10.5003C58.7072 10.9224 58.5845 11.3931 58.5788 11.9122V14.0599C58.5788 14.7102 58.6986 15.2721 58.9382 15.7456C59.1835 16.2191 59.5286 16.5842 59.9736 16.8409C60.4185 17.0976 60.9462 17.2259 61.5566 17.2259C61.9616 17.2259 62.3324 17.1689 62.6689 17.0548C63.0055 16.9407 63.2936 16.7696 63.5332 16.5414C63.7728 16.3132 63.9553 16.0337 64.0808 15.7028L67.4522 15.9253C67.281 16.7353 66.9302 17.4427 66.3997 18.0474C65.8749 18.6464 65.196 19.1141 64.3632 19.4507C63.536 19.7816 62.5805 19.947 61.4967 19.947Z" fill="white"/>
<path d="M72.7189 6.54708L75.1319 11.1421L77.6048 6.54708H81.3441L77.5363 13.1187L81.4468 19.6903H77.7246L75.1319 15.1466L72.582 19.6903H68.817L72.7189 13.1187L68.9539 6.54708H72.7189Z" fill="white"/>
<path d="M88.9767 19.947C87.6305 19.947 86.4724 19.6618 85.5027 19.0913C84.5386 18.5151 83.797 17.7165 83.2779 16.6954C82.7645 15.6743 82.5078 14.4992 82.5078 13.17C82.5078 11.8238 82.7674 10.6429 83.2865 9.62752C83.8113 8.60641 84.5557 7.81063 85.5198 7.24018C86.4839 6.66402 87.6305 6.37595 88.9596 6.37595C90.1062 6.37595 91.1102 6.58416 91.9716 7.00059C92.833 7.41702 93.5147 8.00173 94.0167 8.75473C94.5187 9.50772 94.7953 10.3919 94.8467 11.4073H91.4068C91.3099 10.7513 91.0532 10.2236 90.6367 9.82432C90.226 9.4193 89.6869 9.21679 89.0195 9.21679C88.4548 9.21679 87.9613 9.37081 87.5392 9.67886C87.1228 9.9812 86.7976 10.4233 86.5637 11.0052C86.3298 11.587 86.2129 12.2915 86.2129 13.1187C86.2129 13.9572 86.327 14.6703 86.5552 15.2579C86.789 15.8454 87.1171 16.2932 87.5392 16.6013C87.9613 16.9093 88.4548 17.0634 89.0195 17.0634C89.4359 17.0634 89.8096 16.9778 90.1404 16.8066C90.477 16.6355 90.7537 16.3874 90.9704 16.0622C91.1929 15.7313 91.3384 15.3349 91.4068 14.8728H94.8467C94.7896 15.8768 94.5158 16.761 94.0252 17.5254C93.5403 18.2841 92.8701 18.8774 92.0144 19.3052C91.1587 19.7331 90.1461 19.947 88.9767 19.947Z" fill="white"/>
<path d="M103.17 19.947C101.818 19.947 100.655 19.6732 99.6791 19.1255C98.7093 18.5722 97.962 17.7907 97.4372 16.781C96.9124 15.7656 96.65 14.5648 96.65 13.1786C96.65 11.8266 96.9124 10.6401 97.4372 9.61896C97.962 8.59785 98.7008 7.80207 99.6534 7.23162C100.612 6.66117 101.736 6.37595 103.025 6.37595C103.892 6.37595 104.699 6.51571 105.446 6.79523C106.199 7.06904 106.855 7.48262 107.414 8.03596C107.979 8.5893 108.418 9.28525 108.732 10.1238C109.046 10.9567 109.203 11.9321 109.203 13.0502V14.0514H98.1047V11.7924H105.772C105.772 11.2676 105.657 10.8026 105.429 10.3976C105.201 9.99261 104.884 9.67601 104.479 9.44783C104.08 9.21394 103.615 9.097 103.085 9.097C102.531 9.097 102.041 9.22535 101.613 9.48205C101.191 9.73305 100.86 10.0725 100.62 10.5003C100.381 10.9224 100.258 11.3931 100.252 11.9122V14.0599C100.252 14.7102 100.372 15.2721 100.612 15.7456C100.857 16.2191 101.202 16.5842 101.647 16.8409C102.092 17.0976 102.62 17.2259 103.23 17.2259C103.635 17.2259 104.006 17.1689 104.343 17.0548C104.679 16.9407 104.967 16.7696 105.207 16.5414C105.446 16.3132 105.629 16.0337 105.754 15.7028L109.126 15.9253C108.955 16.7353 108.604 17.4427 108.073 18.0474C107.548 18.6464 106.87 19.1141 106.037 19.4507C105.21 19.7816 104.254 19.947 103.17 19.947Z" fill="white"/>
<path d="M115.227 12.0919V19.6903H111.582V6.54708H115.056V8.86597H115.21C115.501 8.10156 115.988 7.49688 116.673 7.05193C117.357 6.60127 118.187 6.37595 119.163 6.37595C120.076 6.37595 120.871 6.5756 121.55 6.97492C122.229 7.37424 122.757 7.94469 123.133 8.68627C123.51 9.42216 123.698 10.3007 123.698 11.3218V19.6903H120.053V11.9721C120.058 11.1677 119.853 10.5402 119.437 10.0896C119.02 9.63322 118.447 9.40504 117.717 9.40504C117.226 9.40504 116.793 9.51058 116.416 9.72164C116.045 9.93271 115.754 10.2408 115.543 10.6458C115.338 11.0451 115.232 11.5271 115.227 12.0919Z" fill="white"/>
<path d="M133.562 6.54708V9.28525H125.647V6.54708H133.562ZM127.444 3.39819H131.089V15.6515C131.089 15.9881 131.14 16.2505 131.243 16.4387C131.346 16.6213 131.488 16.7496 131.671 16.8238C131.859 16.8979 132.076 16.935 132.321 16.935C132.492 16.935 132.663 16.9207 132.834 16.8922C133.006 16.858 133.137 16.8323 133.228 16.8152L133.801 19.5277C133.619 19.5847 133.362 19.6503 133.031 19.7245C132.7 19.8044 132.298 19.8529 131.825 19.87C130.946 19.9042 130.176 19.7873 129.514 19.5191C128.858 19.251 128.348 18.8346 127.983 18.2699C127.618 17.7051 127.438 16.992 127.444 16.1307V3.39819Z" fill="white"/>
</svg>
