<svg width="309" height="230" viewBox="0 0 309 230" fill="none" xmlns="http://www.w3.org/2000/svg">
<path d="M154.599 229.353C220.42 229.353 273.779 226.238 273.779 222.395C273.779 218.552 220.42 215.437 154.599 215.437C88.7783 215.437 35.4199 218.552 35.4199 222.395C35.4199 226.238 88.7783 229.353 154.599 229.353Z" fill="#F5F5F5"/>
<path d="M215.606 66.9989L209.509 64.5402C209.509 64.5402 201.463 79.2125 199.158 79.9562C196.023 80.9643 189.532 83.7672 185.684 84.2589C185.162 84.8736 184.307 86.7853 184.387 87.4798C189.556 89.2071 200.916 86.9143 203.35 85.1072C208.888 81.0073 215.606 66.9989 215.606 66.9989Z" fill="#E58A7B"/>
<path d="M217.481 63.6612C218.618 67.8594 212.459 76.305 212.459 76.305L204.389 71.781C204.389 71.781 205.901 68.3081 207.745 64.7737C210.701 59.0634 216.184 58.8728 217.481 63.6612Z" fill="#4CAF4F"/>
<path opacity="0.2" d="M217.481 63.6612C218.618 67.8594 212.459 76.305 212.459 76.305L204.389 71.781C204.389 71.781 205.901 68.3081 207.745 64.7737C210.701 59.0634 216.184 58.8728 217.481 63.6612Z" fill="black"/>
<path opacity="0.2" d="M207.591 73.5882L210.769 75.3707L211.328 65.6158C209.478 67.0357 208.175 71.3139 207.591 73.5882Z" fill="black"/>
<path d="M212.17 60.5017C212.17 60.5017 205.888 74.4794 209.552 100.505H234.304C234.698 96.7061 233.395 78.1675 238.109 60.2681C235.394 59.7375 232.647 59.3864 229.885 59.2171C226.382 59.0141 222.871 59.0141 219.368 59.2171C216.94 59.4636 214.534 59.8931 212.17 60.5017Z" fill="#4CAF4F"/>
<path opacity="0.2" d="M212.17 60.5017C212.17 60.5017 205.888 74.4794 209.552 100.505H234.304C234.698 96.7061 233.395 78.1675 238.109 60.2681C235.394 59.7375 232.647 59.3864 229.885 59.2171C226.382 59.0141 222.871 59.0141 219.368 59.2171C216.94 59.4636 214.534 59.8931 212.17 60.5017Z" fill="black"/>
<g style="mix-blend-mode:multiply">
<path d="M206.429 222.948C206.392 223.612 215.778 224.147 227.389 224.147C239 224.147 248.454 223.612 248.491 222.948C248.528 222.284 239.148 221.756 227.531 221.756C215.913 221.756 206.472 222.29 206.429 222.948Z" fill="#E8ECF1"/>
</g>
<path d="M222.952 205.505L218.562 207.205L222.343 216.974L226.734 215.275L222.952 205.505Z" fill="#E58A7B"/>
<path d="M242.529 218.221H237.901L236.204 207.507H240.833L242.529 218.221Z" fill="#E58A7B"/>
<path d="M237.581 217.686H242.781C242.871 217.687 242.958 217.719 243.027 217.778C243.096 217.836 243.141 217.917 243.156 218.006L243.826 222.118C243.84 222.221 243.832 222.326 243.802 222.426C243.772 222.526 243.72 222.618 243.652 222.696C243.583 222.774 243.498 222.837 243.403 222.879C243.308 222.921 243.205 222.943 243.101 222.942C241.287 222.911 240.414 222.801 238.128 222.801C236.72 222.801 233.825 222.948 231.87 222.948C229.916 222.948 229.787 221.03 230.592 220.852C234.206 220.071 235.608 219.008 236.812 217.975C237.025 217.789 237.298 217.686 237.581 217.686Z" fill="#263238"/>
<path d="M222.214 216.101L227.131 214.662C227.219 214.638 227.313 214.644 227.396 214.679C227.48 214.715 227.549 214.778 227.592 214.859L229.436 218.547C229.479 218.641 229.501 218.742 229.5 218.845C229.5 218.948 229.477 219.05 229.433 219.143C229.389 219.236 229.325 219.318 229.246 219.384C229.167 219.45 229.075 219.498 228.975 219.524C227.187 220.016 225.988 220.317 223.75 220.969C222.208 221.418 220.634 222.149 219.11 222.635C218.052 222.973 215.569 222.985 214.285 222.985C212.385 222.985 211.961 220.981 212.779 220.889C214.838 220.661 215.114 220.766 216.251 220.194C218.112 219.381 219.798 218.216 221.218 216.764C221.486 216.459 221.829 216.23 222.214 216.101Z" fill="#263238"/>
<path d="M186.458 84.2344L181.368 82.1014L179.272 87.7442C181.359 88.0619 183.481 88.0619 185.567 87.7442L186.458 84.2344Z" fill="#E58A7B"/>
<path d="M177.582 81.9539L177.447 85.7034L179.273 87.7319L181.369 82.0891L177.582 81.9539Z" fill="#E58A7B"/>
<path d="M223.554 206.335L219.15 208.035L221.101 213.087L225.505 211.387L223.554 206.335Z" fill="#CF6F64"/>
<path d="M240.833 207.507H236.204L237.083 213.033H241.712L240.833 207.507Z" fill="#CF6F64"/>
<path opacity="0.2" d="M208.765 93.4668C208.857 94.5793 208.961 95.7165 209.097 96.8843L227.5 90.9097C230.374 90.0579 232.872 88.2519 234.581 85.7895C234.655 84.1483 234.747 82.421 234.888 80.62C234.95 79.7472 235.024 78.8498 235.103 77.9401C235.183 77.0303 235.294 76.0223 235.411 75.0511L208.765 93.4668Z" fill="black"/>
<path d="M214.777 73.3055L214.162 73.2317C214.525 70.1583 216.818 67.7365 219.233 67.798V68.4126C217.119 68.3696 215.103 70.5517 214.777 73.3055Z" fill="white"/>
<path d="M218.053 78.9789H217.948V78.3642C220.063 78.4441 222.048 76.2374 222.374 73.4898L222.989 73.5636C222.663 76.5693 220.444 78.9789 218.053 78.9789Z" fill="white"/>
<path d="M229.541 47.3723C228.674 50.7591 227.654 56.9612 229.885 59.217C229.885 59.217 228.324 62.6531 222.036 62.6531C216.288 62.6531 219.368 59.217 219.368 59.217C223.191 58.3196 223.259 55.529 222.755 52.8859L229.541 47.3723Z" fill="#E58A7B"/>
<path d="M226.775 49.622L222.761 52.8859C222.885 53.4933 222.957 54.1103 222.976 54.73C224.15 55.8978 226.504 52.9413 226.744 51.4292C226.866 50.8338 226.876 50.2211 226.775 49.622Z" fill="#CF6F64"/>
<path d="M215.858 47.3292C216.137 47.8133 216.514 48.2346 216.963 48.5667C217.413 48.8988 217.926 49.1346 218.47 49.2593C219.946 49.5851 220.683 48.2266 220.278 46.8621C219.915 45.6327 218.704 43.9792 217.204 44.262C216.883 44.3282 216.582 44.4704 216.327 44.6767C216.072 44.883 215.87 45.1474 215.739 45.4477C215.607 45.7481 215.549 46.0757 215.57 46.403C215.59 46.7304 215.689 47.048 215.858 47.3292Z" fill="#CF6F64"/>
<path d="M218.299 36.4925C216 37.5436 215.188 46.6777 218.077 48.03C220.966 49.3823 222.651 34.4948 218.299 36.4925Z" fill="#263238"/>
<path d="M230.242 42.2766C229.689 46.8621 229.627 49.5605 227.169 51.9086C226.407 52.6878 225.444 53.2413 224.388 53.5079C223.331 53.7746 222.221 53.7441 221.181 53.4198C220.14 53.0954 219.21 52.4899 218.492 51.67C217.774 50.8502 217.297 49.8478 217.112 48.7737C216.369 44.6554 217.395 37.8509 221.993 36.0254C222.959 35.5993 224.021 35.4393 225.07 35.5621C226.119 35.6848 227.116 36.0858 227.957 36.7236C228.799 37.3613 229.454 38.2124 229.856 39.1888C230.258 40.1652 230.391 41.2313 230.242 42.2766Z" fill="#E58A7B"/>
<path d="M222.687 38.8652C226.092 37.9985 228.594 37.4084 227.697 40.242C226.51 44.0284 225.084 47.6919 226.996 47.8579C228.164 47.9624 233.327 45.7741 232.67 43.5551C232.098 41.6251 234.514 41.0964 234.944 40.1191C236.536 36.5786 231.981 37.0457 232.792 34.8944C233.604 32.743 229.104 29.2762 226.646 31.0035C222.644 33.7941 215.778 33.7511 219.386 29.1594C221.974 25.8832 217.358 26.5532 217.358 26.5532C217.358 26.5532 220.149 28.2067 215.452 30.7637C210.486 33.4929 215.041 40.826 222.687 38.8652Z" fill="#263238"/>
<path d="M232.049 47.3292C231.376 48.302 230.366 48.9899 229.215 49.2593C227.697 49.5851 227.113 48.2266 227.684 46.8621C228.194 45.6327 229.596 43.9792 231.047 44.262C232.497 44.5447 232.829 46.1245 232.049 47.3292Z" fill="#E58A7B"/>
<path d="M209.552 100.505C209.552 100.505 205.397 137.693 205.071 151.806C204.739 166.484 219.153 212.283 219.153 212.283L226.529 209.21C226.529 209.21 217.924 167.363 219.153 152.949C220.456 137.232 225.841 100.529 225.841 100.529L209.552 100.505Z" fill="#4CAF4F"/>
<path opacity="0.2" d="M219.878 110.715C216.565 117.587 218.797 131.177 220.591 139.229C221.274 133.544 222.085 127.372 222.853 121.662C222.78 112.884 222.097 106.104 219.878 110.715Z" fill="black"/>
<path d="M226.204 206.776C226.241 206.776 227.077 209.124 227.077 209.124L218.569 212.701L217.229 210.206L226.204 206.776Z" fill="#4CAF4F"/>
<path d="M218.335 100.505C218.335 100.505 221.513 135.873 223.615 149.119C225.926 163.632 234.987 211.964 234.987 211.964H243.463C243.463 211.964 238.386 164.806 237.427 150.435C236.382 134.847 234.304 100.505 234.304 100.505H218.335Z" fill="#4CAF4F"/>
<path d="M243.592 209.757C243.629 209.757 243.875 212.124 243.875 212.124H234.556L233.893 209.407L243.592 209.757Z" fill="#4CAF4F"/>
<path opacity="0.2" d="M240.347 206.954C240.328 206.954 240.309 206.948 240.295 206.935C240.28 206.923 240.27 206.906 240.267 206.887C240.218 206.456 235.639 163.859 234.778 150.951C233.844 136.949 231.963 105.889 231.945 105.576C231.944 105.566 231.945 105.555 231.948 105.546C231.952 105.536 231.957 105.527 231.964 105.52C231.971 105.512 231.979 105.506 231.989 105.502C231.998 105.498 232.008 105.496 232.018 105.496C232.039 105.496 232.058 105.503 232.073 105.517C232.088 105.531 232.097 105.55 232.098 105.57C232.098 105.883 233.998 136.918 234.932 150.945C235.792 163.853 240.372 206.419 240.415 206.88C240.417 206.891 240.416 206.901 240.414 206.911C240.411 206.921 240.406 206.93 240.4 206.939C240.394 206.947 240.386 206.953 240.377 206.958C240.368 206.963 240.357 206.966 240.347 206.967V206.954Z" fill="black"/>
<path d="M223.209 43.5552C223.209 43.9301 222.976 44.2313 222.73 44.2313C222.484 44.2313 222.306 43.9301 222.33 43.5552C222.355 43.1802 222.564 42.879 222.81 42.879C223.056 42.879 223.234 43.1864 223.209 43.5552Z" fill="#263238"/>
<path d="M218.993 43.5552C218.993 43.9301 218.753 44.2313 218.513 44.2313C218.274 44.2313 218.089 43.9301 218.108 43.5552C218.126 43.1802 218.347 42.879 218.593 42.879C218.839 42.879 219.017 43.1864 218.993 43.5552Z" fill="#263238"/>
<path d="M220.32 43.7457C219.807 44.8906 219.146 45.9632 218.354 46.9358C218.968 47.5505 220.118 47.2678 220.118 47.2678L220.32 43.7457Z" fill="#DF5753"/>
<path d="M220.432 48.8352C220.418 48.8352 220.403 48.8323 220.39 48.8267C220.377 48.8211 220.365 48.8128 220.356 48.8025C220.346 48.7921 220.338 48.7798 220.333 48.7664C220.329 48.753 220.326 48.7388 220.327 48.7246C220.329 48.6947 220.342 48.6665 220.364 48.6459C220.385 48.6253 220.414 48.6139 220.444 48.6139C220.914 48.6172 221.379 48.5151 221.805 48.3151C222.23 48.1151 222.605 47.8224 222.903 47.4583C222.924 47.4397 222.951 47.4295 222.98 47.4295C223.008 47.4295 223.035 47.4397 223.056 47.4583C223.076 47.479 223.088 47.5065 223.088 47.5352C223.088 47.5638 223.076 47.5914 223.056 47.612C222.738 47.9989 222.337 48.3096 221.883 48.5212C221.429 48.7329 220.933 48.8402 220.432 48.8352Z" fill="#263238"/>
<path d="M223.96 42.4242C223.93 42.4393 223.897 42.4471 223.864 42.4471C223.831 42.4471 223.799 42.4393 223.769 42.4242C223.539 42.2755 223.277 42.183 223.005 42.1542C222.733 42.1254 222.458 42.161 222.202 42.2582C222.177 42.2707 222.149 42.278 222.122 42.2798C222.094 42.2816 222.066 42.2778 222.04 42.2687C222.013 42.2595 221.989 42.2452 221.968 42.2265C221.947 42.2078 221.931 42.1851 221.919 42.1599C221.896 42.1052 221.896 42.0437 221.917 41.9886C221.939 41.9335 221.982 41.8891 222.036 41.8648C222.357 41.7336 222.705 41.6818 223.051 41.7139C223.397 41.746 223.729 41.861 224.021 42.0492C224.045 42.0652 224.065 42.0858 224.08 42.1096C224.096 42.1335 224.107 42.1602 224.112 42.1882C224.117 42.2163 224.116 42.245 224.11 42.2729C224.104 42.3007 224.093 42.3271 224.076 42.3504C224.045 42.3856 224.005 42.4112 223.96 42.4242Z" fill="#263238"/>
<path d="M217.364 41.1948C217.332 41.1868 217.302 41.1698 217.278 41.1456C217.258 41.1256 217.242 41.1017 217.231 41.0753C217.22 41.0489 217.214 41.0205 217.214 40.9919C217.214 40.9633 217.22 40.935 217.231 40.9086C217.242 40.8822 217.258 40.8583 217.278 40.8383C217.514 40.574 217.807 40.3678 218.136 40.2356C218.464 40.1033 218.819 40.0488 219.172 40.0761C219.2 40.0804 219.227 40.0905 219.251 40.1058C219.275 40.1211 219.296 40.1411 219.312 40.1647C219.328 40.1884 219.34 40.2151 219.345 40.2432C219.35 40.2712 219.35 40.3002 219.344 40.3281C219.331 40.385 219.297 40.4351 219.25 40.4691C219.202 40.503 219.144 40.5185 219.086 40.5125C218.806 40.4949 218.527 40.5411 218.268 40.6476C218.009 40.7541 217.778 40.9181 217.592 41.1272C217.564 41.1583 217.528 41.181 217.488 41.193C217.448 41.2049 217.405 41.2055 217.364 41.1948Z" fill="#263238"/>
<path d="M240.488 66.3165L234.095 64.6139C234.095 64.6139 227.826 80.0484 225.607 81.0503C222.595 82.4272 214.967 87.1971 211.721 89.4529C211.543 90.2213 211.684 92.2558 212.09 92.8152C217.622 91.8071 228.213 87.7318 230.426 85.6604C235.472 80.9335 240.488 66.3165 240.488 66.3165Z" fill="#E58A7B"/>
<path d="M236.026 218.498C235.714 218.523 235.403 218.438 235.147 218.258C235.068 218.187 235.009 218.096 234.975 217.994C234.942 217.893 234.935 217.785 234.956 217.68C234.96 217.615 234.982 217.552 235.019 217.498C235.055 217.444 235.106 217.401 235.165 217.373C235.682 217.109 237.126 218.025 237.292 218.129C237.31 218.14 237.325 218.157 237.332 218.177C237.34 218.197 237.341 218.219 237.335 218.24C237.33 218.261 237.319 218.281 237.304 218.297C237.289 218.313 237.27 218.325 237.249 218.332C236.849 218.43 236.438 218.486 236.026 218.498ZM235.411 217.539C235.365 217.529 235.317 217.529 235.27 217.539C235.246 217.551 235.227 217.57 235.214 217.592C235.201 217.615 235.195 217.642 235.196 217.668C235.18 217.74 235.183 217.814 235.204 217.884C235.226 217.954 235.265 218.018 235.319 218.068C235.559 218.283 236.161 218.307 236.954 218.154C236.482 217.843 235.95 217.633 235.393 217.539H235.411Z" fill="#4CAF4F"/>
<path d="M237.218 218.332C237.202 218.337 237.185 218.337 237.169 218.332C236.708 218.074 235.841 217.059 235.97 216.543C235.989 216.461 236.036 216.388 236.101 216.336C236.167 216.284 236.249 216.255 236.333 216.254C236.415 216.243 236.499 216.25 236.579 216.275C236.658 216.299 236.732 216.34 236.794 216.396C237.304 216.832 237.335 218.172 237.335 218.24C237.338 218.26 237.334 218.28 237.324 218.298C237.314 218.316 237.298 218.33 237.279 218.338C237.259 218.342 237.237 218.34 237.218 218.332ZM236.394 216.457H236.351C236.21 216.457 236.191 216.537 236.185 216.568C236.111 216.869 236.658 217.637 237.113 218C237.111 217.481 236.95 216.974 236.652 216.549C236.581 216.487 236.489 216.454 236.394 216.457Z" fill="#4CAF4F"/>
<path d="M219.706 217.73C219.33 217.861 218.92 217.861 218.544 217.73C218.459 217.683 218.387 217.616 218.334 217.535C218.281 217.453 218.25 217.359 218.243 217.262C218.235 217.202 218.243 217.14 218.266 217.083C218.288 217.026 218.325 216.976 218.372 216.937C218.864 216.494 220.874 216.937 221.101 217.023C221.123 217.028 221.142 217.041 221.156 217.059C221.169 217.077 221.176 217.099 221.175 217.121C221.176 217.144 221.17 217.167 221.158 217.187C221.146 217.206 221.128 217.222 221.108 217.232C220.655 217.436 220.186 217.602 219.706 217.73ZM218.704 216.998C218.634 217.012 218.568 217.044 218.514 217.09C218.494 217.105 218.479 217.125 218.47 217.148C218.462 217.171 218.46 217.195 218.464 217.219C218.468 217.284 218.489 217.346 218.523 217.401C218.557 217.456 218.605 217.501 218.661 217.533C218.987 217.705 219.743 217.57 220.72 217.158C220.062 216.992 219.38 216.938 218.704 216.998Z" fill="#4CAF4F"/>
<path d="M221.089 217.232H221.04C220.425 217.121 219.196 216.414 219.159 215.885C219.159 215.763 219.215 215.59 219.51 215.492C219.609 215.457 219.715 215.442 219.821 215.448C219.926 215.454 220.03 215.482 220.124 215.529C220.788 215.855 221.138 217.035 221.157 217.09C221.161 217.109 221.161 217.128 221.155 217.147C221.15 217.165 221.14 217.181 221.126 217.195C221.117 217.21 221.104 217.222 221.089 217.232ZM219.632 215.676H219.571C219.38 215.744 219.38 215.824 219.38 215.849C219.38 216.168 220.272 216.752 220.893 216.949C220.75 216.455 220.447 216.023 220.032 215.72C219.909 215.657 219.766 215.641 219.632 215.676Z" fill="#4CAF4F"/>
<path d="M212.244 89.0903L205.833 92.0407L205.089 93.8847L207.455 95.4767C207.455 95.4767 211.881 94.9973 213.141 92.1514L212.244 89.0903Z" fill="#E58A7B"/>
<path d="M212.515 92.9197C212.371 91.6879 211.965 90.5014 211.322 89.4407L212.336 88.6785C213.099 89.9006 213.586 91.2747 213.763 92.7046L212.515 92.9197Z" fill="#263238"/>
<path d="M213.609 89.9631C213.744 90.1763 213.811 90.4261 213.799 90.6784C213.788 90.9308 213.699 91.1735 213.545 91.3735C213.39 91.5735 213.178 91.7212 212.937 91.7964C212.696 91.8716 212.437 91.8707 212.197 91.7937C211.956 91.7168 211.745 91.5677 211.592 91.3665C211.439 91.1654 211.352 90.922 211.343 90.6696C211.333 90.4172 211.401 90.1679 211.539 89.9557C211.676 89.7435 211.875 89.5787 212.109 89.4837C212.371 89.3498 212.676 89.3251 212.957 89.4149C213.238 89.5047 213.472 89.7017 213.609 89.9631Z" fill="#263238"/>
<path d="M201.499 94.4257L202.353 95.2862L208.107 92.8275L205.832 92.0407L201.499 94.4257Z" fill="#E58A7B"/>
<path opacity="0.2" d="M226.204 206.776C226.241 206.776 227.077 209.124 227.077 209.124L218.569 212.701L217.229 210.206L226.204 206.776Z" fill="black"/>
<path opacity="0.2" d="M243.592 209.757C243.629 209.757 243.875 212.124 243.875 212.124H234.556L233.893 209.407L243.592 209.757Z" fill="black"/>
<path d="M242.154 64.5463C243.844 69.9985 237.236 77.4545 237.236 77.4545L228.108 73.7296C229.19 70.5782 230.438 67.4862 231.846 64.4664C234.649 58.4241 240.445 59.045 242.154 64.5463Z" fill="#4CAF4F"/>
<path opacity="0.2" d="M242.154 64.5463C243.844 69.9985 237.236 77.4545 237.236 77.4545L228.108 73.7296C229.19 70.5782 230.438 67.4862 231.846 64.4664C234.649 58.4241 240.445 59.045 242.154 64.5463Z" fill="black"/>
<path d="M151.452 9.9201H147.524V10.5532H151.452V9.9201Z" fill="#4CAF4F"/>
<path d="M202.298 34.9782L201.822 45.5276L202.455 45.5561L202.93 35.0067L202.298 34.9782Z" fill="#4CAF4F"/>
<path d="M201.075 12.7599H128.543L121.794 163.798H194.326L201.075 12.7599Z" fill="#4CAF4F"/>
<path opacity="0.56" d="M198.912 14.8375H126.38L119.631 165.875H192.163L198.912 14.8375Z" fill="#FAFAFA"/>
<path opacity="0.07" d="M196.748 16.9089H124.216L117.461 167.947H189.993L196.748 16.9089Z" fill="#4CAF4F"/>
<path d="M188.493 82.7837H126.583L126.066 94.3396H187.976L188.493 82.7837Z" fill="white"/>
<path d="M160.63 74.3503H126.958L126.73 79.5198H160.402L160.63 74.3503Z" fill="#4CAF4F"/>
<path d="M187.097 113.972H125.187L124.671 125.528H186.581L187.097 113.972Z" fill="white"/>
<path opacity="0.47" d="M175.744 141.135H134.112L133.491 154.983H175.123L175.744 141.135Z" fill="#4CAF4F"/>
<path d="M172.96 157.135H131.328C131.31 157.139 131.291 157.139 131.273 157.135C131.267 157.117 131.267 157.097 131.273 157.079L131.888 143.225C131.888 143.215 131.89 143.206 131.893 143.197C131.897 143.189 131.903 143.181 131.91 143.175C131.917 143.168 131.925 143.163 131.934 143.16C131.943 143.157 131.952 143.156 131.962 143.157H173.593C173.601 143.153 173.61 143.151 173.618 143.151C173.627 143.151 173.635 143.153 173.643 143.157C173.647 143.165 173.649 143.173 173.649 143.182C173.649 143.19 173.647 143.199 173.643 143.206L173.04 157.092C173.033 157.106 173.021 157.118 173.007 157.126C172.993 157.133 172.976 157.137 172.96 157.135ZM131.402 156.987H172.887L173.501 143.28H132.017L131.402 156.987Z" fill="white"/>
<path d="M153.358 105.539H125.562L125.335 110.715H153.124L153.358 105.539Z" fill="#4CAF4F"/>
<path d="M174.952 45.4544C174.793 48.8176 173.597 52.049 171.528 54.7053C169.997 56.7117 168.026 58.3405 165.767 59.4668C163.508 60.593 161.021 61.1868 158.497 61.2024C156.457 61.218 154.436 60.8158 152.558 60.0206C150.679 59.2254 148.984 58.054 147.575 56.5787C146.167 55.1034 145.075 53.3553 144.368 51.4421C143.66 49.529 143.352 47.4912 143.462 45.4544C143.678 41.2279 145.501 37.2437 148.557 34.3164C151.614 31.3892 155.673 29.7401 159.905 29.7065C161.946 29.6874 163.969 30.0872 165.85 30.881C167.731 31.6748 169.429 32.8458 170.839 34.3217C172.249 35.7976 173.342 37.547 174.049 39.4618C174.757 41.3766 175.064 43.4162 174.952 45.4544Z" fill="white"/>
<path d="M176.433 33.0011C176.393 33.8954 176.075 34.7548 175.523 35.4598C175.115 35.9927 174.591 36.4253 173.99 36.7247C173.389 37.024 172.728 37.1822 172.056 37.1871C171.406 37.191 170.765 37.0357 170.188 36.7346C169.612 36.4335 169.118 35.9958 168.749 35.4598C168.262 34.7355 168.02 33.8734 168.061 33.0011C168.12 31.879 168.606 30.8218 169.418 30.0451C170.23 29.2684 171.308 28.8307 172.431 28.8213C172.974 28.8164 173.511 28.9225 174.01 29.1331C174.51 29.3437 174.961 29.6544 175.336 30.046C175.711 30.4376 176.002 30.9018 176.19 31.4101C176.379 31.9183 176.461 32.4598 176.433 33.0011Z" fill="#4CAF4F"/>
<path d="M133.252 88.5616C133.222 89.0569 133.006 89.5226 132.647 89.8648C132.288 90.207 131.812 90.4003 131.316 90.4056C131.076 90.4085 130.838 90.3622 130.618 90.2696C130.397 90.1769 130.197 90.04 130.031 89.8671C129.865 89.6943 129.736 89.4893 129.653 89.2647C129.569 89.0402 129.533 88.8009 129.545 88.5616C129.572 88.0653 129.787 87.5979 130.147 87.2551C130.507 86.9123 130.985 86.72 131.482 86.7176C131.721 86.7156 131.958 86.7626 132.179 86.8555C132.399 86.9484 132.598 87.0854 132.764 87.2581C132.93 87.4307 133.059 87.6354 133.143 87.8595C133.226 88.0837 133.264 88.3226 133.252 88.5616Z" fill="#263238"/>
<path d="M141.538 88.5616C141.51 89.0574 141.294 89.524 140.934 89.8665C140.575 90.209 140.098 90.4018 139.602 90.4056C139.362 90.4077 139.126 90.3607 138.905 90.2677C138.685 90.1747 138.486 90.0376 138.321 89.8649C138.156 89.6921 138.028 89.4874 137.944 89.2633C137.861 89.0391 137.825 88.8003 137.837 88.5616C137.864 88.0663 138.078 87.5998 138.437 87.2572C138.796 86.9145 139.271 86.7216 139.767 86.7176C140.007 86.7147 140.245 86.7611 140.466 86.8537C140.687 86.9463 140.886 87.0833 141.052 87.2561C141.218 87.4289 141.347 87.634 141.43 87.8585C141.514 88.0831 141.55 88.3224 141.538 88.5616Z" fill="#263238"/>
<path d="M149.83 88.5616C149.802 89.0574 149.586 89.524 149.226 89.8665C148.867 90.209 148.39 90.4018 147.893 90.4056C147.654 90.4076 147.417 90.3607 147.196 90.2678C146.976 90.1748 146.777 90.0378 146.611 89.8652C146.445 89.6925 146.316 89.4879 146.233 89.2637C146.149 89.0396 146.111 88.8007 146.123 88.5616C146.151 88.0658 146.367 87.5993 146.727 87.2568C147.086 86.9143 147.563 86.7215 148.059 86.7176C148.299 86.7147 148.537 86.7611 148.758 86.8537C148.979 86.9463 149.178 87.0833 149.344 87.2561C149.51 87.4289 149.639 87.634 149.722 87.8585C149.806 88.0831 149.842 88.3224 149.83 88.5616Z" fill="#263238"/>
<path d="M131.857 119.75C131.828 120.246 131.611 120.711 131.252 121.053C130.893 121.396 130.417 121.589 129.921 121.594C129.681 121.596 129.444 121.549 129.224 121.456C129.003 121.363 128.804 121.226 128.638 121.054C128.472 120.881 128.344 120.676 128.26 120.452C128.176 120.228 128.139 119.989 128.151 119.75C128.179 119.254 128.394 118.788 128.754 118.445C129.114 118.103 129.59 117.91 130.087 117.906C130.326 117.904 130.563 117.951 130.784 118.044C131.004 118.137 131.204 118.274 131.369 118.447C131.535 118.619 131.664 118.824 131.748 119.048C131.832 119.272 131.869 119.511 131.857 119.75Z" fill="#263238"/>
<path d="M140.142 119.75C140.114 120.245 139.899 120.711 139.541 121.053C139.183 121.395 138.708 121.589 138.212 121.594C137.973 121.597 137.735 121.551 137.514 121.458C137.293 121.366 137.093 121.229 136.928 121.056C136.762 120.883 136.633 120.678 136.549 120.453C136.466 120.229 136.429 119.989 136.442 119.75C136.47 119.254 136.686 118.788 137.045 118.445C137.405 118.103 137.882 117.91 138.378 117.906C138.617 117.904 138.854 117.951 139.074 118.044C139.295 118.137 139.493 118.274 139.659 118.447C139.824 118.62 139.952 118.824 140.035 119.049C140.118 119.273 140.155 119.511 140.142 119.75Z" fill="#263238"/>
<path d="M148.452 119.75C148.424 120.246 148.209 120.713 147.849 121.055C147.489 121.398 147.013 121.59 146.516 121.594C146.277 121.595 146.04 121.548 145.82 121.455C145.6 121.361 145.401 121.224 145.236 121.052C145.07 120.879 144.941 120.675 144.857 120.451C144.773 120.228 144.735 119.989 144.746 119.75C144.775 119.255 144.992 118.789 145.351 118.447C145.71 118.105 146.186 117.912 146.682 117.906C146.922 117.903 147.159 117.95 147.38 118.042C147.601 118.135 147.801 118.272 147.967 118.445C148.133 118.618 148.261 118.823 148.345 119.047C148.428 119.272 148.465 119.511 148.452 119.75Z" fill="#263238"/>
<path d="M156.727 119.75C156.697 120.246 156.481 120.711 156.122 121.053C155.762 121.396 155.287 121.589 154.791 121.594C154.552 121.595 154.315 121.548 154.095 121.455C153.875 121.361 153.676 121.224 153.51 121.052C153.345 120.879 153.216 120.675 153.132 120.451C153.047 120.228 153.01 119.989 153.02 119.75C153.05 119.255 153.266 118.789 153.625 118.447C153.985 118.105 154.46 117.912 154.957 117.906C155.196 117.904 155.433 117.951 155.654 118.044C155.874 118.137 156.073 118.274 156.239 118.447C156.405 118.619 156.534 118.824 156.618 119.048C156.701 119.272 156.739 119.511 156.727 119.75Z" fill="#263238"/>
<path d="M165.049 119.75C165.019 120.246 164.803 120.711 164.444 121.053C164.084 121.396 163.609 121.589 163.113 121.594C162.873 121.597 162.635 121.551 162.414 121.458C162.193 121.366 161.994 121.229 161.828 121.056C161.662 120.883 161.533 120.678 161.45 120.453C161.366 120.229 161.33 119.989 161.342 119.75C161.37 119.254 161.586 118.788 161.946 118.445C162.305 118.103 162.782 117.91 163.279 117.906C163.518 117.904 163.755 117.951 163.976 118.044C164.196 118.137 164.395 118.274 164.561 118.447C164.727 118.619 164.856 118.824 164.939 119.048C165.023 119.272 165.06 119.511 165.049 119.75Z" fill="#263238"/>
<path d="M163.791 44.6343C166.364 42.1184 166.5 38.0857 164.096 35.627C161.692 33.1683 157.657 33.2147 155.084 35.7306C152.511 38.2465 152.375 42.2792 154.779 44.7379C157.184 47.1966 161.218 47.1502 163.791 44.6343Z" fill="#4CAF4F"/>
<path d="M171.528 54.7053C169.996 56.7117 168.025 58.3405 165.767 59.4668C163.508 60.593 161.021 61.1868 158.497 61.2024C156.049 61.2232 153.634 60.6414 151.464 59.5083C149.295 58.3753 147.437 56.7258 146.056 54.7053C149.043 51.7303 153.77 49.7879 159.007 49.7879C164.244 49.7879 168.805 51.7303 171.528 54.7053Z" fill="#4CAF4F"/>
<path opacity="0.1" d="M163.791 44.6343C166.364 42.1184 166.5 38.0857 164.096 35.627C161.692 33.1683 157.657 33.2147 155.084 35.7306C152.511 38.2465 152.375 42.2792 154.779 44.7379C157.184 47.1966 161.218 47.1502 163.791 44.6343Z" fill="white"/>
<path opacity="0.1" d="M171.528 54.7053C169.996 56.7117 168.025 58.3405 165.767 59.4668C163.508 60.593 161.021 61.1868 158.497 61.2024C156.049 61.2232 153.634 60.6414 151.464 59.5083C149.295 58.3753 147.437 56.7258 146.056 54.7053C149.043 51.7303 153.77 49.7879 159.007 49.7879C164.244 49.7879 168.805 51.7303 171.528 54.7053Z" fill="white"/>
<path d="M81.0909 97.124C80.507 98.4026 79.8923 99.8102 79.3575 101.175C78.8227 102.539 78.2757 103.947 77.8024 105.348C76.836 108.11 76.1 110.948 75.6019 113.831L75.4666 114.734C75.4537 114.889 75.4683 115.046 75.5096 115.195C75.6547 115.705 75.8832 116.187 76.1858 116.622C76.9752 117.747 77.8909 118.778 78.9149 119.695C79.9947 120.699 81.1273 121.645 82.308 122.529C83.4881 123.438 84.7298 124.323 85.953 125.159L84.8035 127.317C81.8827 126.044 79.1104 124.455 76.5362 122.578C75.1628 121.576 73.9234 120.403 72.8481 119.086C72.2107 118.303 71.7137 117.415 71.379 116.462C71.1844 115.866 71.0849 115.244 71.084 114.618C71.084 114.47 71.084 114.255 71.084 114.151V113.849L71.1455 113.235C71.4978 110.032 72.1712 106.873 73.1554 103.806C73.6349 102.293 74.1451 100.787 74.729 99.3184C75.3129 97.8494 75.9153 96.411 76.6591 94.9174L81.0909 97.124Z" fill="#E58A7B"/>
<path d="M85.0867 124.778L89.4324 122.578L88.3075 127.348C88.3075 127.348 85.3264 128.184 83.9434 126.733L85.0867 124.778Z" fill="#E58A7B"/>
<path d="M93.4094 123.358L92.2538 127.305L88.3076 127.348L89.4325 122.578L93.4094 123.358Z" fill="#E58A7B"/>
<path d="M99.5435 74.1106C99.776 74.9624 100.1 75.7868 100.509 76.5693C100.389 76.7048 100.235 76.8055 100.063 76.8607C99.8911 76.9159 99.7073 76.9235 99.5312 76.8828L99.5435 74.1106Z" fill="#DF5753"/>
<path d="M99.4141 74.1475C99.6687 74.1475 99.8751 73.831 99.8751 73.4406C99.8751 73.0502 99.6687 72.7337 99.4141 72.7337C99.1595 72.7337 98.9531 73.0502 98.9531 73.4406C98.9531 73.831 99.1595 74.1475 99.4141 74.1475Z" fill="#263238"/>
<path d="M99.2793 72.7583L100.214 72.494C100.214 72.494 99.7587 73.2193 99.2793 72.7583Z" fill="#263238"/>
<path d="M87.5384 78.6223C88.0978 81.4806 88.6572 86.7237 86.6533 88.6354C86.6533 88.6354 87.4401 91.5366 92.757 91.5366C98.6026 91.5366 95.5477 88.6354 95.5477 88.6354C92.3575 87.8732 92.4374 85.5067 92.9968 83.2816L87.5384 78.6223Z" fill="#E58A7B"/>
<path d="M85.9842 72.1067C86.2793 76.8828 86.3038 78.9112 88.7134 81.3638C92.3461 85.0518 98.1486 83.6503 99.2858 78.905C100.312 74.6023 99.6607 67.5213 94.9831 65.6219C93.9563 65.1989 92.8386 65.0449 91.7357 65.1743C90.6327 65.3038 89.5811 65.7124 88.6802 66.3617C87.7792 67.0109 87.0588 67.8792 86.5871 68.8845C86.1153 69.8899 85.9078 70.9989 85.9842 72.1067Z" fill="#E58A7B"/>
<path d="M86.4569 66.7345C84.0597 67.6073 80.8634 66.9558 82.1173 74.3503C83.445 82.1813 81.4043 84.7568 81.4043 84.7568C81.4043 84.7568 90.4953 86.693 99.7769 84.64C99.7769 84.64 96.9433 79.6857 97.7362 76.0345C98.7504 71.4245 97.9513 69.7218 97.9513 69.7218C97.9513 69.7218 89.8253 65.5051 86.4569 66.7345Z" fill="#263238"/>
<path d="M96.5996 74.5962C96.6021 75.5043 96.8621 76.3931 97.3495 77.1594C98.0011 78.1551 98.7694 77.774 98.96 76.7168C99.1321 75.7886 99.003 74.1475 98.1732 73.5082C97.3434 72.8689 96.6119 73.4959 96.5996 74.5962Z" fill="#E58A7B"/>
<path d="M84.3729 67.5397C83.6845 65.6035 86.9669 62.6223 93.9127 63.8517C100.859 65.081 101.16 70.8651 101.16 70.8651L99.7582 69.1932L99.8197 70.9512L92.6833 72.3219L84.3729 67.5397Z" fill="#263238"/>
<path d="M84.9636 88.9612C84.9226 88.6805 84.9928 88.3949 85.1593 88.1653C85.3258 87.9357 85.5754 87.7801 85.8549 87.7318C88.0185 87.3753 92.9359 86.65 95.4069 86.9942C97.2509 87.2524 97.7304 88.3219 97.8103 89.2009C97.8228 89.3548 97.8022 89.5096 97.7499 89.6549C97.6976 89.8002 97.6148 89.9326 97.5071 90.0432C97.3994 90.1539 97.2692 90.2402 97.1254 90.2963C96.9815 90.3525 96.8273 90.3772 96.6731 90.3688L85.9901 89.8893C85.7382 89.8766 85.4985 89.7773 85.3114 89.6082C85.1244 89.439 85.0015 89.2105 84.9636 88.9612Z" fill="#4CAF4F"/>
<path opacity="0.6" d="M84.9636 88.9612C84.9226 88.6805 84.9928 88.3949 85.1593 88.1653C85.3258 87.9357 85.5754 87.7801 85.8549 87.7318C88.0185 87.3753 92.9359 86.65 95.4069 86.9942C97.2509 87.2524 97.7304 88.3219 97.8103 89.2009C97.8228 89.3548 97.8022 89.5096 97.7499 89.6549C97.6976 89.8002 97.6148 89.9326 97.5071 90.0432C97.3994 90.1539 97.2692 90.2402 97.1254 90.2963C96.9815 90.3525 96.8273 90.3772 96.6731 90.3688L85.9901 89.8893C85.7382 89.8766 85.4985 89.7773 85.3114 89.6082C85.1244 89.439 85.0015 89.2105 84.9636 88.9612Z" fill="black"/>
<path d="M91.1406 196.345L95.1053 199.099L101.738 190.106L97.773 187.358L91.1406 196.345Z" fill="#E58A7B"/>
<path d="M81.8965 196.167L86.0824 198.552L91.9526 189.043L87.7666 186.658L81.8965 196.167Z" fill="#E58A7B"/>
<path d="M101.732 190.106L98.3143 194.741L94.3496 191.993L97.7672 187.358L101.732 190.106Z" fill="#CF6F64"/>
<path d="M87.7605 186.658L91.9526 189.049L88.9284 193.948L84.7363 191.557L87.7605 186.658Z" fill="#CF6F64"/>
<path d="M94.4847 118.982C94.4847 118.982 109.962 138.486 107.055 157.141C104.713 172.207 91.1286 192.608 91.1286 192.608L84.7422 189.436C89.2437 180.416 93.0853 171.081 96.2366 161.505C97.2084 158.532 97.492 155.377 97.0661 152.279C96.6401 149.18 95.5158 146.219 93.7779 143.618C85.9346 132.167 73.3707 138.983 81.8224 118.982H94.4847Z" fill="#4CAF4F"/>
<path opacity="0.6" d="M94.4847 118.982C94.4847 118.982 109.962 138.486 107.055 157.141C104.713 172.207 91.1286 192.608 91.1286 192.608L84.7422 189.436C89.2437 180.416 93.0853 171.081 96.2366 161.505C97.2084 158.532 97.492 155.377 97.0661 152.279C96.6401 149.18 95.5158 146.219 93.7779 143.618C85.9346 132.167 73.3707 138.983 81.8224 118.982H94.4847Z" fill="black"/>
<path opacity="0.4" d="M102.076 131.509L99.8262 129.272C99.8262 129.45 104.184 156.354 105.407 163.915C106.129 161.706 106.682 159.446 107.061 157.153C108.499 148.001 105.493 138.651 102.076 131.509Z" fill="black"/>
<path d="M101.394 118.982C101.394 118.982 120.031 143.495 120.559 158.192C120.996 170.486 100.275 194.304 100.275 194.304L94.2514 190.407C94.2514 190.407 106.379 173.491 109.434 159.673C108.254 145.978 83.2979 118.982 83.2979 118.982H101.394Z" fill="#4CAF4F"/>
<path opacity="0.6" d="M101.394 118.982C101.394 118.982 120.031 143.495 120.559 158.192C120.996 170.486 100.275 194.304 100.275 194.304L94.2514 190.407C94.2514 190.407 106.379 173.491 109.434 159.673C108.254 145.978 83.2979 118.982 83.2979 118.982H101.394Z" fill="black"/>
<path d="M78.3368 89.7295C76.3452 90.2028 74.4336 97.4436 74.4336 97.4436L82.2215 102.644C82.2215 102.644 84.8155 96.915 83.9057 94.4071C82.9653 91.7948 80.8385 89.1332 78.3368 89.7295Z" fill="#4CAF4F"/>
<path opacity="0.2" d="M79.8612 94.3948L79.3203 100.708L82.2154 102.65C83.0148 100.85 83.6067 98.9654 83.9796 97.0318L79.8612 94.3948Z" fill="black"/>
<path d="M103.698 89.8709C103.698 89.8709 105.997 90.6761 101.393 118.976H81.8098C82.1418 110.985 82.1479 106.068 78.3369 89.7295C81.079 89.1644 83.8585 88.7987 86.6535 88.6354C89.6145 88.4231 92.5868 88.4231 95.5478 88.6354C99.3711 88.9857 103.698 89.8709 103.698 89.8709Z" fill="#4CAF4F"/>
<path d="M105.69 94.3949C106.133 95.6242 106.6 96.9458 107.092 98.2182C107.584 99.4905 108.051 100.8 108.549 102.091L110.055 105.951L110.436 106.916L110.632 107.395L110.725 107.635C110.725 107.678 110.725 107.678 110.725 107.672C110.612 107.514 110.465 107.383 110.294 107.291C110.051 107.148 109.777 107.065 109.495 107.051C109.261 107.044 109.028 107.088 108.813 107.18C108.53 107.309 108.53 107.365 108.536 107.358C108.588 107.317 108.633 107.27 108.672 107.217C109.012 106.77 109.306 106.29 109.551 105.785C109.84 105.219 110.116 104.617 110.393 104.008C110.934 102.779 111.432 101.507 111.929 100.222C112.427 98.9373 112.901 97.6404 113.362 96.3311L114.763 92.4095L117.13 93.0242C116.662 95.8271 116.06 98.5562 115.335 101.335C114.984 102.718 114.573 104.088 114.105 105.471C113.872 106.166 113.614 106.854 113.319 107.561C113.011 108.328 112.632 109.065 112.188 109.762C112.024 109.996 111.843 110.218 111.647 110.426C111.333 110.765 110.952 111.035 110.528 111.219C110.152 111.38 109.745 111.456 109.336 111.44C108.877 111.423 108.431 111.29 108.039 111.053C107.575 110.764 107.191 110.364 106.92 109.891C106.828 109.731 106.748 109.571 106.692 109.454L106.576 109.221L106.342 108.741L105.875 107.789C105.26 106.51 104.646 105.219 104.111 103.922C103.576 102.625 103.011 101.31 102.482 99.9884C101.953 98.6669 101.48 97.3453 101.031 95.9193L105.69 94.3949Z" fill="#E58A7B"/>
<path d="M103.699 89.8708C106.053 90.4302 108.703 97.3883 108.703 97.3883L101.701 103.345C101.701 103.345 97.1712 95.7594 98.0871 93.2577C99.0399 90.6515 100.626 89.1394 103.699 89.8708Z" fill="#4CAF4F"/>
<path d="M115.875 90.2089L118.334 88.1559L120.043 90.8174L118.783 93.0364C118.783 93.0364 116.779 94.8804 115.009 93.94C114.728 93.3084 114.66 92.6025 114.817 91.9292C114.973 91.2559 115.345 90.6519 115.875 90.2089Z" fill="#E58A7B"/>
<path d="M122.772 88.162L122.587 88.832L118.697 89.4836L118.315 88.1559L122.772 88.162Z" fill="#E58A7B"/>
<path d="M100.754 194.618L93.7344 190.081L94.9945 187.893L102.881 192.743L100.754 194.618Z" fill="#4CAF4F"/>
<path d="M88.8301 198.232C88.2142 198.157 87.6224 197.947 87.0967 197.617C87.075 197.61 87.0562 197.596 87.0429 197.577C87.0296 197.558 87.0225 197.536 87.0225 197.513C87.0225 197.49 87.0296 197.467 87.0429 197.449C87.0562 197.43 87.075 197.416 87.0967 197.408C87.2873 197.347 88.9408 196.837 89.4202 197.23C89.4741 197.275 89.5151 197.333 89.5388 197.399C89.5626 197.465 89.5683 197.536 89.5554 197.605C89.5469 197.716 89.5102 197.822 89.4489 197.915C89.3876 198.007 89.3037 198.083 89.2051 198.134C89.09 198.196 88.9613 198.23 88.8301 198.232ZM87.4471 197.556C88.2154 197.949 88.8301 198.091 89.1252 197.943C89.1894 197.907 89.2435 197.856 89.2822 197.794C89.3209 197.731 89.3431 197.66 89.3464 197.587C89.3464 197.488 89.3465 197.445 89.2911 197.421C89.033 197.212 88.111 197.371 87.4348 197.556H87.4471Z" fill="#263238"/>
<path d="M87.1391 197.66C87.1066 197.66 87.0757 197.647 87.053 197.623C87.0439 197.606 87.0391 197.587 87.0391 197.568C87.0391 197.549 87.0439 197.53 87.053 197.513C87.053 197.457 87.4525 196.124 88.0795 195.822C88.1596 195.786 88.2466 195.767 88.3346 195.767C88.4226 195.767 88.5096 195.786 88.5897 195.822C88.676 195.85 88.7507 195.905 88.802 195.98C88.8532 196.054 88.878 196.144 88.8724 196.234C88.8294 196.787 87.7046 197.55 87.1882 197.679L87.1391 197.66ZM88.3315 195.982C88.2717 195.984 88.213 195.999 88.1594 196.025C87.7783 196.21 87.4648 196.929 87.3112 197.365C87.8521 197.138 88.5958 196.535 88.6204 196.197C88.6204 196.142 88.6204 196.074 88.479 196.013C88.4331 195.988 88.3832 195.972 88.3315 195.964V195.982Z" fill="#263238"/>
<path d="M97.6006 200.887C96.906 200.887 95.941 199.996 95.4124 199.449C95.3989 199.43 95.3916 199.408 95.3916 199.384C95.3916 199.361 95.3989 199.339 95.4124 199.32C95.4245 199.3 95.4418 199.284 95.4623 199.273C95.4829 199.262 95.506 199.257 95.5292 199.258C95.775 199.258 97.9079 199.578 98.2091 200.18C98.241 200.234 98.2579 200.296 98.2579 200.359C98.2579 200.421 98.241 200.483 98.2091 200.537C98.164 200.631 98.0957 200.712 98.0108 200.772C97.9259 200.832 97.827 200.87 97.7236 200.881L97.6006 200.887ZM95.8181 199.535C96.5925 200.285 97.2748 200.703 97.6621 200.654C97.7299 200.645 97.7945 200.62 97.8502 200.58C97.906 200.54 97.9511 200.488 97.9817 200.426C97.9955 200.405 98.0028 200.381 98.0028 200.356C98.0028 200.331 97.9955 200.306 97.9817 200.285C97.8219 199.953 96.6847 199.67 95.8181 199.535Z" fill="#263238"/>
<path d="M95.8859 199.504C95.7479 199.508 95.6099 199.498 95.474 199.474C95.4551 199.471 95.4372 199.463 95.4221 199.451C95.407 199.439 95.3952 199.424 95.388 199.406C95.3788 199.388 95.374 199.368 95.374 199.348C95.374 199.327 95.3788 199.307 95.388 199.289C95.4249 199.246 96.2547 198.244 97.0415 198.177C97.2642 198.159 97.4848 198.23 97.6561 198.373C97.8959 198.582 97.8836 198.767 97.8221 198.883C97.6684 199.301 96.605 199.504 95.8859 199.504ZM95.7261 199.277C96.4145 199.314 97.5148 199.086 97.6561 198.785C97.6561 198.785 97.7053 198.687 97.5455 198.552C97.4819 198.496 97.4076 198.455 97.3273 198.429C97.2469 198.404 97.1622 198.395 97.0783 198.404C96.5484 198.552 96.0764 198.859 95.7261 199.283V199.277Z" fill="#263238"/>
<path d="M87.3052 196.996L82.0927 195.521C82.0029 195.494 81.9061 195.501 81.8211 195.541C81.736 195.58 81.6686 195.65 81.6317 195.736L79.8737 199.689C79.8325 199.79 79.8131 199.899 79.8169 200.008C79.8207 200.117 79.8475 200.225 79.8957 200.323C79.9439 200.421 80.0123 200.508 80.0965 200.577C80.1806 200.647 80.2786 200.698 80.3839 200.728C82.228 201.207 83.1131 201.342 85.4058 202C86.8196 202.393 88.8357 203.125 90.7842 203.678C92.7327 204.231 93.3843 202.332 92.6283 201.926C89.2107 200.119 88.9402 198.853 88.0059 197.501C87.8386 197.256 87.5906 197.077 87.3052 196.996Z" fill="#4CAF4F"/>
<path d="M95.5544 198.73L91.1041 195.656C91.0287 195.601 90.9357 195.576 90.8428 195.585C90.7499 195.594 90.6635 195.637 90.6001 195.706L87.6497 198.877C87.5778 198.959 87.5242 199.056 87.4924 199.16C87.4606 199.264 87.4513 199.374 87.4653 199.482C87.4793 199.59 87.5161 199.694 87.5733 199.787C87.6305 199.88 87.7068 199.96 87.7972 200.021C89.3646 201.072 90.176 201.496 92.1368 202.854C93.3662 203.69 95.7449 205.547 97.4046 206.702C99.0642 207.858 100.3 206.272 99.7096 205.645C97.0665 202.824 96.4887 201.053 96.0523 199.449C95.9765 199.158 95.8001 198.903 95.5544 198.73Z" fill="#4CAF4F"/>
<path d="M91.9463 193.013L83.9248 189.024L84.7546 186.848L93.3232 191.053L91.9463 193.013Z" fill="#4CAF4F"/>
<path d="M81.515 117.826L80.8389 119.597C80.7713 119.732 80.9311 119.873 81.1585 119.873H101.492C101.67 119.873 101.818 119.787 101.83 119.676L102.002 117.918C102.002 117.802 101.861 117.697 101.67 117.697H81.8347C81.7749 117.692 81.7148 117.7 81.6591 117.723C81.6035 117.745 81.5541 117.781 81.515 117.826Z" fill="#4CAF4F"/>
<path opacity="0.4" d="M81.515 117.826L80.8389 119.597C80.7713 119.732 80.9311 119.873 81.1585 119.873H101.492C101.67 119.873 101.818 119.787 101.83 119.676L102.002 117.918C102.002 117.802 101.861 117.697 101.67 117.697H81.8347C81.7749 117.692 81.7148 117.7 81.6591 117.723C81.6035 117.745 81.5541 117.781 81.515 117.826Z" fill="white"/>
<path d="M84.7173 120.045H84.1825C84.078 120.045 83.9981 119.99 84.0042 119.922L84.2563 117.642C84.2563 117.58 84.3546 117.525 84.4591 117.525H84.9939C85.0984 117.525 85.1783 117.58 85.1721 117.642L84.9201 119.922C84.914 119.99 84.8218 120.045 84.7173 120.045Z" fill="#4CAF4F"/>
<path d="M97.257 120.045H96.7284C96.6239 120.045 96.544 119.99 96.5501 119.922L96.796 117.642C96.796 117.58 96.9005 117.525 97.005 117.525H97.5336C97.6381 117.525 97.7242 117.58 97.7119 117.642L97.466 119.922C97.4353 119.99 97.3677 120.045 97.257 120.045Z" fill="#4CAF4F"/>
<g style="mix-blend-mode:multiply">
<path d="M84.2503 224.14C93.3449 224.14 100.717 223.607 100.717 222.948C100.717 222.289 93.3449 221.756 84.2503 221.756C75.1558 221.756 67.7832 222.289 67.7832 222.948C67.7832 223.607 75.1558 224.14 84.2503 224.14Z" fill="#F5F5F5"/>
</g>
<path d="M94.2816 221.264C91.3681 220.416 88.1349 219.328 86.1802 218.19C86.1249 218.154 86.0634 218.135 86.0081 218.104V204.913H91.9028C92.3503 204.887 92.7707 204.691 93.0782 204.364C93.3857 204.038 93.5569 203.607 93.5569 203.159C93.5569 202.71 93.3857 202.279 93.0782 201.953C92.7707 201.627 92.3503 201.43 91.9028 201.404H86.0388V141.276H82.4983V201.404H76.6404C76.4012 201.389 76.1617 201.424 75.9365 201.506C75.7112 201.588 75.5051 201.715 75.3308 201.879C75.1564 202.044 75.0175 202.242 74.9225 202.462C74.8275 202.682 74.7786 202.919 74.7786 203.159C74.7786 203.398 74.8275 203.635 74.9225 203.855C75.0175 204.075 75.1564 204.273 75.3308 204.438C75.5051 204.602 75.7112 204.729 75.9365 204.811C76.1617 204.893 76.4012 204.928 76.6404 204.913H82.4983V218.086C82.443 218.086 82.3876 218.135 82.3323 218.172C80.3469 219.328 77.1383 220.416 74.2248 221.245C74.0279 221.305 73.8589 221.433 73.7484 221.606C73.6378 221.78 73.5929 221.987 73.6219 222.19C73.6508 222.394 73.7517 222.58 73.9063 222.716C74.0609 222.852 74.2589 222.927 74.4645 222.93H94.0419C94.2384 222.916 94.4243 222.836 94.5687 222.702C94.713 222.568 94.8071 222.389 94.8352 222.194C94.8632 221.999 94.8235 221.8 94.7228 221.631C94.6221 221.462 94.4663 221.332 94.2816 221.264Z" fill="#E0E0E0"/>
<path d="M95.1854 135.154H73.3276C71.5691 135.154 70.1436 136.58 70.1436 138.338V144.835C70.1436 146.594 71.5691 148.019 73.3276 148.019H95.1854C96.9439 148.019 98.3694 146.594 98.3694 144.835V138.338C98.3694 136.58 96.9439 135.154 95.1854 135.154Z" fill="#4CAF4F"/>
<path d="M73.125 148.025V149.144C73.125 150.066 74.1269 150.816 75.3563 150.816H93.1819C94.4112 150.816 95.4131 150.066 95.4131 149.144V148.025H73.125Z" fill="#4CAF4F"/>
<path opacity="0.3" d="M73.125 148.025V149.144C73.125 150.066 74.1269 150.816 75.3563 150.816H93.1819C94.4112 150.816 95.4131 150.066 95.4131 149.144V148.025H73.125Z" fill="white"/>
</svg>
