<svg width="39" height="34" viewBox="0 0 39 34" fill="none" xmlns="http://www.w3.org/2000/svg">
<g clip-path="url(#clip0_211_2080)">
<path d="M38.8883 13.9505C38.8923 13.9214 38.8923 13.8921 38.8883 13.8631C38.892 13.8394 38.892 13.8153 38.8883 13.7916L38.6046 11.7503C38.5638 11.5061 38.4543 11.2778 38.2887 11.091L38.24 11.0354L38.151 10.948L33.2412 6.80185L33.3789 6.93689C33.2662 6.80472 33.1248 6.699 32.965 6.62752C32.8051 6.55604 32.6309 6.52061 32.4553 6.52386H30.9645C30.7221 6.51915 30.4852 6.59471 30.2921 6.73832C30.0892 6.59557 29.845 6.5204 29.5953 6.52386H28.1045C27.909 6.52075 27.7161 6.56832 27.5454 6.66177C27.3747 6.75522 27.2322 6.89123 27.1323 7.05603C26.9783 7.29141 26.9205 7.575 26.9702 7.85032L27.1566 9.13706C27.0331 9.06846 26.8934 9.03286 26.7515 9.03382H19.5327C19.2737 9.03541 19.0206 9.10983 18.8035 9.24827C18.5935 9.37712 18.4249 9.56162 18.3174 9.78044L17.7583 9.31181C17.5383 9.11223 17.2479 9.00405 16.9481 9.00999H5.62158C5.36166 9.01463 5.10752 9.08581 4.88433 9.2165C4.57898 9.39171 4.35521 9.6766 4.26046 10.0108L0.663189 21.806C0.595975 22.0004 0.589363 22.21 0.6442 22.408C0.699036 22.606 0.812838 22.7836 0.971067 22.918C1.0123 22.9523 1.05559 22.9841 1.1007 23.0133C1.1007 23.0133 1.02777 22.9656 0.987262 22.926L5.89707 27.0801C6.10477 27.2675 6.37632 27.3723 6.65861 27.3739H18.0743C18.335 27.3673 18.5893 27.2933 18.8116 27.1595C18.9373 27.0921 19.0497 27.0034 19.1438 26.8974L19.1843 26.8418L19.2491 26.7624L19.2977 26.675L19.8324 27.1277C20.0372 27.3077 20.3028 27.4068 20.5778 27.4057H32.0178C32.2782 27.3972 32.532 27.3234 32.755 27.1913C32.8779 27.1198 32.9897 27.0315 33.0873 26.9292L33.1277 26.8736L33.1925 26.7942C33.227 26.7439 33.2569 26.6907 33.2817 26.6352C33.3081 26.5871 33.3298 26.5366 33.3465 26.4844L36.6278 15.7138V15.6185C36.6318 15.5815 36.6318 15.5442 36.6278 15.5073V15.4358C36.6317 15.4121 36.6317 15.388 36.6278 15.3643C36.6314 15.3141 36.6314 15.2636 36.6278 15.2134H37.681C37.7727 15.2216 37.8649 15.2216 37.9565 15.2134H38.0294C38.0887 15.196 38.1458 15.172 38.1996 15.1419H38.2806L38.4264 15.0307L38.4912 14.983L38.6046 14.84V14.7924L38.6857 14.6574C38.6812 14.6311 38.6812 14.6042 38.6857 14.578C38.6814 14.5651 38.6814 14.5511 38.6857 14.5382C38.7029 14.4917 38.7165 14.4439 38.7262 14.3953C38.7224 14.3796 38.7224 14.3633 38.7262 14.3476C38.7223 14.3239 38.7223 14.2998 38.7262 14.2761C38.7262 14.2761 38.8883 13.9663 38.8883 13.9505Z" fill="black"/>
<path d="M17.2806 9.91551C17.3236 9.95364 17.3536 10.0038 17.3666 10.0592C17.3797 10.1146 17.3751 10.1725 17.3535 10.2253L13.7644 22.0125C13.7192 22.1412 13.6267 22.2488 13.5051 22.3144C13.4061 22.3793 13.2916 22.4176 13.1729 22.4256H1.76534C1.66792 22.421 1.57562 22.3814 1.50607 22.3144C1.4647 22.2769 1.43566 22.2281 1.42267 22.1744C1.40968 22.1206 1.41334 22.0643 1.43316 22.0125L5.03043 10.2253C5.07187 10.095 5.16143 9.9845 5.28158 9.91551C5.38217 9.85527 5.49615 9.81984 5.61376 9.81225H17.0213C17.118 9.81316 17.2106 9.85008 17.2806 9.91551ZM11.3256 19.6376L13.4727 12.6002H7.46103L5.32208 19.6376H11.3256ZM28.1696 10.0346C28.2085 10.079 28.2572 10.1142 28.3119 10.1375C28.3666 10.1609 28.4259 10.1719 28.4856 10.1697H29.9682C30.0247 10.1702 30.0803 10.1566 30.13 10.1302C30.1796 10.1038 30.2215 10.0655 30.2518 10.0188C30.2781 9.98228 30.2967 9.94098 30.3065 9.89732C30.3162 9.85366 30.3169 9.80852 30.3085 9.76459L30.0168 7.66767C29.9891 7.57062 29.9392 7.481 29.871 7.40555C29.8321 7.36121 29.7835 7.32604 29.7288 7.30266C29.674 7.27929 29.6147 7.2683 29.555 7.27052H28.0724C28.0159 7.26998 27.9603 7.28356 27.9107 7.30996C27.861 7.33637 27.8191 7.37473 27.7888 7.42144C27.7321 7.53264 27.7078 7.60412 27.7321 7.66767L28.0319 9.76459C28.0473 9.8667 28.0955 9.96131 28.1696 10.0346ZM32.8769 7.65178C32.8491 7.55473 32.7992 7.46511 32.731 7.38966C32.6937 7.34548 32.6465 7.31033 32.5931 7.28691C32.5398 7.26349 32.4816 7.25245 32.4231 7.25464H30.9324C30.8769 7.25309 30.8219 7.26629 30.7734 7.29286C30.7249 7.31943 30.6847 7.35837 30.6569 7.40555C30.603 7.47602 30.5797 7.56453 30.5921 7.65178L30.8918 9.7487C30.9107 9.84973 30.9584 9.94341 31.0296 10.0188C31.0692 10.0622 31.118 10.0968 31.1725 10.1201C31.2271 10.1434 31.2861 10.1549 31.3456 10.1538H32.8363C32.8917 10.1545 32.9463 10.1409 32.9946 10.1145C33.043 10.088 33.0834 10.0495 33.1118 10.0029C33.14 9.96734 33.1597 9.92606 33.1695 9.88208C33.1794 9.8381 33.179 9.79253 33.1685 9.7487L32.8769 7.65178ZM26.8652 10.8289L26.7193 9.79636H19.5329C19.4201 9.80246 19.3109 9.83812 19.2169 9.89962C19.1573 9.93152 19.1053 9.97574 19.0647 10.0292C19.0242 10.0827 18.996 10.1442 18.982 10.2094L18.3824 12.1792C18.3585 12.2284 18.3503 12.2837 18.359 12.3376C18.3677 12.3914 18.3928 12.4414 18.431 12.4811C18.4994 12.544 18.5885 12.5807 18.6822 12.5843H27.4162L25.2691 19.6217H16.5595C16.4472 19.6243 16.3378 19.6572 16.2436 19.717C16.129 19.7884 16.0453 19.8987 16.0086 20.0268L15.4009 21.9967C15.3811 22.0472 15.3759 22.1021 15.3859 22.1554C15.3959 22.2087 15.4207 22.2582 15.4576 22.2985C15.5238 22.3657 15.6137 22.4054 15.7088 22.4097H27.1488C27.2671 22.3997 27.3811 22.3615 27.4809 22.2985C27.6006 22.2326 27.6903 22.1248 27.7321 21.9967L31.0215 11.2261H27.3189C27.2601 11.2272 27.2018 11.2165 27.1475 11.1947C27.0931 11.1728 27.0439 11.1402 27.003 11.099C26.936 11.027 26.8886 10.9396 26.8652 10.8448V10.8289Z" fill="white"/>
</g>
<defs>
<clipPath id="clip0_211_2080">
<rect width="38.2838" height="20.8821" fill="white" transform="translate(0.607422 6.52365)"/>
</clipPath>
</defs>
</svg>
