<svg width="34" height="34" viewBox="0 0 34 34" fill="none" xmlns="http://www.w3.org/2000/svg">
<g clip-path="url(#clip0_211_2049)">
<path fill-rule="evenodd" clip-rule="evenodd" d="M10.0465 10.0838L3.0957 16.9647C4.48599 18.341 6.07418 19.5009 7.80575 20.4084C8.28437 21.6652 9.03459 22.8439 10.0564 23.8554C13.9007 27.661 20.1335 27.661 23.9778 23.8554C24.9996 22.8439 25.7498 21.6652 26.2285 20.4083C27.96 19.5009 29.5482 18.341 30.9385 16.9647L23.9933 10.0894C23.9882 10.0842 23.983 10.0791 23.9778 10.0739C20.1335 6.26829 13.9007 6.26829 10.0564 10.0739C10.0531 10.0772 10.0498 10.0805 10.0465 10.0838ZM23.3127 21.6498C21.2871 22.3266 19.1608 22.6731 17.0171 22.6731C14.8734 22.6731 12.7471 22.3266 10.7216 21.6498C10.941 21.9381 11.1833 22.2147 11.4485 22.4773C14.524 25.5218 19.5102 25.5218 22.5856 22.4773C22.8509 22.2147 23.0932 21.9381 23.3127 21.6498ZM11.5913 11.3143C12.1136 11.6558 12.6689 11.9481 13.25 12.1864C14.4443 12.6761 15.7244 12.9282 17.0171 12.9282C18.3098 12.9282 19.5899 12.6761 20.7842 12.1864C21.3653 11.9481 21.9206 11.6558 22.443 11.3142C19.4059 8.4535 14.6283 8.45351 11.5913 11.3143Z" fill="#3B4158"/>
</g>
<defs>
<clipPath id="clip0_211_2049">
<rect width="27.8428" height="19.4899" fill="white" transform="translate(3.0957 7.2197)"/>
</clipPath>
</defs>
</svg>
