<svg width="34" height="34" viewBox="0 0 34 34" fill="none" xmlns="http://www.w3.org/2000/svg">
<g clip-path="url(#clip0_211_2046)">
<path fill-rule="evenodd" clip-rule="evenodd" d="M9.97925 3.14993C13.8235 3.14993 16.9399 6.26634 16.9399 10.1106V3.14993H23.9006C27.7449 3.14993 30.8613 6.26634 30.8613 10.1106C30.8613 13.9549 27.7449 17.0713 23.9006 17.0713C27.7449 17.0713 30.8613 20.1878 30.8613 24.032C30.8613 25.9408 30.0929 27.6702 28.8486 28.9278L28.8226 28.954L28.7995 28.977C27.5417 30.2231 25.8111 30.9927 23.9006 30.9927C22.0032 30.9927 20.2831 30.2335 19.0275 29.0023C19.0112 28.9863 18.9949 28.9701 18.9787 28.954C18.9634 28.9387 18.9482 28.9234 18.9331 28.9081C17.7003 27.6522 16.9399 25.9309 16.9399 24.032C16.9399 27.8763 13.8235 30.9927 9.97925 30.9927C6.13496 30.9927 3.01855 27.8763 3.01855 24.032V17.0713H9.97925C6.13496 17.0713 3.01855 13.9549 3.01855 10.1106C3.01855 6.26634 6.13496 3.14993 9.97925 3.14993ZM15.5478 10.1106C15.5478 13.1861 13.0547 15.6792 9.97925 15.6792V4.54207C13.0547 4.54207 15.5478 7.0352 15.5478 10.1106ZM29.4692 24.032C29.4692 20.9566 26.9761 18.4635 23.9006 18.4635C20.8252 18.4635 18.3321 20.9566 18.3321 24.032H29.4692ZM4.41069 18.4635V24.032C4.41069 27.1075 6.90382 29.6006 9.97925 29.6006C13.0547 29.6006 15.5478 27.1075 15.5478 24.032V18.4635H4.41069ZM18.3321 15.6792V4.54207H23.9006C26.9761 4.54207 29.4692 7.0352 29.4692 10.1106C29.4692 13.1861 26.9761 15.6792 23.9006 15.6792H18.3321Z" fill="#263238"/>
</g>
<defs>
<clipPath id="clip0_211_2046">
<rect width="27.8428" height="27.8428" fill="white" transform="translate(3.01855 3.14993)"/>
</clipPath>
</defs>
</svg>
