<svg width="34" height="34" viewBox="0 0 34 34" fill="none" xmlns="http://www.w3.org/2000/svg">
<g clip-path="url(#clip0_211_2072)">
<path d="M30.0801 8.50308C30.0801 8.82744 30.3463 9.09039 30.6746 9.09039H31.2692C31.5976 9.09039 31.8638 8.82744 31.8638 8.50308C31.8638 8.17872 31.5976 7.91577 31.2692 7.91577H30.6746C30.3463 7.91577 30.0801 8.17872 30.0801 8.50308Z" fill="#212326"/>
<path d="M12.8381 26.7096H15.7264L14.8856 25.8791C14.6626 25.6588 14.3601 25.535 14.0448 25.535H12.8381C8.24101 25.535 4.51431 21.8538 4.51431 17.3127C4.51431 12.7716 8.24101 9.09039 12.8381 9.09039H22.3511C26.9482 9.09039 30.6749 12.7716 30.6749 17.3127C30.6749 21.8538 26.9482 25.535 22.3511 25.535H18.7925C18.3194 25.535 17.8657 25.3494 17.5312 25.019L16.5462 24.0459C15.9886 23.4952 15.2325 23.1858 14.444 23.1858H12.8381C9.55446 23.1858 6.89255 20.5563 6.89255 17.3127C6.89255 14.0691 9.55446 11.4396 12.8381 11.4396H22.3511C25.6348 11.4396 28.2967 14.0691 28.2967 17.3127C28.2967 20.5563 25.6348 23.1858 22.3511 23.1858H20.0661C19.5931 23.1858 19.1394 23.0002 18.8049 22.6698L17.8197 21.6967C17.2622 21.146 16.5061 20.8366 15.7177 20.8366H12.8381C10.868 20.8366 9.27079 19.2589 9.27079 17.3127C9.27079 15.3666 10.868 13.7889 12.8381 13.7889H22.3511C24.3213 13.7889 25.9185 15.3666 25.9185 17.3127C25.9185 19.2351 24.36 20.798 22.423 20.8359L22.4226 20.8366H21.5525C21.0795 20.8366 20.6258 20.6509 20.2913 20.3205L19.3061 19.3474C18.8487 18.8955 18.2575 18.6062 17.6245 18.5168L17.5946 18.4873H12.8381C12.1814 18.4873 11.649 17.9614 11.649 17.3127C11.649 16.664 12.1814 16.1381 12.8381 16.1381H22.3511C23.0078 16.1381 23.5402 16.664 23.5402 17.3127C23.5402 17.9614 23.0078 18.4873 22.3511 18.4873H19.9729L20.8137 19.3179C21.0367 19.5382 21.3392 19.6619 21.6545 19.6619H22.3511C23.6645 19.6619 24.7293 18.6101 24.7293 17.3127C24.7293 16.0153 23.6645 14.9635 22.3511 14.9635H12.8381C11.5247 14.9635 10.4599 16.0153 10.4599 17.3127C10.4599 18.6101 11.5247 19.6619 12.8381 19.6619H17.2041C17.6771 19.6619 18.1308 19.8476 18.4653 20.178L19.4505 21.1511C20.008 21.7018 20.7641 22.0112 21.5525 22.0112H22.6484V22.0022C25.1368 21.8506 27.1076 19.809 27.1076 17.3127C27.1076 14.7178 24.978 12.6142 22.3511 12.6142H12.8381C10.2112 12.6142 8.08167 14.7178 8.08167 17.3127C8.08167 19.9076 10.2112 22.0112 12.8381 22.0112H15.7177C16.1907 22.0112 16.6444 22.1968 16.9789 22.5272L17.9641 23.5003C18.5216 24.051 19.2777 24.3604 20.0661 24.3604H22.3511C26.2915 24.3604 29.4858 21.2051 29.4858 17.3127C29.4858 13.4204 26.2915 10.265 22.3511 10.265H12.8381C8.89774 10.265 5.70343 13.4204 5.70343 17.3127C5.70343 21.2051 8.89774 24.3604 12.8381 24.3604H14.444C14.9171 24.3604 15.3708 24.546 15.7053 24.8764L16.6904 25.8495C17.2479 26.4003 18.0041 26.7096 18.7925 26.7096H22.3511C27.605 26.7096 31.864 22.5025 31.864 17.3127C31.864 12.1229 27.605 7.91577 22.3511 7.91577L12.8381 7.91577C7.58429 7.91577 3.32519 12.1229 3.3252 17.3127C3.3252 22.5025 7.58429 26.7096 12.8381 26.7096Z" fill="#212326"/>
</g>
<defs>
<clipPath id="clip0_211_2072">
<rect width="28.5388" height="18.7939" fill="white" transform="translate(3.3252 7.91577)"/>
</clipPath>
</defs>
</svg>
