<svg width="39" height="34" viewBox="0 0 39 34" fill="none" xmlns="http://www.w3.org/2000/svg">
<g clip-path="url(#clip0_211_2052)">
<path d="M38.5807 13.9505C38.5846 13.9214 38.5846 13.8921 38.5807 13.8631C38.5844 13.8394 38.5844 13.8153 38.5807 13.7916L38.297 11.7503C38.2561 11.5061 38.1467 11.2778 37.9811 11.091L37.9324 11.0354L37.8434 10.948L32.9336 6.80185L33.0713 6.93689C32.9586 6.80472 32.8172 6.699 32.6573 6.62752C32.4975 6.55604 32.3233 6.52061 32.1477 6.52386H30.6569C30.4145 6.51915 30.1776 6.59471 29.9844 6.73832C29.7816 6.59557 29.5374 6.5204 29.2877 6.52386H27.7969C27.6014 6.52075 27.4085 6.56832 27.2378 6.66177C27.0671 6.75522 26.9246 6.89123 26.8247 7.05603C26.6707 7.29141 26.6129 7.575 26.6626 7.85032L26.849 9.13706C26.7255 9.06846 26.5858 9.03286 26.4439 9.03382H19.225C18.966 9.03541 18.713 9.10983 18.4958 9.24827C18.2859 9.37712 18.1173 9.56162 18.0097 9.78044L17.4507 9.31181C17.2307 9.11223 16.9402 9.00405 16.6405 9.00999H5.31396C5.05404 9.01463 4.7999 9.08581 4.57671 9.2165C4.27136 9.39171 4.04759 9.6766 3.95284 10.0108L0.355571 21.806C0.288358 22.0004 0.281746 22.21 0.336582 22.408C0.391419 22.606 0.505221 22.7836 0.663449 22.918C0.704679 22.9523 0.74797 22.9841 0.793084 23.0133C0.793084 23.0133 0.720155 22.9656 0.679645 22.926L5.58945 27.0801C5.79715 27.2675 6.0687 27.3723 6.35099 27.3739H17.7667C18.0274 27.3673 18.2817 27.2933 18.504 27.1595C18.6297 27.0921 18.7421 27.0034 18.8361 26.8974L18.8767 26.8418L18.9415 26.7624L18.9901 26.675L19.5248 27.1277C19.7295 27.3077 19.9952 27.4068 20.2702 27.4057H31.7101C31.9706 27.3972 32.2244 27.3234 32.4474 27.1913C32.5703 27.1198 32.6821 27.0315 32.7796 26.9292L32.8201 26.8736L32.8849 26.7942C32.9194 26.7439 32.9493 26.6907 32.974 26.6352C33.0005 26.5871 33.0222 26.5366 33.0389 26.4844L36.3201 15.7138V15.6185C36.3242 15.5815 36.3242 15.5442 36.3201 15.5073V15.4358C36.3241 15.4121 36.3241 15.388 36.3201 15.3643C36.3238 15.3141 36.3238 15.2636 36.3201 15.2134H37.3734C37.465 15.2216 37.5572 15.2216 37.6489 15.2134H37.7218C37.7811 15.196 37.8382 15.172 37.892 15.1419H37.973L38.1188 15.0307L38.1836 14.983L38.297 14.84V14.7924L38.3781 14.6574C38.3735 14.6311 38.3735 14.6042 38.3781 14.578C38.3738 14.5651 38.3738 14.5511 38.3781 14.5382C38.3953 14.4917 38.4088 14.4439 38.4186 14.3953C38.4148 14.3796 38.4148 14.3633 38.4186 14.3476C38.4146 14.3239 38.4146 14.2998 38.4186 14.2761C38.4186 14.2761 38.5807 13.9663 38.5807 13.9505Z" fill="black"/>
<path d="M16.9729 9.91551C17.016 9.95364 17.046 10.0038 17.059 10.0592C17.0721 10.1146 17.0675 10.1725 17.0459 10.2253L13.4567 22.0125C13.4115 22.1412 13.3191 22.2488 13.1975 22.3144C13.0985 22.3793 12.984 22.4176 12.8653 22.4256H1.45772C1.3603 22.421 1.268 22.3814 1.19845 22.3144C1.15708 22.2769 1.12804 22.2281 1.11505 22.1744C1.10206 22.1206 1.10572 22.0643 1.12554 22.0125L4.72281 10.2253C4.76426 10.095 4.85381 9.9845 4.97397 9.91551C5.07455 9.85527 5.18854 9.81984 5.30615 9.81225H16.7137C16.8103 9.81316 16.903 9.85008 16.9729 9.91551ZM11.018 19.6376L13.165 12.6002H7.15341L5.01447 19.6376H11.018ZM27.862 10.0346C27.9009 10.079 27.9496 10.1142 28.0043 10.1375C28.059 10.1609 28.1183 10.1719 28.178 10.1697H29.6606C29.7171 10.1702 29.7727 10.1566 29.8224 10.1302C29.872 10.1038 29.9139 10.0655 29.9442 10.0188C29.9705 9.98228 29.9891 9.94098 29.9989 9.89732C30.0086 9.85366 30.0093 9.80852 30.0009 9.76459L29.7092 7.66767C29.6815 7.57062 29.6316 7.481 29.5634 7.40555C29.5245 7.36121 29.4759 7.32604 29.4211 7.30266C29.3664 7.27929 29.307 7.2683 29.2474 7.27052H27.7648C27.7083 7.26998 27.6526 7.28356 27.603 7.30996C27.5534 7.33637 27.5115 7.37473 27.4812 7.42144C27.4245 7.53264 27.4002 7.60412 27.4245 7.66767L27.7243 9.76459C27.7396 9.8667 27.7879 9.96131 27.862 10.0346ZM32.5692 7.65178C32.5414 7.55473 32.4916 7.46511 32.4234 7.38966C32.3861 7.34548 32.3389 7.31033 32.2855 7.28691C32.2321 7.26349 32.174 7.25245 32.1155 7.25464H30.6247C30.5692 7.25309 30.5143 7.26629 30.4658 7.29286C30.4173 7.31943 30.3771 7.35837 30.3493 7.40555C30.2954 7.47602 30.2721 7.56453 30.2845 7.65178L30.5842 9.7487C30.6031 9.84973 30.6508 9.94341 30.722 10.0188C30.7616 10.0622 30.8104 10.0968 30.8649 10.1201C30.9195 10.1434 30.9784 10.1549 31.0379 10.1538H32.5287C32.5841 10.1545 32.6387 10.1409 32.687 10.1145C32.7354 10.088 32.7758 10.0495 32.8042 10.0029C32.8324 9.96734 32.8521 9.92606 32.8619 9.88208C32.8717 9.8381 32.8714 9.79253 32.8609 9.7487L32.5692 7.65178ZM26.5576 10.8289L26.4117 9.79636H19.2253C19.1125 9.80246 19.0033 9.83812 18.9093 9.89962C18.8497 9.93152 18.7977 9.97574 18.7571 10.0292C18.7166 10.0827 18.6884 10.1442 18.6744 10.2094L18.0748 12.1792C18.0509 12.2284 18.0427 12.2837 18.0514 12.3376C18.0601 12.3914 18.0852 12.4414 18.1234 12.4811C18.1918 12.544 18.2809 12.5807 18.3746 12.5843H27.1085L24.9615 19.6217H16.2519C16.1396 19.6243 16.0302 19.6572 15.9359 19.717C15.8213 19.7884 15.7377 19.8987 15.701 20.0268L15.0933 21.9967C15.0735 22.0472 15.0683 22.1021 15.0783 22.1554C15.0883 22.2087 15.1131 22.2582 15.15 22.2985C15.2162 22.3657 15.3061 22.4054 15.4012 22.4097H26.8411C26.9594 22.3997 27.0735 22.3615 27.1733 22.2985C27.2929 22.2326 27.3827 22.1248 27.4245 21.9967L30.7139 11.2261H27.0113C26.9525 11.2272 26.8942 11.2165 26.8399 11.1947C26.7855 11.1728 26.7363 11.1402 26.6953 11.099C26.6283 11.027 26.581 10.9396 26.5576 10.8448V10.8289Z" fill="white"/>
</g>
<defs>
<clipPath id="clip0_211_2052">
<rect width="38.2838" height="20.8821" fill="white" transform="translate(0.299805 6.52365)"/>
</clipPath>
</defs>
</svg>
