<svg width="34" height="34" viewBox="0 0 34 34" fill="none" xmlns="http://www.w3.org/2000/svg">
<g clip-path="url(#clip0_211_2056)">
<path d="M31.7856 9.70096C31.7856 9.72449 31.7856 9.75391 31.7795 9.77157C31.7489 10.001 31.7489 10.2305 31.7672 10.4659C31.7795 10.5247 31.7918 10.5836 31.8408 10.6307C31.9205 10.7189 32.0431 10.7013 32.0922 10.5954C32.1167 10.5424 32.1167 10.4894 32.1044 10.4365C32.0431 10.2129 32.0309 9.97751 32.0247 9.74803C32.0247 9.73626 32.0247 9.7186 32.0247 9.70096C32.0922 9.69507 32.1535 9.68918 32.2086 9.68918C32.2516 9.6833 32.2884 9.67742 32.319 9.65976C32.411 9.61269 32.411 9.51266 32.3129 9.46559C32.2761 9.44793 32.2271 9.44205 32.1842 9.44205C32.0309 9.44793 31.8776 9.44793 31.7243 9.44793C31.6692 9.44793 31.614 9.45382 31.5588 9.4597C31.5281 9.46559 31.4913 9.46559 31.4669 9.48324C31.4239 9.50089 31.3994 9.53031 31.3994 9.5715C31.4055 9.61269 31.4239 9.63623 31.4669 9.65388C31.4913 9.67153 31.522 9.67742 31.5527 9.67742C31.6262 9.6833 31.706 9.69507 31.7856 9.70096ZM33.4716 9.97163C33.4716 9.97751 33.4777 9.98339 33.4777 9.98339C33.5023 10.1423 33.5268 10.2953 33.5452 10.4482C33.5513 10.5012 33.5575 10.5483 33.5942 10.5895C33.6739 10.6895 33.7966 10.6777 33.8517 10.5718C33.8762 10.5189 33.8824 10.4659 33.8701 10.4071C33.8333 10.2305 33.8149 10.054 33.7781 9.88336C33.7536 9.77745 33.723 9.67742 33.6923 9.58327C33.6739 9.52443 33.631 9.48324 33.5575 9.47735C33.4839 9.46559 33.4287 9.50089 33.398 9.55385C33.3613 9.60092 33.3306 9.64799 33.3061 9.70096C33.2632 9.7951 33.2264 9.88925 33.1773 9.97751C33.1712 10.001 33.1651 10.0187 33.1528 10.0364C33.1467 10.0246 33.1406 10.0187 33.1406 10.0187C33.0608 9.8716 32.9873 9.72449 32.9076 9.58327C32.8953 9.5715 32.8892 9.55973 32.8831 9.54796C32.8463 9.49501 32.8034 9.46559 32.7359 9.46559C32.6746 9.47147 32.6255 9.50678 32.5949 9.55973C32.5826 9.58327 32.5826 9.60092 32.5765 9.62446C32.552 9.81275 32.5213 10.001 32.4968 10.1893C32.4845 10.2953 32.4784 10.4012 32.4784 10.5071C32.4723 10.5306 32.4784 10.56 32.4907 10.5836C32.5029 10.6307 32.5397 10.6601 32.5888 10.666C32.6501 10.6718 32.693 10.6542 32.7114 10.6071C32.7298 10.5718 32.7359 10.5424 32.742 10.513C32.7666 10.4071 32.785 10.307 32.8034 10.207C32.8156 10.1482 32.8217 10.1011 32.8401 10.0364C32.8524 10.0599 32.8646 10.0775 32.8769 10.0952C32.9321 10.1658 32.9873 10.2364 33.0547 10.2953C33.1222 10.3423 33.1773 10.3364 33.2325 10.2835C33.2448 10.2717 33.2509 10.2658 33.2632 10.2541C33.3184 10.1717 33.3858 10.0893 33.4409 10.0069C33.4532 9.99516 33.4594 9.98339 33.4716 9.97163Z" fill="#3A3B7B"/>
<path d="M19.3459 9.81659C19.3033 9.92842 19.2952 10.009 19.3149 10.0759C19.3366 10.167 19.393 10.1968 19.4695 10.1737C20.1897 10.0027 21.7687 10.4879 22.3534 10.6231C22.4912 10.6514 22.6034 10.4806 22.5093 10.3275C22.372 10.1791 20.7936 9.54412 20.1914 9.5095C19.9553 9.4967 19.5333 9.4386 19.3459 9.81659Z" fill="#3A3B7B"/>
<path d="M25.5172 7.76096C25.594 7.80347 25.6369 7.84403 25.6581 7.88934C25.6896 7.94878 25.673 7.9899 25.62 8.01089C25.144 8.23386 24.5105 9.1938 24.2548 9.52488C24.1929 9.60104 24.0499 9.55678 24.0283 9.43153C24.0328 9.28992 24.5942 8.24817 24.9076 7.96443C25.0308 7.85365 25.2342 7.63629 25.5172 7.76096Z" fill="#3A3B7B"/>
<path d="M21.7259 7.28839C21.8182 7.22169 21.914 7.19832 21.9629 7.24166C22.6811 7.83116 23.0619 8.76469 23.2978 9.61931C23.3067 9.63922 23.3072 9.66779 23.3001 9.6976C23.2972 9.72308 23.2778 9.74999 23.247 9.77081C23.2141 9.7938 23.1857 9.8008 23.1724 9.78099C22.8577 9.37008 21.0599 7.7713 21.7259 7.28839Z" fill="#3A3B7B"/>
<path d="M6.51756 17.5088C6.68969 17.3858 6.87682 17.2834 7.07484 17.204C7.28202 17.1471 7.50285 17.1565 7.70395 17.2309C7.90501 17.3052 8.07546 17.4403 8.1894 17.6158C8.29133 17.7909 8.3312 17.993 8.30306 18.1918C8.27493 18.3905 8.18029 18.575 8.03335 18.7176C7.91945 18.8333 7.79013 18.934 7.64885 19.0172C7.01913 19.4076 6.3838 19.7767 5.7485 20.1671C5.6185 20.2649 5.4806 20.3525 5.33611 20.4292C5.11632 20.5344 4.86514 20.5626 4.626 20.5089C4.38686 20.4552 4.1748 20.3229 4.02649 20.1351C3.91561 20.002 3.82204 19.8566 3.74784 19.7018C3.14597 18.4877 2.52182 17.2788 1.94224 16.0433C1.67474 15.5084 1.4574 14.8933 1.24563 14.2996C1.15401 14.1271 1.13612 13.9271 1.19577 13.7422C1.25541 13.5572 1.38789 13.4018 1.56503 13.3092C1.74216 13.2165 1.94997 13.1938 2.14426 13.246C2.33855 13.2981 2.504 13.4209 2.6054 13.5882C2.91711 13.9858 3.19304 14.4081 3.43019 14.8506C4.03206 15.9203 4.60606 16.99 5.18564 18.0277C5.21939 18.085 5.2566 18.1403 5.29709 18.1935C5.73333 18.0174 6.14362 17.7873 6.51756 17.5088Z" fill="#3A3B7B"/>
<path d="M12.7401 17.1357C11.3636 18.6814 9.05643 18.291 7.89728 16.3013C7.07249 14.8892 6.9276 12.5572 8.72208 11.0863C9.10527 10.7783 9.56347 10.5686 10.054 10.4765C10.6554 10.3938 11.2686 10.4956 11.8061 10.7675C12.3436 11.0393 12.7777 11.4673 13.0466 11.9902C14.0274 13.7018 13.8881 15.8841 12.7401 17.1357ZM12.1828 13.5306C12.0366 13.11 11.7432 12.751 11.3524 12.5144C11.1313 12.3631 10.8626 12.2896 10.5917 12.3061C10.3206 12.3227 10.0639 12.4284 9.8645 12.6053C9.0676 13.2846 8.90038 14.8946 9.47996 15.852C9.55385 16.0081 9.66232 16.1468 9.7979 16.2585C9.93348 16.3702 10.0929 16.4521 10.2648 16.4984C10.4368 16.5448 10.6173 16.5545 10.7936 16.5269C10.9699 16.4993 11.1378 16.4351 11.2856 16.3387C11.7176 16.0172 12.0345 15.5746 12.1923 15.0724C12.3501 14.57 12.341 14.0331 12.1661 13.536L12.1828 13.5306Z" fill="#3A3B7B"/>
<path d="M18.3577 14.2046C18.2168 14.2337 18.0712 14.2354 17.9295 14.2097C17.7879 14.184 17.653 14.1313 17.5329 14.0549C17.4278 13.9971 17.3373 13.9178 17.268 13.8225C17.1987 13.7273 17.1522 13.6184 17.132 13.5038C17.1117 13.3893 17.1182 13.2718 17.1508 13.1599C17.1836 13.048 17.2417 12.9445 17.3212 12.8567C17.4595 12.6804 17.6559 12.5541 17.8784 12.4984C18.4595 12.3365 19.0577 12.2378 19.6617 12.2042C19.7945 12.1894 19.9289 12.2002 20.0572 12.2359C20.1856 12.2717 20.3051 12.3317 20.409 12.4124C20.5128 12.4931 20.5988 12.5929 20.6618 12.706C20.7249 12.819 20.7638 12.943 20.7763 13.0707C20.9504 13.6978 20.9695 14.3554 20.832 14.9909C20.3305 17.0448 18.6029 17.7508 16.6635 17.0929C16.1191 16.917 15.6418 16.5893 15.2926 16.1515C14.8268 15.6244 14.4966 14.9997 14.3285 14.3276C14.1923 13.7292 14.2072 13.1082 14.3721 12.5164C14.5368 11.9246 14.8468 11.3793 15.2759 10.9259C15.6831 10.4331 16.2117 10.0452 16.814 9.79729C17.1946 9.59596 17.6399 9.53871 18.0623 9.63683C18.1581 9.66228 18.2451 9.71188 18.3142 9.78047C18.3834 9.84906 18.4321 9.93415 18.4554 10.0269C18.4788 10.1197 18.4758 10.2167 18.4468 10.308C18.4179 10.3993 18.364 10.4815 18.2908 10.5461C18.1517 10.667 18.0005 10.7745 17.8394 10.867C17.344 11.1699 16.9128 11.5601 16.5688 12.017C16.3433 12.3127 16.188 12.6522 16.1139 13.0117C16.0397 13.3711 16.0485 13.7418 16.1397 14.0977C16.2661 14.5829 16.5465 15.0184 16.9422 15.3439C18.1682 16.4136 19.762 15.3813 19.4834 13.9211C19.0766 14.0174 18.7199 14.119 18.3577 14.2046Z" fill="#3A3B7B"/>
<path d="M25.8481 17.2213C24.037 18.291 21.975 17.2213 21.5236 14.9748C21.1948 13.3702 21.819 11.1238 24.0036 10.268C24.4683 10.0898 24.9725 10.0273 25.4692 10.0861C26.066 10.191 26.6134 10.4729 27.0343 10.8923C27.4553 11.3116 27.7285 11.8472 27.8154 12.4235C28.1832 14.333 27.3472 16.3708 25.8481 17.2213ZM26.4779 13.6216C26.4773 13.1773 26.3136 12.7473 26.0154 12.4075C25.8559 12.1972 25.6255 12.0466 25.3633 11.9813C25.1011 11.9159 24.8234 11.9399 24.5775 12.0491C23.5967 12.4556 22.9057 13.9318 23.1565 15.0176C23.1756 15.188 23.2333 15.3524 23.3255 15.4991C23.4177 15.6459 23.5422 15.7715 23.6903 15.8673C23.8384 15.9631 24.0065 16.0267 24.1828 16.0536C24.3592 16.0805 24.5396 16.0701 24.7113 16.0232C25.2297 15.8494 25.6786 15.5245 25.9953 15.0939C26.312 14.6634 26.4808 14.1486 26.4779 13.6216Z" fill="#3A3B7B"/>
<path d="M29.6465 17.6706C29.6192 17.8663 29.512 18.0437 29.3484 18.1635C29.1848 18.2834 28.9783 18.336 28.7744 18.3097C28.5704 18.2835 28.3857 18.1806 28.2608 18.0236C28.1359 17.8666 28.0811 17.6684 28.1084 17.4727C28.1358 17.2769 28.243 17.0996 28.4066 16.9797C28.5702 16.8598 28.7766 16.8073 28.9806 16.8335C29.1845 16.8597 29.3693 16.9626 29.4942 17.1196C29.6191 17.2766 29.6739 17.4748 29.6465 17.6706ZM29.1617 10.4552C29.2677 10.2998 29.4232 10.1815 29.605 10.1179C29.7867 10.0543 29.9851 10.0487 30.1704 10.1022C30.3588 10.1474 30.5252 10.2534 30.6419 10.4024C30.7586 10.5513 30.8183 10.7343 30.8113 10.9205C30.7867 11.2192 30.7402 11.5159 30.672 11.8084C30.4881 12.7979 30.3097 13.7874 30.1147 14.7662C30.0255 15.1567 29.9085 15.5311 29.7803 15.9269C29.7357 16.0506 29.6612 16.1624 29.563 16.2532C29.5019 16.3214 29.4239 16.3738 29.3361 16.4054C29.2483 16.437 29.1537 16.4469 29.0609 16.4341C28.9682 16.4213 28.8802 16.3862 28.8053 16.3322C28.7304 16.2781 28.6709 16.2068 28.6323 16.1248C28.566 15.9777 28.5301 15.8197 28.5264 15.6595C28.5264 14.9962 28.5264 14.3276 28.571 13.659C28.6468 12.7049 28.7957 11.7574 29.0168 10.8242C29.0428 10.6992 29.0919 10.5797 29.1617 10.4712V10.4552Z" fill="#3A3B7B"/>
<path fill-rule="evenodd" clip-rule="evenodd" d="M4.16292 21.9687C4.09712 22.1097 4.07908 22.2669 4.11123 22.4181C4.13262 22.6175 4.17961 22.8136 4.25111 23.002C4.34039 23.2327 4.44029 23.4608 4.56346 23.7419C4.59179 23.8066 4.62139 23.8741 4.65237 23.9452C4.81848 24.3261 5.0269 24.8128 5.30491 25.5173C5.3836 25.7174 5.45348 25.9192 5.52384 26.1223C5.55227 26.2044 5.5808 26.2867 5.61 26.3693C5.71467 26.6627 5.89477 26.9263 6.1335 27.1352C6.23487 27.2501 6.36933 27.3337 6.5201 27.3756C6.67381 27.4182 6.8373 27.4155 6.98938 27.3678C7.14145 27.3201 7.27503 27.2295 7.37275 27.1079C7.46856 26.9886 7.52553 26.845 7.53661 26.6949C7.59877 26.4024 7.57755 26.0992 7.4751 25.8173C7.31251 25.3492 7.12729 24.8804 6.91371 24.422L6.91273 24.4199C6.56137 23.7026 6.20421 22.9902 5.83015 22.2776L5.82735 22.2726C5.71785 22.0869 5.57554 21.9209 5.40683 21.7821C5.2973 21.6582 5.14621 21.5746 4.97936 21.5458C4.80896 21.5164 4.63321 21.546 4.4835 21.6294C4.34187 21.7071 4.2296 21.8258 4.16292 21.9687Z" fill="#3A3B7B"/>
<path fill-rule="evenodd" clip-rule="evenodd" d="M9.52969 20.2023C8.97876 20.0653 8.40339 20.0454 7.84368 20.1438C7.41016 20.1848 6.98378 20.2808 6.68771 20.4709C6.53713 20.5676 6.41538 20.6919 6.34766 20.8498C6.27956 21.0086 6.27087 21.1902 6.32667 21.3925C6.42856 21.7631 6.56087 22.1234 6.69271 22.4826L6.71407 22.5407L6.71458 22.542C7.11156 23.5855 7.51232 24.6254 7.91673 25.6617C7.96389 25.825 8.03058 25.9825 8.11545 26.1311L8.11704 26.1339C8.22916 26.3185 8.37297 26.4836 8.54238 26.6223C8.62712 26.6986 8.7319 26.7513 8.84552 26.7749C8.96025 26.7987 9.07957 26.7918 9.19047 26.7549C9.30143 26.7181 9.39967 26.6527 9.47454 26.5659C9.54819 26.4805 9.59642 26.3776 9.61414 26.2682C9.68723 25.9708 9.66382 25.6591 9.54698 25.3748C9.51052 25.2792 9.48192 25.1814 9.45178 25.0785C9.44173 25.0442 9.43154 25.0093 9.42079 24.9737C10.3465 24.6264 11.3315 24.1594 11.6778 23.0731C11.8134 22.6976 11.8248 22.2911 11.7102 21.9092C11.5955 21.5269 11.3602 21.1881 11.0366 20.9393C10.5963 20.5911 10.082 20.3395 9.52969 20.2023ZM8.00258 21.5348C8.02081 21.5297 8.03918 21.5251 8.05759 21.5207C8.66025 21.4298 9.27684 21.5509 9.79384 21.8618C10.0217 22.0139 10.115 22.1829 10.131 22.3454C10.1476 22.5128 10.0842 22.6942 9.95676 22.8686C9.71602 23.198 9.2767 23.4617 8.87987 23.5108C8.59057 22.8714 8.29679 22.2061 8.00258 21.5348Z" fill="#3A3B7B"/>
<path d="M13.2026 19.0319C13.8587 18.741 14.6714 18.6908 15.3073 18.8953C15.4675 18.9401 15.6064 19.0369 15.7004 19.1693C15.7938 19.3008 15.8369 19.4593 15.8225 19.6178C15.8216 19.7206 15.7953 19.8218 15.7458 19.9131C15.6954 20.0061 15.6224 20.086 15.5331 20.1462C15.4437 20.2063 15.3406 20.245 15.2324 20.2588C15.1241 20.2727 15.0141 20.2613 14.9114 20.2256L14.9036 20.2229L14.8962 20.2192C14.8437 20.1928 14.7879 20.173 14.7302 20.16L14.7265 20.1592C14.2792 20.0452 13.8572 20.2342 13.7031 20.4663C13.6296 20.5771 13.6204 20.6888 13.6817 20.7905C13.7472 20.8993 13.9081 21.0215 14.2335 21.1086C14.323 21.1322 14.4147 21.1549 14.5078 21.178C14.7651 21.242 15.0325 21.3084 15.2911 21.4005L15.2921 21.4009C16.4851 21.8365 16.9293 22.7388 16.7772 23.5874C16.6268 24.4267 15.8965 25.1904 14.7984 25.3706C14.3988 25.4556 13.9829 25.439 13.592 25.3226C13.2001 25.2057 12.8468 24.9925 12.5672 24.704L12.56 24.6965C12.4717 24.5878 12.4124 24.4602 12.386 24.3247C12.3618 24.2024 12.3746 24.0761 12.4227 23.9605C12.4706 23.8456 12.5515 23.7462 12.656 23.6738C12.7663 23.5916 12.8994 23.5424 13.0386 23.5321C13.1773 23.5219 13.3162 23.5508 13.438 23.6153C13.5597 23.6717 13.6729 23.7437 13.7745 23.8293L13.7764 23.8309C13.9562 23.9887 14.1737 24.0298 14.3822 23.9917C14.5938 23.9531 14.7927 23.8329 14.9207 23.6735C15.0478 23.5151 15.0988 23.3269 15.0383 23.1442C14.9773 22.9602 14.7941 22.754 14.3914 22.5817C14.2862 22.5388 14.1771 22.5042 14.0635 22.4705C14.0329 22.4614 14.0018 22.4524 13.9703 22.4432C13.8864 22.4187 13.8 22.3936 13.7153 22.3658C13.657 22.3467 13.5991 22.3286 13.5418 22.3107C13.3852 22.2618 13.2325 22.214 13.0856 22.15C12.7658 22.0455 12.4895 21.8449 12.2978 21.5777C12.1054 21.3095 12.0085 20.9888 12.0217 20.6634C12.0227 19.8705 12.543 19.3243 13.2026 19.0319Z" fill="#3A3B7B"/>
<path d="M21.5203 18.9474C21.3931 18.8878 21.2524 18.8595 21.111 18.865C20.9695 18.8706 20.8317 18.9099 20.7101 18.9794C20.5892 19.0484 20.4879 19.145 20.4154 19.2606C20.3489 19.358 20.3029 19.467 20.2799 19.5813C20.257 19.6956 20.2575 19.8131 20.2815 19.9271C20.3052 20.0736 20.3315 20.2161 20.3574 20.3566C20.4004 20.5892 20.4421 20.8165 20.4697 21.0483L20.4707 21.0541C20.5335 21.4176 20.5664 21.7852 20.5693 22.1536L20.5696 22.1589C20.591 22.5567 20.4498 22.9468 20.1762 23.2464L20.1718 23.2517C20.0828 23.3612 19.9637 23.4448 19.828 23.4931C19.6923 23.5414 19.5452 23.5525 19.4033 23.5252C19.2613 23.4978 19.1302 23.4331 19.0243 23.3383C18.9185 23.2435 18.8422 23.1219 18.8041 22.9879C18.7228 22.7054 18.6757 22.4149 18.6638 22.1221L18.8027 19.9997C18.8047 19.972 18.8071 19.9435 18.8095 19.9148C18.8147 19.8504 18.8202 19.7847 18.8224 19.7235C18.8257 19.6334 18.8229 19.5407 18.801 19.453C18.7786 19.3633 18.736 19.278 18.6605 19.2054C18.5857 19.1335 18.4848 19.0805 18.3578 19.0444C18.128 18.9806 17.9338 18.9826 17.772 19.0485C17.61 19.1144 17.4991 19.2368 17.4206 19.3782C17.3426 19.5184 17.2926 19.6844 17.2547 19.8507C17.2266 19.974 17.2041 20.1036 17.1826 20.2268C17.1752 20.2693 17.1679 20.311 17.1606 20.3515L17.1604 20.3527C17.0456 21.0288 17.0115 21.7152 17.0586 22.3987C17.0674 22.768 17.1476 23.1326 17.2953 23.4738C17.4619 23.914 17.7637 24.2955 18.1608 24.5677C18.5588 24.8406 19.0336 24.9909 19.5226 24.9988C20.0116 25.0068 20.4915 24.8719 20.8988 24.6122C21.3055 24.3529 21.6207 23.9812 21.8027 23.5463C22.0573 22.9924 22.1768 22.3899 22.1522 21.7849C22.1372 21.3432 22.1122 20.8981 22.0872 20.4552C22.075 20.238 22.0628 20.0212 22.0519 19.8058C22.0464 19.5897 21.9721 19.3805 21.8391 19.2061C21.7568 19.0959 21.6473 19.0069 21.5203 18.9474Z" fill="#3A3B7B"/>
<path d="M26.0232 22.2754C26.0103 22.2911 25.9967 22.3074 25.9825 22.3243C25.879 21.7514 25.7831 21.1787 25.687 20.6051C25.6526 20.3993 25.618 20.1926 25.5831 19.9865L25.5792 19.9635L25.5665 19.9436C25.5425 19.9063 25.5401 19.8696 25.5401 19.7914V19.7824L25.5387 19.7734C25.5127 19.612 25.4366 19.4618 25.3204 19.3424C25.2045 19.2233 25.0539 19.1405 24.8884 19.1045C24.7231 19.0654 24.5493 19.074 24.3891 19.1293C24.2292 19.1845 24.0899 19.2837 23.9885 19.4145C23.9042 19.5148 23.8351 19.6261 23.7833 19.745C23.6657 20.0012 23.5472 20.258 23.4283 20.5155L23.4262 20.52C23.1294 21.1628 22.8306 21.81 22.5404 22.4623L22.5395 22.4644C22.3614 22.8874 22.2144 23.333 22.0679 23.7773C22.0386 23.866 22.0094 23.9546 21.9799 24.043C21.927 24.1832 21.9038 24.3321 21.9118 24.481C21.9022 24.6143 21.9354 24.7472 22.0071 24.8619C22.0802 24.9789 22.1897 25.0709 22.3201 25.1251C22.4584 25.1832 22.6129 25.1956 22.7593 25.1602C22.9054 25.1248 23.0352 25.0439 23.1281 24.9301C23.2468 24.7899 23.349 24.6371 23.4322 24.4751C23.678 23.9926 23.9129 23.5042 24.1467 23.0179C24.2372 22.8298 24.3251 22.6613 24.4252 22.4779C24.432 22.5005 24.439 22.5225 24.4463 22.5447C24.5511 22.9876 24.7281 23.4119 24.9706 23.8019C25.0165 23.8846 25.0804 23.9568 25.158 24.0136C25.2365 24.0711 25.3271 24.1115 25.4235 24.132C25.52 24.1525 25.6199 24.1526 25.7163 24.1323C25.8127 24.112 25.9036 24.0716 25.9821 24.0143L26.1376 23.9026L27.3445 22.927L27.2731 23.3635C27.1752 23.9635 27.0779 24.5585 26.9747 25.1537C26.9071 25.4175 26.9072 25.693 26.9749 25.9567C27.0043 26.1052 27.0791 26.2418 27.1897 26.3492C27.3013 26.4575 27.4443 26.5311 27.6 26.5605C27.7557 26.5898 27.917 26.5736 28.063 26.5138C28.2069 26.4549 28.3292 26.3565 28.4147 26.231C28.6137 25.994 28.7376 25.7072 28.7716 25.4045C28.8228 24.9771 28.8807 24.5439 28.9386 24.1108C29.0053 23.6116 29.072 23.1126 29.1283 22.6231L29.1285 22.6216C29.1827 22.0858 29.2089 21.5478 29.2071 21.0095C29.219 20.8394 29.1749 20.6699 29.0808 20.5251C28.9865 20.3797 28.8467 20.2667 28.6816 20.2021C28.5098 20.1271 28.3174 20.1071 28.1329 20.145C27.9495 20.1826 27.7836 20.2753 27.6591 20.4097C27.4365 20.6073 27.2276 20.8188 27.0339 21.0427L27.0326 21.0442C26.8211 21.2971 26.6111 21.555 26.4024 21.8112C26.2755 21.967 26.149 22.1224 26.0232 22.2754Z" fill="#3A3B7B"/>
</g>
<defs>
<clipPath id="clip0_211_2056">
<rect width="32.7153" height="20.186" fill="white" transform="translate(1.16113 7.2197)"/>
</clipPath>
</defs>
</svg>
