<svg width="26" height="23" viewBox="0 0 26 23" fill="none" xmlns="http://www.w3.org/2000/svg">
<mask id="path-1-inside-1_211_2339" fill="white">
<path d="M17.0116 10.7646C16.844 10.7646 16.6883 10.7185 16.5501 10.6444V10.6463C16.5501 10.91 16.4476 11.1577 16.2616 11.3431C16.0757 11.5291 15.8282 11.6316 15.5648 11.6316C15.3948 11.6316 15.2372 11.5844 15.0974 11.5083C15.0833 11.7495 14.9869 11.975 14.8149 12.1472C14.6289 12.3332 14.3815 12.4357 14.1179 12.4357C13.5942 12.4357 13.169 12.024 13.1384 11.5081C12.9763 11.5957 12.7932 11.6416 12.6042 11.6295C12.0891 11.5957 11.6857 11.1506 11.6857 10.616V6.18435L11.1811 7.05859C10.9889 7.39297 10.6291 7.60058 10.2417 7.60058C10.053 7.60058 9.86651 7.55105 9.70138 7.45643C9.49573 7.33721 9.34863 7.14583 9.28746 6.91687C9.22596 6.68778 9.25778 6.44818 9.37667 6.24285C9.37684 6.24285 11.0277 3.38395 11.1285 3.20834C11.1404 3.18194 11.1745 3.10536 11.2036 3.04009C11.2313 2.97777 11.2551 2.91381 11.2779 2.84953C11.7757 1.44397 13.0085 0.570865 14.4952 0.570865C16.4259 0.570865 17.9966 2.27408 17.9966 4.36764L17.9968 9.77913C17.9968 10.0425 17.8945 10.29 17.7087 10.4761C17.5227 10.6621 17.2752 10.7646 17.0115 10.7646L17.0116 10.7646ZM14.4953 1.09441C13.2177 1.09441 12.1995 1.816 11.7713 3.02462C11.7439 3.10137 11.7154 3.17811 11.6821 3.2529C11.5855 3.46953 11.5855 3.46953 11.5583 3.50069L11.5547 3.49757C11.4199 3.75192 11.0194 4.44544 9.82999 6.50487C9.78112 6.58933 9.76816 6.6874 9.79309 6.7812C9.81834 6.875 9.87886 6.95405 9.96266 7.00242C10.2228 7.15182 10.579 7.05539 10.7272 6.79711L11.7208 5.07681C11.7802 4.97431 11.9002 4.92397 12.0154 4.95513C12.1298 4.98579 12.2094 5.0896 12.2094 5.208V10.6161C12.2094 10.8713 12.4019 11.0915 12.6385 11.1071C12.775 11.1143 12.9022 11.0686 12.9978 10.9731C13.0848 10.8862 13.1327 10.7704 13.1327 10.6466V7.10963C13.1327 6.96499 13.2499 6.84774 13.3945 6.84774C13.5392 6.84774 13.6564 6.96483 13.6564 7.10963L13.6563 11.4506C13.6563 11.7051 13.8634 11.9122 14.1179 11.9122C14.2416 11.9122 14.3577 11.8643 14.4448 11.7774C14.5317 11.6903 14.5796 11.5742 14.5796 11.4506V7.10963C14.5796 6.96499 14.6966 6.84773 14.8415 6.84773C14.9861 6.84773 15.1033 6.96483 15.1033 7.10963L15.1032 10.6059V10.6466C15.1032 10.901 15.3103 11.1081 15.565 11.1081C15.6885 11.1081 15.8043 11.06 15.8918 10.9728C15.9787 10.886 16.0266 10.7703 16.0266 10.6464V7.10945C16.0266 6.96481 16.1437 6.84755 16.2885 6.84755C16.4332 6.84755 16.5504 6.96464 16.5504 7.10945L16.5501 9.77925C16.5501 10.0339 16.7572 10.2411 17.0116 10.2411C17.1354 10.2411 17.2512 10.193 17.3381 10.1063C17.4253 10.019 17.473 9.9029 17.473 9.77925L17.4732 4.36777C17.4732 2.56304 16.1373 1.09446 14.4952 1.09446L14.4953 1.09441Z"/>
</mask>
<path d="M17.0116 10.7646C16.844 10.7646 16.6883 10.7185 16.5501 10.6444V10.6463C16.5501 10.91 16.4476 11.1577 16.2616 11.3431C16.0757 11.5291 15.8282 11.6316 15.5648 11.6316C15.3948 11.6316 15.2372 11.5844 15.0974 11.5083C15.0833 11.7495 14.9869 11.975 14.8149 12.1472C14.6289 12.3332 14.3815 12.4357 14.1179 12.4357C13.5942 12.4357 13.169 12.024 13.1384 11.5081C12.9763 11.5957 12.7932 11.6416 12.6042 11.6295C12.0891 11.5957 11.6857 11.1506 11.6857 10.616V6.18435L11.1811 7.05859C10.9889 7.39297 10.6291 7.60058 10.2417 7.60058C10.053 7.60058 9.86651 7.55105 9.70138 7.45643C9.49573 7.33721 9.34863 7.14583 9.28746 6.91687C9.22596 6.68778 9.25778 6.44818 9.37667 6.24285C9.37684 6.24285 11.0277 3.38395 11.1285 3.20834C11.1404 3.18194 11.1745 3.10536 11.2036 3.04009C11.2313 2.97777 11.2551 2.91381 11.2779 2.84953C11.7757 1.44397 13.0085 0.570865 14.4952 0.570865C16.4259 0.570865 17.9966 2.27408 17.9966 4.36764L17.9968 9.77913C17.9968 10.0425 17.8945 10.29 17.7087 10.4761C17.5227 10.6621 17.2752 10.7646 17.0115 10.7646L17.0116 10.7646ZM14.4953 1.09441C13.2177 1.09441 12.1995 1.816 11.7713 3.02462C11.7439 3.10137 11.7154 3.17811 11.6821 3.2529C11.5855 3.46953 11.5855 3.46953 11.5583 3.50069L11.5547 3.49757C11.4199 3.75192 11.0194 4.44544 9.82999 6.50487C9.78112 6.58933 9.76816 6.6874 9.79309 6.7812C9.81834 6.875 9.87886 6.95405 9.96266 7.00242C10.2228 7.15182 10.579 7.05539 10.7272 6.79711L11.7208 5.07681C11.7802 4.97431 11.9002 4.92397 12.0154 4.95513C12.1298 4.98579 12.2094 5.0896 12.2094 5.208V10.6161C12.2094 10.8713 12.4019 11.0915 12.6385 11.1071C12.775 11.1143 12.9022 11.0686 12.9978 10.9731C13.0848 10.8862 13.1327 10.7704 13.1327 10.6466V7.10963C13.1327 6.96499 13.2499 6.84774 13.3945 6.84774C13.5392 6.84774 13.6564 6.96483 13.6564 7.10963L13.6563 11.4506C13.6563 11.7051 13.8634 11.9122 14.1179 11.9122C14.2416 11.9122 14.3577 11.8643 14.4448 11.7774C14.5317 11.6903 14.5796 11.5742 14.5796 11.4506V7.10963C14.5796 6.96499 14.6966 6.84773 14.8415 6.84773C14.9861 6.84773 15.1033 6.96483 15.1033 7.10963L15.1032 10.6059V10.6466C15.1032 10.901 15.3103 11.1081 15.565 11.1081C15.6885 11.1081 15.8043 11.06 15.8918 10.9728C15.9787 10.886 16.0266 10.7703 16.0266 10.6464V7.10945C16.0266 6.96481 16.1437 6.84755 16.2885 6.84755C16.4332 6.84755 16.5504 6.96464 16.5504 7.10945L16.5501 9.77925C16.5501 10.0339 16.7572 10.2411 17.0116 10.2411C17.1354 10.2411 17.2512 10.193 17.3381 10.1063C17.4253 10.019 17.473 9.9029 17.473 9.77925L17.4732 4.36777C17.4732 2.56304 16.1373 1.09446 14.4952 1.09446L14.4953 1.09441Z" fill="#4CAF4F"/>
<path d="M17.0116 10.7646V9.83647H20.2906L17.498 11.555L17.0116 10.7646ZM16.5501 10.6444H15.622V9.09362L16.9887 9.82642L16.5501 10.6444ZM16.2616 11.3431L15.6054 10.6869L15.6063 10.686L16.2616 11.3431ZM15.0974 11.5083L14.1709 11.4541L14.2563 9.99345L15.5413 10.6932L15.0974 11.5083ZM14.8149 12.1472L15.4715 12.8031L15.4711 12.8035L14.8149 12.1472ZM13.1384 11.5081L12.6971 10.6916L13.9785 9.9991L14.0648 11.4531L13.1384 11.5081ZM12.6042 11.6295L12.5447 12.5557L12.5435 12.5556L12.6042 11.6295ZM11.6857 6.18435L10.8819 5.72039L12.6138 2.71998V6.18435H11.6857ZM11.1811 7.05859L10.3764 6.59609L10.3773 6.59462L11.1811 7.05859ZM9.70138 7.45643L9.23995 8.2617L9.23589 8.25935L9.70138 7.45643ZM9.28746 6.91687L10.1838 6.67627L10.1841 6.67731L9.28746 6.91687ZM9.37667 6.24285L8.5735 5.77779L8.84161 5.31476H9.37667V6.24285ZM11.1285 3.20834L11.9737 3.5916L11.9555 3.63179L11.9335 3.67007L11.1285 3.20834ZM11.2036 3.04009L10.3556 2.66296L10.3556 2.66295L11.2036 3.04009ZM11.2779 2.84953L12.1527 3.1594L12.1526 3.15966L11.2779 2.84953ZM17.9966 4.36764L17.0685 4.36767V4.36764H17.9966ZM17.9968 9.77913L18.9249 9.7791V9.77913H17.9968ZM17.7087 10.4761L18.3655 11.1318L18.3649 11.1324L17.7087 10.4761ZM17.0115 10.7646V11.6927H13.7325L16.5251 9.97416L17.0115 10.7646ZM14.4953 1.09441V0.166316H15.7257L15.3876 1.34938L14.4953 1.09441ZM11.7713 3.02462L12.6461 3.33454L12.6454 3.33654L11.7713 3.02462ZM11.6821 3.2529L12.53 3.63035L12.5298 3.63084L11.6821 3.2529ZM11.5583 3.50069L12.2572 4.11134L11.6501 4.80623L10.9517 4.20309L11.5583 3.50069ZM11.5547 3.49757L10.7346 3.06297L11.28 2.03401L12.1613 2.79517L11.5547 3.49757ZM9.82999 6.50487L10.6337 6.96904L10.6333 6.96971L9.82999 6.50487ZM9.79309 6.7812L8.8969 7.02248L8.89613 7.01958L9.79309 6.7812ZM9.96266 7.00242L9.50039 7.8072L9.49866 7.8062L9.96266 7.00242ZM10.7272 6.79711L9.92225 6.33512L9.92353 6.33291L10.7272 6.79711ZM11.7208 5.07681L10.9172 4.61261L10.9177 4.61164L11.7208 5.07681ZM12.0154 4.95513L11.7752 5.85161L11.7729 5.85098L12.0154 4.95513ZM12.6385 11.1071L12.5895 12.034L12.5776 12.0332L12.6385 11.1071ZM12.9978 10.9731L13.6541 11.6294L13.6535 11.63L12.9978 10.9731ZM13.6564 7.10963L14.5845 7.10963L14.5845 7.10967L13.6564 7.10963ZM13.6563 11.4506L12.7282 11.4506L12.7282 11.4505L13.6563 11.4506ZM14.4448 11.7774L15.1016 12.4331L15.1004 12.4343L14.4448 11.7774ZM15.1033 7.10963L16.0314 7.10963L16.0314 7.10967L15.1033 7.10963ZM15.1032 10.6059L14.1751 10.6059L14.1751 10.6059L15.1032 10.6059ZM15.8918 10.9728L16.5475 11.6297L16.5469 11.6303L15.8918 10.9728ZM16.5504 7.10945L17.4785 7.10945L17.4785 7.10956L16.5504 7.10945ZM16.5501 9.77925L15.622 9.77925L15.622 9.77914L16.5501 9.77925ZM17.3381 10.1063L17.9943 10.7625L17.9937 10.7631L17.3381 10.1063ZM17.473 9.77925L16.5449 9.77925L16.5449 9.77923L17.473 9.77925ZM17.4732 4.36777L18.4013 4.36777L18.4013 4.36779L17.4732 4.36777ZM14.4952 1.09446V2.02256H13.2648L13.6029 0.839496L14.4952 1.09446ZM17.0116 10.7646V11.6927C16.6698 11.6927 16.3647 11.598 16.1115 11.4623L16.5501 10.6444L16.9887 9.82642C17.0007 9.83285 17.0083 9.83531 17.0113 9.83613C17.0139 9.83683 17.0136 9.83647 17.0116 9.83647V10.7646ZM16.5501 10.6444H17.4782V10.6463H16.5501H15.622V10.6444H16.5501ZM16.5501 10.6463H17.4782C17.4782 11.1554 17.2784 11.6398 16.917 12.0003L16.2616 11.3431L15.6063 10.686C15.6129 10.6794 15.6162 10.6737 15.6181 10.6691C15.62 10.6644 15.622 10.6573 15.622 10.6463H16.5501ZM16.2616 11.3431L16.9179 11.9994C16.5577 12.3596 16.0742 12.5597 15.5648 12.5597V11.6316V10.7035C15.5755 10.7035 15.5825 10.7016 15.5872 10.6996C15.592 10.6976 15.5981 10.6941 15.6054 10.6869L16.2616 11.3431ZM15.5648 11.6316V12.5597C15.2186 12.5597 14.9097 12.4628 14.6536 12.3234L15.0974 11.5083L15.5413 10.6932C15.5534 10.6998 15.561 10.7023 15.5641 10.7031C15.5667 10.7038 15.5665 10.7035 15.5648 10.7035V11.6316ZM15.0974 11.5083L16.0239 11.5624C15.9972 12.0193 15.8119 12.4623 15.4715 12.8031L14.8149 12.1472L14.1583 11.4913C14.1617 11.4878 14.1637 11.4848 14.1654 11.481C14.1672 11.4768 14.1701 11.4683 14.1709 11.4541L15.0974 11.5083ZM14.8149 12.1472L15.4711 12.8035C15.1109 13.1637 14.6273 13.3638 14.1179 13.3638V12.4357V11.5076C14.1287 11.5076 14.1358 11.5056 14.1405 11.5037C14.1452 11.5017 14.1514 11.4982 14.1586 11.4909L14.8149 12.1472ZM14.1179 12.4357V13.3638C13.0933 13.3638 12.2711 12.5596 12.2119 11.5632L13.1384 11.5081L14.0648 11.4531C14.0658 11.4689 14.0722 11.4827 14.0836 11.4936C14.0892 11.4989 14.0949 11.5023 14.0998 11.5044C14.1041 11.5061 14.1096 11.5076 14.1179 11.5076V12.4357ZM13.1384 11.5081L13.5796 12.3246C13.2799 12.4866 12.9244 12.58 12.5447 12.5557L12.6042 11.6295L12.6637 10.7033C12.6637 10.7033 12.6657 10.7035 12.6706 10.7023C12.6759 10.7011 12.6849 10.6982 12.6971 10.6916L13.1384 11.5081ZM12.6042 11.6295L12.5435 12.5556C11.513 12.488 10.7576 11.6116 10.7576 10.616H11.6857H12.6138C12.6138 10.6474 12.6252 10.6715 12.6395 10.6873C12.6534 10.7026 12.6628 10.7032 12.665 10.7034L12.6042 11.6295ZM11.6857 10.616H10.7576V6.18435H11.6857H12.6138V10.616H11.6857ZM11.6857 6.18435L12.4895 6.64832L11.9849 7.52255L11.1811 7.05859L10.3773 6.59462L10.8819 5.72039L11.6857 6.18435ZM11.1811 7.05859L11.9857 7.52109C11.6271 8.14501 10.9596 8.52867 10.2417 8.52867V7.60058V6.67248C10.2986 6.67248 10.3507 6.64093 10.3764 6.59609L11.1811 7.05859ZM10.2417 7.60058V8.52867C9.89076 8.52867 9.54527 8.43664 9.23996 8.26169L9.70138 7.45643L10.1628 6.65116C10.1878 6.66546 10.2152 6.67248 10.2417 6.67248V7.60058ZM9.70138 7.45643L9.23589 8.25935C8.81921 8.01778 8.51592 7.62465 8.39082 7.15644L9.28746 6.91687L10.1841 6.67731C10.1833 6.67414 10.1809 6.66854 10.1765 6.66271C10.172 6.65693 10.1679 6.65413 10.1669 6.65351L9.70138 7.45643ZM9.28746 6.91687L8.3911 7.15748C8.26551 6.68961 8.33126 6.19616 8.5735 5.77779L9.37667 6.24285L10.1798 6.70791C10.1812 6.70563 10.1835 6.70033 10.1845 6.69283C10.1855 6.68531 10.1846 6.67931 10.1838 6.67627L9.28746 6.91687ZM9.37667 6.24285V5.31476C8.92141 5.43409 8.58064 5.76568 8.57809 5.76995C8.57725 5.77138 8.57599 5.77353 8.57558 5.77422C8.57535 5.77461 8.57496 5.77529 8.57483 5.77552C8.57474 5.77566 8.57457 5.77596 8.57453 5.77603C8.5744 5.77625 8.57444 5.77618 8.57479 5.77558C8.57542 5.77449 8.57648 5.77266 8.57802 5.77C8.58107 5.76473 8.58565 5.7568 8.5917 5.74633C8.60378 5.72542 8.62154 5.69469 8.64421 5.65544C8.68954 5.57696 8.75442 5.46463 8.8326 5.32926C8.98895 5.05853 9.19846 4.6957 9.41111 4.32739C9.83714 3.58953 10.2739 2.83288 10.3234 2.74662L11.1285 3.20834L11.9335 3.67007C11.8823 3.75942 11.4433 4.52002 11.0186 5.25551C10.8059 5.62387 10.5964 5.98675 10.44 6.25755C10.3618 6.39294 10.2969 6.50533 10.2515 6.58389C10.2288 6.62316 10.211 6.65401 10.1988 6.67507C10.1928 6.68558 10.188 6.69373 10.1848 6.69929C10.1832 6.70204 10.1819 6.70432 10.181 6.70598C10.1805 6.70675 10.18 6.70771 10.1794 6.70863C10.1792 6.70897 10.1786 6.71 10.1779 6.71122C10.1775 6.71199 10.1762 6.71421 10.1753 6.71568C10.1727 6.72 9.83194 7.05161 9.37667 7.17094V6.24285ZM11.1285 3.20834L10.2832 2.82508C10.2934 2.80255 10.3258 2.72991 10.3556 2.66296L11.2036 3.04009L12.0516 3.41721C12.0233 3.48081 11.9874 3.56133 11.9737 3.5916L11.1285 3.20834ZM11.2036 3.04009L10.3556 2.66295C10.3685 2.63395 10.3827 2.59689 10.4031 2.5394L11.2779 2.84953L12.1526 3.15966C12.1274 3.23074 12.0941 3.32159 12.0516 3.41723L11.2036 3.04009ZM11.2779 2.84953L10.403 2.53965C11.0316 0.765036 12.6138 -0.357228 14.4952 -0.357228V0.570865V1.49896C13.4032 1.49896 12.5198 2.1229 12.1527 3.1594L11.2779 2.84953ZM14.4952 0.570865V-0.357228C17.0078 -0.357228 18.9247 1.83371 18.9247 4.36764H17.9966H17.0685C17.0685 2.71445 15.844 1.49896 14.4952 1.49896V0.570865ZM17.9966 4.36764L18.9247 4.36761L18.9249 9.7791L17.9968 9.77913L17.0687 9.77916L17.0685 4.36767L17.9966 4.36764ZM17.9968 9.77913H18.9249C18.9249 10.2881 18.7252 10.7714 18.3655 11.1318L17.7087 10.4761L17.0518 9.82047C17.0591 9.81312 17.0627 9.80687 17.0647 9.80199C17.0667 9.79711 17.0687 9.78995 17.0687 9.77913H17.9968ZM17.7087 10.4761L18.3649 11.1324C18.0046 11.4927 17.521 11.6927 17.0115 11.6927V10.7646V9.83649C17.0225 9.83649 17.0296 9.83451 17.0343 9.83255C17.039 9.83059 17.0452 9.8271 17.0524 9.81986L17.7087 10.4761ZM17.0115 10.7646L16.5251 9.97416L16.5252 9.97414L17.0116 10.7646L17.498 11.555L17.498 11.555L17.0115 10.7646ZM14.4953 1.09441V2.0225C13.6128 2.0225 12.9437 2.49454 12.6461 3.33454L11.7713 3.02462L10.8965 2.7147C11.4553 1.13745 12.8226 0.166316 14.4953 0.166316V1.09441ZM11.7713 3.02462L12.6454 3.33654C12.6161 3.41863 12.5781 3.52232 12.53 3.63035L11.6821 3.2529L10.8342 2.87544C10.8527 2.83391 10.8717 2.7841 10.8972 2.7127L11.7713 3.02462ZM11.6821 3.2529L12.5298 3.63084C12.4873 3.72616 12.4517 3.80666 12.4244 3.86119C12.4075 3.89503 12.3801 3.94719 12.3404 4.00496C12.3002 4.06349 12.2604 4.10764 12.2572 4.11134L11.5583 3.50069L10.8594 2.89003C10.8616 2.88754 10.8609 2.88835 10.8598 2.88963C10.8584 2.89127 10.8547 2.89548 10.85 2.90125C10.8451 2.90722 10.8389 2.91494 10.832 2.92412C10.825 2.93338 10.8178 2.94323 10.8107 2.95362C10.7961 2.97478 10.7849 2.99331 10.777 3.00733C10.7695 3.02041 10.765 3.02946 10.764 3.0315C10.7629 3.03361 10.7636 3.03237 10.7667 3.02562C10.7698 3.01908 10.7741 3.00965 10.7803 2.99594C10.7865 2.98234 10.7939 2.96592 10.8029 2.94563C10.812 2.92537 10.8223 2.90216 10.8345 2.87495L11.6821 3.2529ZM11.5583 3.50069L10.9517 4.20309L10.9481 4.19997L11.5547 3.49757L12.1613 2.79517L12.1649 2.79828L11.5583 3.50069ZM11.5547 3.49757L12.3747 3.93217C12.2295 4.20625 11.8148 4.92398 10.6337 6.96904L9.82999 6.50487L9.02631 6.0407C10.224 3.96691 10.6103 3.2976 10.7346 3.06297L11.5547 3.49757ZM9.82999 6.50487L10.6333 6.96971C10.7075 6.84138 10.7282 6.68654 10.69 6.54282L9.79309 6.7812L8.89613 7.01958C8.80808 6.68826 8.85469 6.33728 9.02669 6.04003L9.82999 6.50487ZM9.79309 6.7812L10.6893 6.53992C10.6511 6.39807 10.5572 6.27401 10.4267 6.19865L9.96266 7.00242L9.49866 7.8062C9.2005 7.63408 8.98561 7.35194 8.89691 7.02248L9.79309 6.7812ZM9.96266 7.00242L10.4249 6.19765C10.3193 6.13696 10.2165 6.13737 10.1456 6.15647C10.0749 6.1755 9.98429 6.22704 9.92225 6.33513L10.7272 6.79711L11.5321 7.25909C11.1277 7.96384 10.2033 8.21093 9.50039 7.8072L9.96266 7.00242ZM10.7272 6.79711L9.92353 6.33291L10.9172 4.61261L11.7208 5.07681L12.5245 5.541L11.5309 7.2613L10.7272 6.79711ZM11.7208 5.07681L10.9177 4.61164C11.1858 4.14882 11.733 3.91721 12.2578 4.05927L12.0154 4.95513L11.7729 5.85098C12.0675 5.93073 12.3746 5.7998 12.5239 5.54198L11.7208 5.07681ZM12.0154 4.95513L12.2555 4.05865C12.7762 4.19814 13.1375 4.66998 13.1375 5.208H12.2094H11.2813C11.2813 5.50922 11.4834 5.77345 11.7752 5.8516L12.0154 4.95513ZM12.2094 5.208H13.1375V10.6161H12.2094H11.2813V5.208H12.2094ZM12.2094 10.6161H13.1375C13.1375 10.5104 13.0983 10.4142 13.034 10.3407C12.9697 10.2672 12.8564 10.1914 12.6995 10.181L12.6385 11.1071L12.5776 12.0332C11.7963 11.9818 11.2813 11.3012 11.2813 10.6161H12.2094ZM12.6385 11.1071L12.6876 10.1803C12.5779 10.1745 12.444 10.2147 12.3422 10.3163L12.9978 10.9731L13.6535 11.63C13.3605 11.9225 12.9721 12.0541 12.5895 12.0339L12.6385 11.1071ZM12.9978 10.9731L12.3416 10.3169C12.2535 10.4049 12.2046 10.5256 12.2046 10.6466H13.1327H14.0607C14.0607 11.0152 13.916 11.3675 13.6541 11.6294L12.9978 10.9731ZM13.1327 10.6466H12.2046V7.10963H13.1327H14.0607V10.6466H13.1327ZM13.1327 7.10963H12.2046C12.2046 6.45242 12.7373 5.91964 13.3945 5.91964V6.84774V7.77583C13.7625 7.77583 14.0607 7.47756 14.0607 7.10963H13.1327ZM13.3945 6.84774V5.91964C14.0514 5.91964 14.5845 6.45189 14.5845 7.10963H13.6564H12.7284C12.7284 7.47777 13.027 7.77583 13.3945 7.77583V6.84774ZM13.6564 7.10963L14.5845 7.10967L14.5844 11.4506L13.6563 11.4506L12.7282 11.4505L12.7284 7.1096L13.6564 7.10963ZM13.6563 11.4506H14.5844C14.5844 11.1925 14.376 10.9841 14.1179 10.9841V11.9122V12.8403C13.3508 12.8403 12.7282 12.2177 12.7282 11.4506H13.6563ZM14.1179 11.9122V10.9841C13.9971 10.9841 13.877 11.0328 13.7891 11.1205L14.4448 11.7774L15.1004 12.4343C14.8383 12.6959 14.486 12.8403 14.1179 12.8403V11.9122ZM14.4448 11.7774L13.7879 11.1218C13.7001 11.2097 13.6515 11.3298 13.6515 11.4506H14.5796H15.5076C15.5076 11.8187 15.3632 12.171 15.1016 12.4331L14.4448 11.7774ZM14.5796 11.4506H13.6515V7.10963H14.5796H15.5076V11.4506H14.5796ZM14.5796 7.10963H13.6515C13.6515 6.4528 14.1837 5.91964 14.8415 5.91964V6.84773V7.77583C15.2096 7.77583 15.5076 7.47718 15.5076 7.10963H14.5796ZM14.8415 6.84773V5.91964C15.4983 5.91964 16.0314 6.45188 16.0314 7.10963H15.1033H14.1753C14.1753 7.47777 14.4739 7.77583 14.8415 7.77583V6.84773ZM15.1033 7.10963L16.0314 7.10967L16.0313 10.606L15.1032 10.6059L14.1751 10.6059L14.1753 7.10959L15.1033 7.10963ZM15.1032 10.6059H16.0313V10.6466H15.1032H14.1751V10.6059H15.1032ZM15.1032 10.6466H16.0313C16.0313 10.3879 15.8224 10.18 15.565 10.18V11.1081V12.0362C14.7982 12.0362 14.1751 11.414 14.1751 10.6466H15.1032ZM15.565 11.1081V10.18C15.4417 10.18 15.3223 10.2301 15.2368 10.3153L15.8918 10.9728L16.5469 11.6303C16.2862 11.8899 15.9353 12.0362 15.565 12.0362V11.1081ZM15.8918 10.9728L15.2362 10.3159C15.1474 10.4045 15.0985 10.5256 15.0985 10.6464H16.0266H16.9547C16.9547 11.0149 16.8101 11.3675 16.5475 11.6297L15.8918 10.9728ZM16.0266 10.6464H15.0985V7.10945H16.0266H16.9547V10.6464H16.0266ZM16.0266 7.10945H15.0985C15.0985 6.45261 15.6308 5.91946 16.2885 5.91946V6.84755V7.77564C16.6567 7.77564 16.9547 7.47701 16.9547 7.10945H16.0266ZM16.2885 6.84755V5.91946C16.9454 5.91946 17.4785 6.45169 17.4785 7.10945H16.5504H15.6223C15.6223 7.47759 15.921 7.77564 16.2885 7.77564V6.84755ZM16.5504 7.10945L17.4785 7.10956L17.4782 9.77937L16.5501 9.77925L15.622 9.77914L15.6223 7.10933L16.5504 7.10945ZM16.5501 9.77925H17.4782C17.4782 9.5218 17.2702 9.31297 17.0116 9.31297V10.2411V11.1692C16.2442 11.1692 15.622 10.5461 15.622 9.77925H16.5501ZM17.0116 10.2411V9.31297C16.8898 9.31297 16.7697 9.36226 16.6824 9.44938L17.3381 10.1063L17.9937 10.7631C17.7326 11.0238 17.3809 11.1692 17.0116 11.1692V10.2411ZM17.3381 10.1063L16.6818 9.45C16.5934 9.53837 16.5449 9.65899 16.5449 9.77925H17.473H18.4011C18.4011 10.1468 18.2572 10.4997 17.9943 10.7625L17.3381 10.1063ZM17.473 9.77925L16.5449 9.77923L16.5451 4.36774L17.4732 4.36777L18.4013 4.36779L18.4011 9.77928L17.473 9.77925ZM17.4732 4.36777H16.5451C16.5451 2.99103 15.5441 2.02256 14.4952 2.02256V1.09446V0.16637C16.7306 0.16637 18.4013 2.13505 18.4013 4.36777H17.4732ZM14.4952 1.09446L13.6029 0.839496L13.6029 0.839442L14.4953 1.09441L15.3876 1.34938L15.3876 1.34943L14.4952 1.09446Z" fill="#4CAF4F" mask="url(#path-1-inside-1_211_2339)"/>
<mask id="path-3-inside-2_211_2339" fill="white">
<path d="M13.4575 16.5819C13.3694 16.4393 13.2484 16.3311 13.1127 16.2525L13.1144 16.2514C13.3387 16.1128 13.4955 15.8955 13.5556 15.6398C13.6161 15.3839 13.5732 15.1195 13.4348 14.8954C13.3454 14.7507 13.2224 14.6414 13.0843 14.5626C13.2821 14.4238 13.4232 14.2232 13.4793 13.9864C13.5398 13.7304 13.497 13.466 13.3584 13.2418C13.0832 12.7963 12.5096 12.6509 12.0545 12.8959C12.0439 12.7121 11.9867 12.5321 11.8771 12.3777C11.5776 11.9572 10.9869 11.8479 10.5321 12.1289L6.76182 14.458L7.24038 13.5692C7.42385 13.23 7.41139 12.8148 7.20781 12.4852C7.10861 12.3246 6.96848 12.192 6.80119 12.1012C6.59168 11.9889 6.35156 11.9644 6.12462 12.0327C5.8974 12.1007 5.71028 12.2537 5.59807 12.4628C5.59816 12.4629 4.03355 15.37 3.93708 15.5479C3.92091 15.572 3.87369 15.6413 3.83341 15.7003C3.79496 15.7566 3.75305 15.8104 3.71033 15.8636C2.77619 17.0259 2.68126 18.5335 3.46263 19.7984C4.47729 21.4409 6.75181 21.8821 8.53294 20.7818L13.1369 17.938C13.361 17.7996 13.5177 17.5824 13.5785 17.3265C13.6389 17.0706 13.5961 16.8062 13.4575 16.5819L13.4575 16.5819ZM3.90805 19.5233C3.23665 18.4364 3.31542 17.1909 4.11864 16.1914C4.16954 16.1278 4.21984 16.0632 4.26596 15.9956C4.3995 15.7995 4.3995 15.7995 4.4117 15.76L4.40716 15.7586C4.5527 15.5102 4.93226 14.805 6.05923 12.7108C6.1054 12.6248 6.18203 12.5622 6.27493 12.5341C6.36801 12.5063 6.46706 12.5163 6.55226 12.5621C6.81605 12.7049 6.92122 13.0586 6.77938 13.3205L5.83802 15.0699C5.78202 15.1743 5.80228 15.3029 5.88929 15.3845C5.97554 15.4657 6.10565 15.4788 6.20638 15.4166L10.8074 12.5744C11.0245 12.4402 11.3131 12.4883 11.4507 12.6815C11.5285 12.7937 11.5565 12.9261 11.5255 13.0576C11.4973 13.1772 11.4239 13.2788 11.3186 13.3438L8.30946 15.2027C8.1864 15.2787 8.14827 15.4401 8.22429 15.5632C8.3003 15.6862 8.46154 15.7244 8.58474 15.6483L12.2778 13.3668C12.4943 13.233 12.7794 13.3004 12.9131 13.5169C12.9781 13.6221 12.9984 13.7461 12.9702 13.8658C12.9418 13.9855 12.8682 14.0873 12.763 14.1523L9.06988 16.4337C8.94682 16.5097 8.9086 16.6709 8.9847 16.7941C9.06072 16.9172 9.22196 16.9554 9.34516 16.8793L12.3196 15.0417L12.3542 15.0203C12.5706 14.8866 12.8557 14.954 12.9895 15.1707C13.0544 15.2757 13.0744 15.3995 13.0462 15.5198C13.018 15.6394 12.9447 15.7409 12.8394 15.806L9.83023 17.6649C9.70717 17.7409 9.66896 17.9021 9.74506 18.0253C9.82107 18.1484 9.98231 18.1866 10.1055 18.1105L12.3767 16.7071C12.5934 16.5733 12.8784 16.6406 13.0121 16.857C13.0772 16.9623 13.0972 17.0861 13.069 17.2056C13.0407 17.3257 12.967 17.4273 12.8618 17.4923L8.25795 20.3365C6.72256 21.2849 4.77108 20.9202 3.90808 19.5232L3.90805 19.5233Z"/>
</mask>
<path d="M13.4575 16.5819C13.3694 16.4393 13.2484 16.3311 13.1127 16.2525L13.1144 16.2514C13.3387 16.1128 13.4955 15.8955 13.5556 15.6398C13.6161 15.3839 13.5732 15.1195 13.4348 14.8954C13.3454 14.7507 13.2224 14.6414 13.0843 14.5626C13.2821 14.4238 13.4232 14.2232 13.4793 13.9864C13.5398 13.7304 13.497 13.466 13.3584 13.2418C13.0832 12.7963 12.5096 12.6509 12.0545 12.8959C12.0439 12.7121 11.9867 12.5321 11.8771 12.3777C11.5776 11.9572 10.9869 11.8479 10.5321 12.1289L6.76182 14.458L7.24038 13.5692C7.42385 13.23 7.41139 12.8148 7.20781 12.4852C7.10861 12.3246 6.96848 12.192 6.80119 12.1012C6.59168 11.9889 6.35156 11.9644 6.12462 12.0327C5.8974 12.1007 5.71028 12.2537 5.59807 12.4628C5.59816 12.4629 4.03355 15.37 3.93708 15.5479C3.92091 15.572 3.87369 15.6413 3.83341 15.7003C3.79496 15.7566 3.75305 15.8104 3.71033 15.8636C2.77619 17.0259 2.68126 18.5335 3.46263 19.7984C4.47729 21.4409 6.75181 21.8821 8.53294 20.7818L13.1369 17.938C13.361 17.7996 13.5177 17.5824 13.5785 17.3265C13.6389 17.0706 13.5961 16.8062 13.4575 16.5819L13.4575 16.5819ZM3.90805 19.5233C3.23665 18.4364 3.31542 17.1909 4.11864 16.1914C4.16954 16.1278 4.21984 16.0632 4.26596 15.9956C4.3995 15.7995 4.3995 15.7995 4.4117 15.76L4.40716 15.7586C4.5527 15.5102 4.93226 14.805 6.05923 12.7108C6.1054 12.6248 6.18203 12.5622 6.27493 12.5341C6.36801 12.5063 6.46706 12.5163 6.55226 12.5621C6.81605 12.7049 6.92122 13.0586 6.77938 13.3205L5.83802 15.0699C5.78202 15.1743 5.80228 15.3029 5.88929 15.3845C5.97554 15.4657 6.10565 15.4788 6.20638 15.4166L10.8074 12.5744C11.0245 12.4402 11.3131 12.4883 11.4507 12.6815C11.5285 12.7937 11.5565 12.9261 11.5255 13.0576C11.4973 13.1772 11.4239 13.2788 11.3186 13.3438L8.30946 15.2027C8.1864 15.2787 8.14827 15.4401 8.22429 15.5632C8.3003 15.6862 8.46154 15.7244 8.58474 15.6483L12.2778 13.3668C12.4943 13.233 12.7794 13.3004 12.9131 13.5169C12.9781 13.6221 12.9984 13.7461 12.9702 13.8658C12.9418 13.9855 12.8682 14.0873 12.763 14.1523L9.06988 16.4337C8.94682 16.5097 8.9086 16.6709 8.9847 16.7941C9.06072 16.9172 9.22196 16.9554 9.34516 16.8793L12.3196 15.0417L12.3542 15.0203C12.5706 14.8866 12.8557 14.954 12.9895 15.1707C13.0544 15.2757 13.0744 15.3995 13.0462 15.5198C13.018 15.6394 12.9447 15.7409 12.8394 15.806L9.83023 17.6649C9.70717 17.7409 9.66896 17.9021 9.74506 18.0253C9.82107 18.1484 9.98231 18.1866 10.1055 18.1105L12.3767 16.7071C12.5934 16.5733 12.8784 16.6406 13.0121 16.857C13.0772 16.9623 13.0972 17.0861 13.069 17.2056C13.0407 17.3257 12.967 17.4273 12.8618 17.4923L8.25795 20.3365C6.72256 21.2849 4.77108 20.9202 3.90808 19.5232L3.90805 19.5233Z" fill="#4CAF4F"/>
<path d="M13.4575 16.5819L12.6679 17.0697L14.3912 19.8593L14.3856 16.5803L13.4575 16.5819ZM13.1127 16.2525L12.625 15.4629L11.3056 16.2779L12.6473 17.0555L13.1127 16.2525ZM13.5556 15.6398L12.6524 15.4264L12.6521 15.4276L13.5556 15.6398ZM13.0843 14.5626L12.5512 13.8028L11.3534 14.6431L12.6241 15.3685L13.0843 14.5626ZM13.4793 13.9864L14.3824 14.2003L14.3826 14.1998L13.4793 13.9864ZM12.0545 12.8959L11.128 12.9496L11.2122 14.4037L12.4946 13.7131L12.0545 12.8959ZM11.8771 12.3777L12.6337 11.8404L12.633 11.8393L11.8771 12.3777ZM6.76182 14.458L5.94466 14.018L4.30222 17.0683L7.24958 15.2476L6.76182 14.458ZM7.24038 13.5692L6.42402 13.1277L6.42322 13.1292L7.24038 13.5692ZM6.80119 12.1012L7.24378 11.2855L7.23965 11.2833L6.80119 12.1012ZM6.12462 12.0327L6.39101 12.9217L6.39204 12.9214L6.12462 12.0327ZM5.59807 12.4628L4.78032 12.0239L4.52729 12.4953L4.80849 12.9506L5.59807 12.4628ZM3.93708 15.5479L4.70737 16.0656L4.73199 16.029L4.75301 15.9902L3.93708 15.5479ZM3.83341 15.7003L3.06689 15.177L3.06688 15.177L3.83341 15.7003ZM3.71033 15.8636L4.43373 16.445L4.4339 16.4448L3.71033 15.8636ZM8.53294 20.7818L8.0452 19.9922L8.04518 19.9923L8.53294 20.7818ZM13.1369 17.938L13.6247 18.7276L13.6247 18.7276L13.1369 17.938ZM13.5785 17.3265L14.4815 17.5408L14.4817 17.54L13.5785 17.3265ZM13.4575 16.5819L14.2471 16.0941L12.5238 13.3045L12.5294 16.5834L13.4575 16.5819ZM3.90805 19.5233L3.11846 20.011L3.7651 21.0578L4.59396 20.1485L3.90805 19.5233ZM4.11864 16.1914L4.84207 16.7728L4.84339 16.7711L4.11864 16.1914ZM4.26596 15.9956L5.03269 16.5185L5.03299 16.5181L4.26596 15.9956ZM4.4117 15.76L5.29853 16.0337L5.57063 15.1519L4.69047 14.8748L4.4117 15.76ZM4.40716 15.7586L3.60644 15.2893L3.01763 16.294L4.12839 16.6438L4.40716 15.7586ZM6.05923 12.7108L6.87651 13.1505L6.87687 13.1499L6.05923 12.7108ZM6.27493 12.5341L6.00921 11.6449L6.00633 11.6458L6.27493 12.5341ZM6.55226 12.5621L6.99399 11.7459L6.99222 11.745L6.55226 12.5621ZM6.77938 13.3205L5.96331 12.8785L5.9621 12.8807L6.77938 13.3205ZM5.83802 15.0699L5.02073 14.6302L5.0202 14.6311L5.83802 15.0699ZM5.88929 15.3845L6.52576 14.709L6.52402 14.7073L5.88929 15.3845ZM11.4507 12.6815L12.2135 12.1526L12.2065 12.1429L11.4507 12.6815ZM11.5255 13.0576L12.4288 13.271L12.4289 13.2702L11.5255 13.0576ZM8.58474 15.6483L9.0725 16.4379L9.07253 16.4379L8.58474 15.6483ZM12.2778 13.3668L11.79 12.5772L11.79 12.5772L12.2778 13.3668ZM12.9702 13.8658L13.8732 14.0801L13.8736 14.0784L12.9702 13.8658ZM9.34516 16.8793L9.83292 17.6689L9.83295 17.6689L9.34516 16.8793ZM12.3196 15.0417L11.8318 14.2521L11.8318 14.2521L12.3196 15.0417ZM13.0462 15.5198L13.9496 15.7324L13.9498 15.7316L13.0462 15.5198ZM10.1055 18.1105L10.5933 18.9001L10.5934 18.9L10.1055 18.1105ZM12.3767 16.7071L11.8889 15.9175L11.8889 15.9176L12.3767 16.7071ZM13.069 17.2056L13.9723 17.4191L13.9725 17.4182L13.069 17.2056ZM12.8618 17.4923L12.374 16.7027L12.374 16.7027L12.8618 17.4923ZM8.25795 20.3365L8.74571 21.126L8.74574 21.126L8.25795 20.3365ZM3.90808 19.5232L4.69767 19.0355L4.05103 17.9887L3.22218 18.898L3.90808 19.5232ZM13.4575 16.5819L14.2471 16.0941C14.0675 15.8034 13.8267 15.5935 13.5781 15.4495L13.1127 16.2525L12.6473 17.0555C12.6591 17.0623 12.6652 17.0675 12.6675 17.0696C12.6694 17.0714 12.669 17.0713 12.6679 17.0697L13.4575 16.5819ZM13.1127 16.2525L13.6005 17.0421L13.6021 17.041L13.1144 16.2514L12.6266 15.4618L12.625 15.4629L13.1127 16.2525ZM13.1144 16.2514L13.6021 17.041C14.0352 16.7735 14.3424 16.3489 14.4591 15.852L13.5556 15.6398L12.6521 15.4276C12.65 15.4367 12.6469 15.4425 12.6439 15.4465C12.641 15.4506 12.636 15.4561 12.6266 15.4618L13.1144 16.2514ZM13.5556 15.6398L14.4588 15.8532C14.576 15.3575 14.4921 14.8409 14.2244 14.4076L13.4348 14.8954L12.6452 15.3831C12.6508 15.3922 12.6529 15.3992 12.6537 15.4043C12.6545 15.4093 12.6547 15.4164 12.6524 15.4264L13.5556 15.6398ZM13.4348 14.8954L14.2244 14.4076C14.0424 14.1131 13.7977 13.9012 13.5444 13.7566L13.0843 14.5626L12.6241 15.3685C12.636 15.3754 12.6422 15.3806 12.6445 15.3827C12.6465 15.3846 12.6461 15.3845 12.6452 15.3831L13.4348 14.8954ZM13.0843 14.5626L13.6173 15.3223C13.9919 15.0595 14.2714 14.669 14.3824 14.2003L13.4793 13.9864L12.5762 13.7725C12.5751 13.7772 12.5736 13.7805 12.5712 13.784C12.5686 13.7877 12.5629 13.7946 12.5512 13.8028L13.0843 14.5626ZM13.4793 13.9864L14.3826 14.1998C14.4997 13.704 14.4158 13.1874 14.148 12.754L13.3584 13.2418L12.5689 13.7296C12.5745 13.7388 12.5766 13.7458 12.5774 13.7509C12.5782 13.7559 12.5785 13.763 12.5761 13.773L13.4793 13.9864ZM13.3584 13.2418L14.148 12.754C13.6095 11.8823 12.4933 11.6055 11.6144 12.0788L12.0545 12.8959L12.4946 13.7131C12.5085 13.7056 12.5237 13.7038 12.539 13.7078C12.5464 13.7097 12.5523 13.7127 12.5566 13.7159C12.5604 13.7186 12.5645 13.7225 12.5689 13.7296L13.3584 13.2418ZM12.0545 12.8959L12.9811 12.8423C12.9614 12.5021 12.854 12.1506 12.6337 11.8404L11.8771 12.3777L11.1204 12.9151C11.1204 12.9151 11.1216 12.9167 11.1232 12.9215C11.1249 12.9266 11.1272 12.9358 11.128 12.9496L12.0545 12.8959ZM11.8771 12.3777L12.633 11.8393C12.034 10.9982 10.8914 10.8161 10.0443 11.3393L10.5321 12.1289L11.0198 12.9185C11.0465 12.902 11.0731 12.899 11.094 12.9029C11.1144 12.9067 11.1198 12.9144 11.1211 12.9161L11.8771 12.3777ZM10.5321 12.1289L10.0443 11.3393L6.27406 13.6684L6.76182 14.458L7.24958 15.2476L11.0198 12.9185L10.5321 12.1289ZM6.76182 14.458L7.57898 14.898L8.05754 14.0092L7.24038 13.5692L6.42322 13.1292L5.94466 14.018L6.76182 14.458ZM7.24038 13.5692L8.05674 14.0107C8.39907 13.3777 8.37465 12.6081 7.99739 11.9974L7.20781 12.4852L6.41822 12.973C6.44813 13.0214 6.44862 13.0822 6.42402 13.1277L7.24038 13.5692ZM7.20781 12.4852L7.99739 11.9974C7.81294 11.6988 7.55307 11.4533 7.24378 11.2855L6.80119 12.1012L6.3586 12.917C6.38388 12.9307 6.40427 12.9504 6.41822 12.973L7.20781 12.4852ZM6.80119 12.1012L7.23965 11.2833C6.81514 11.0557 6.32129 11.0043 5.85721 11.1439L6.12462 12.0327L6.39204 12.9214C6.3889 12.9223 6.38292 12.9233 6.37561 12.9226C6.36836 12.9218 6.36382 12.9198 6.36273 12.9192L6.80119 12.1012ZM6.12462 12.0327L5.85824 11.1436C5.39419 11.2827 5.00893 11.5979 4.78032 12.0239L5.59807 12.4628L6.41583 12.9017C6.41459 12.904 6.4113 12.9088 6.40544 12.9136C6.39957 12.9184 6.39402 12.9208 6.39101 12.9217L6.12462 12.0327ZM5.59807 12.4628L4.80849 12.9506C4.67075 12.5005 4.77376 12.0363 4.77606 12.0319C4.77683 12.0305 4.778 12.0282 4.77837 12.0275C4.77858 12.0271 4.77895 12.0265 4.77908 12.0262C4.77916 12.0261 4.77931 12.0258 4.77935 12.0257C4.77947 12.0255 4.77944 12.0255 4.77911 12.0262C4.77851 12.0273 4.77751 12.0291 4.77606 12.0318C4.77317 12.0372 4.76884 12.0453 4.76311 12.0559C4.75167 12.0772 4.73486 12.1084 4.71338 12.1484C4.67044 12.2282 4.60897 12.3424 4.53489 12.4801C4.38673 12.7554 4.18816 13.1243 3.98657 13.4988C3.58272 14.249 3.16854 15.0182 3.12115 15.1057L3.93708 15.5479L4.75301 15.9902C4.8021 15.8997 5.21845 15.1264 5.621 14.3786C5.82261 14.004 6.02121 13.6351 6.1694 13.3597C6.2435 13.222 6.305 13.1077 6.34799 13.0278C6.36948 12.9879 6.38636 12.9565 6.39788 12.9351C6.40363 12.9244 6.40808 12.9161 6.41112 12.9105C6.41263 12.9077 6.41387 12.9053 6.41478 12.9037C6.4152 12.9029 6.41573 12.9019 6.41623 12.9009C6.41641 12.9006 6.41697 12.8996 6.41764 12.8983C6.41806 12.8975 6.41926 12.8952 6.42005 12.8937C6.42238 12.8893 6.5254 12.4251 6.38766 11.975L5.59807 12.4628ZM3.93708 15.5479L3.16679 15.0302C3.15299 15.0508 3.1082 15.1165 3.06689 15.177L3.83341 15.7003L4.59993 16.2235C4.63917 16.166 4.68883 16.0932 4.70737 16.0656L3.93708 15.5479ZM3.83341 15.7003L3.06688 15.177C3.04899 15.2032 3.02496 15.2348 2.98676 15.2824L3.71033 15.8636L4.4339 16.4448C4.48113 16.386 4.54093 16.31 4.59994 16.2235L3.83341 15.7003ZM3.71033 15.8636L2.98693 15.2822C1.80751 16.7496 1.68424 18.6855 2.67304 20.2861L3.46263 19.7984L4.25221 19.3106C3.67828 18.3815 3.74486 17.3021 4.43373 16.445L3.71033 15.8636ZM3.46263 19.7984L2.67304 20.2861C3.99353 22.4238 6.86492 22.9031 9.0207 21.5714L8.53294 20.7818L8.04518 19.9923C6.6387 20.8611 4.96106 20.4581 4.25221 19.3106L3.46263 19.7984ZM8.53294 20.7818L9.02067 21.5714L13.6247 18.7276L13.1369 17.938L12.6492 17.1484L8.0452 19.9922L8.53294 20.7818ZM13.1369 17.938L13.6247 18.7276C14.0577 18.4601 14.3639 18.0362 14.4815 17.5408L13.5785 17.3265L12.6754 17.1123C12.673 17.1224 12.6696 17.1287 12.6665 17.133C12.6634 17.1373 12.6584 17.1427 12.6492 17.1484L13.1369 17.938ZM13.5785 17.3265L14.4817 17.54C14.5988 17.0441 14.5148 16.5275 14.2471 16.0941L13.4575 16.5819L12.6679 17.0696C12.6737 17.0789 12.6757 17.086 12.6765 17.0911C12.6773 17.0961 12.6776 17.1031 12.6752 17.1131L13.5785 17.3265ZM13.4575 16.5819L12.5294 16.5834L12.5294 16.5835L13.4575 16.5819L14.3856 16.5803L14.3856 16.5803L13.4575 16.5819ZM3.90805 19.5233L4.69763 19.0355C4.23388 18.2848 4.28382 17.4674 4.84207 16.7728L4.11864 16.1914L3.39521 15.61C2.34701 16.9143 2.23941 18.588 3.11846 20.011L3.90805 19.5233ZM4.11864 16.1914L4.84339 16.7711C4.89784 16.7031 4.96605 16.6162 5.03269 16.5185L4.26596 15.9956L3.49924 15.4726C3.47362 15.5101 3.44123 15.5525 3.39388 15.6117L4.11864 16.1914ZM4.26596 15.9956L5.03299 16.5181C5.09175 16.4318 5.14152 16.3592 5.17359 16.3074C5.1935 16.2752 5.22348 16.2245 5.25176 16.1604C5.28042 16.0954 5.29708 16.0384 5.29853 16.0337L4.4117 15.76L3.52488 15.4863C3.5239 15.4895 3.52421 15.4885 3.52472 15.4868C3.52538 15.4848 3.52706 15.4795 3.52948 15.4724C3.53199 15.4651 3.53531 15.4558 3.53946 15.4451C3.54365 15.4342 3.54828 15.423 3.55337 15.4114C3.56372 15.388 3.57361 15.3687 3.58135 15.3546C3.58857 15.3414 3.59388 15.3327 3.59508 15.3308C3.59632 15.3288 3.59561 15.33 3.59153 15.3362C3.58756 15.3423 3.58182 15.3509 3.57342 15.3634C3.56508 15.3758 3.55499 15.3907 3.54249 15.4091C3.53002 15.4274 3.51571 15.4484 3.49894 15.473L4.26596 15.9956ZM4.4117 15.76L4.69047 14.8748L4.68592 14.8733L4.40716 15.7586L4.12839 16.6438L4.13293 16.6452L4.4117 15.76ZM4.40716 15.7586L5.20788 16.2278C5.36471 15.9602 5.75739 15.2302 6.87651 13.1505L6.05923 12.7108L5.24196 12.271C4.10712 14.3798 3.7407 15.0602 3.60644 15.2893L4.40716 15.7586ZM6.05923 12.7108L6.87687 13.1499C6.80672 13.2805 6.68587 13.3795 6.54352 13.4225L6.27493 12.5341L6.00633 11.6458C5.67818 11.745 5.40408 11.9691 5.2416 12.2716L6.05923 12.7108ZM6.27493 12.5341L6.54065 13.4234C6.3999 13.4654 6.24502 13.4508 6.11229 13.3793L6.55226 12.5621L6.99222 11.745C6.6891 11.5818 6.33612 11.5472 6.00921 11.6449L6.27493 12.5341ZM6.55226 12.5621L6.11053 13.3784C6.00338 13.3204 5.94972 13.2328 5.92869 13.1624C5.90773 13.0922 5.90396 12.988 5.96331 12.8785L6.77938 13.3205L7.59546 13.7625C7.98246 13.048 7.70685 12.1317 6.99399 11.7459L6.55226 12.5621ZM6.77938 13.3205L5.9621 12.8807L5.02074 14.6302L5.83802 15.0699L6.65531 15.5097L7.59667 13.7602L6.77938 13.3205ZM5.83802 15.0699L5.0202 14.6311C4.76734 15.1024 4.85785 15.6897 5.25456 16.0616L5.88929 15.3845L6.52402 14.7073C6.7467 14.9161 6.7967 15.2462 6.65584 15.5087L5.83802 15.0699ZM5.88929 15.3845L5.25282 16.0599C5.64513 16.4296 6.23642 16.4889 6.69414 16.2062L6.20638 15.4166L5.71862 14.627C5.97489 14.4687 6.30594 14.5019 6.52576 14.709L5.88929 15.3845ZM6.20638 15.4166L6.69414 16.2062L11.2952 13.3639L10.8074 12.5744L10.3197 11.7848L5.71862 14.627L6.20638 15.4166ZM10.8074 12.5744L11.2952 13.3639C11.2052 13.4195 11.1028 13.4367 11.0064 13.4207C10.9102 13.4046 10.7861 13.3481 10.6948 13.22L11.4507 12.6815L12.2065 12.1429C11.7522 11.5052 10.9025 11.4247 10.3197 11.7848L10.8074 12.5744ZM11.4507 12.6815L10.688 13.2102C10.6254 13.12 10.5892 12.9849 10.6221 12.8449L11.5255 13.0576L12.4289 13.2702C12.5238 12.8672 12.4317 12.4675 12.2134 12.1527L11.4507 12.6815ZM11.5255 13.0576L10.6223 12.8441C10.651 12.7229 10.7279 12.6178 10.8308 12.5542L11.3186 13.3438L11.8064 14.1334C12.12 13.9397 12.3436 13.6314 12.4288 13.271L11.5255 13.0576ZM11.3186 13.3438L10.8308 12.5542L7.8217 14.4131L8.30946 15.2027L8.79722 15.9923L11.8064 14.1334L11.3186 13.3438ZM8.30946 15.2027L7.8217 14.4131C7.26257 14.7585 7.0893 15.4918 7.4347 16.0509L8.22429 15.5632L9.01387 15.0754C9.20724 15.3884 9.11024 15.7989 8.79722 15.9923L8.30946 15.2027ZM8.22429 15.5632L7.4347 16.0509C7.7799 16.6097 8.51291 16.7836 9.0725 16.4379L8.58474 15.6483L8.09698 14.8587C8.41018 14.6653 8.8207 14.7627 9.01387 15.0754L8.22429 15.5632ZM8.58474 15.6483L9.07253 16.4379L12.7656 14.1564L12.2778 13.3668L11.79 12.5772L8.09695 14.8588L8.58474 15.6483ZM12.2778 13.3668L12.7655 14.1564C12.546 14.292 12.2592 14.2242 12.1235 14.0047L12.9131 13.5169L13.7027 13.0292C13.2996 12.3766 12.4426 12.1741 11.79 12.5772L12.2778 13.3668ZM12.9131 13.5169L12.1235 14.0047C12.0601 13.9019 12.0383 13.7742 12.0668 13.6533L12.9702 13.8658L13.8736 14.0784C13.9584 13.718 13.8962 13.3423 13.7027 13.0292L12.9131 13.5169ZM12.9702 13.8658L12.0672 13.6516C12.0959 13.5307 12.1725 13.4262 12.2752 13.3627L12.763 14.1523L13.2507 14.9419C13.5639 14.7484 13.7877 14.4404 13.8732 14.0801L12.9702 13.8658ZM12.763 14.1523L12.2752 13.3627L8.58212 15.6441L9.06988 16.4337L9.55764 17.2233L13.2507 14.9419L12.763 14.1523ZM9.06988 16.4337L8.58212 15.6441C8.02331 15.9893 7.84943 16.7223 8.19512 17.2819L8.9847 16.7941L9.77429 16.3064C9.96777 16.6196 9.87033 17.0301 9.55764 17.2233L9.06988 16.4337ZM8.9847 16.7941L8.19512 17.2819C8.54032 17.8407 9.27332 18.0146 9.83292 17.6689L9.34516 16.8793L8.8574 16.0897C9.1706 15.8962 9.58112 15.9937 9.77429 16.3064L8.9847 16.7941ZM9.34516 16.8793L9.83295 17.6689L12.8074 15.8312L12.3196 15.0417L11.8318 14.2521L8.85736 16.0897L9.34516 16.8793ZM12.3196 15.0417L12.8074 15.8313L12.842 15.8099L12.3542 15.0203L11.8664 14.2307L11.8318 14.2521L12.3196 15.0417ZM12.3542 15.0203L12.842 15.8099C12.6219 15.9458 12.3352 15.8774 12.1999 15.6584L12.9895 15.1707L13.7791 14.6829C13.3761 14.0305 12.5193 13.8274 11.8664 14.2307L12.3542 15.0203ZM12.9895 15.1707L12.1999 15.6584C12.1351 15.5535 12.115 15.4256 12.1425 15.3081L13.0462 15.5198L13.9498 15.7316C14.0337 15.3734 13.9737 14.9979 13.7791 14.6829L12.9895 15.1707ZM13.0462 15.5198L12.1427 15.3072C12.1715 15.1852 12.2488 15.0799 12.3516 15.0164L12.8394 15.806L13.3271 16.5956C13.6406 16.402 13.8646 16.0936 13.9496 15.7324L13.0462 15.5198ZM12.8394 15.806L12.3516 15.0164L9.34247 16.8753L9.83023 17.6649L10.318 18.4545L13.3271 16.5956L12.8394 15.806ZM9.83023 17.6649L9.34247 16.8753C8.78365 17.2205 8.60979 17.9535 8.95547 18.5131L9.74506 18.0253L10.5346 17.5376C10.7281 17.8508 10.6307 18.2613 10.318 18.4545L9.83023 17.6649ZM9.74506 18.0253L8.95547 18.5131C9.30067 19.0719 10.0337 19.2458 10.5933 18.9001L10.1055 18.1105L9.61775 17.3209C9.93095 17.1274 10.3415 17.2249 10.5346 17.5376L9.74506 18.0253ZM10.1055 18.1105L10.5934 18.9L12.8646 17.4966L12.3767 16.7071L11.8889 15.9176L9.61765 17.321L10.1055 18.1105ZM12.3767 16.7071L12.8645 17.4967C12.6454 17.632 12.3585 17.5648 12.2225 17.3448L13.0121 16.857L13.8017 16.3692C13.3984 15.7164 12.5413 15.5145 11.8889 15.9175L12.3767 16.7071ZM13.0121 16.857L12.2225 17.3448C12.1585 17.2412 12.1374 17.1131 12.1656 16.9931L13.069 17.2056L13.9725 17.4182C14.057 17.0591 13.9958 16.6835 13.8017 16.3692L13.0121 16.857ZM13.069 17.2056L12.1658 16.9922C12.1946 16.8706 12.2717 16.7659 12.374 16.7027L12.8618 17.4923L13.3495 18.2819C13.6622 18.0887 13.8868 17.7808 13.9723 17.4191L13.069 17.2056ZM12.8618 17.4923L12.374 16.7027L7.77017 19.5469L8.25795 20.3365L8.74574 21.126L13.3495 18.2819L12.8618 17.4923ZM8.25795 20.3365L7.77019 19.5469C6.59892 20.2704 5.24889 19.9278 4.69767 19.0355L3.90808 19.5232L3.1185 20.011C4.29328 21.9127 6.8462 22.2995 8.74571 21.126L8.25795 20.3365ZM3.90808 19.5232L3.22218 18.898L3.22214 18.898L3.90805 19.5233L4.59396 20.1485L4.59399 20.1484L3.90808 19.5232Z" fill="#4CAF4F" mask="url(#path-3-inside-2_211_2339)"/>
<mask id="path-5-inside-3_211_2339" fill="white">
<path d="M24.8818 19.8225C24.3985 20.6285 23.6037 21.1802 22.6435 21.3764C21.6919 21.5704 20.691 21.3914 19.8248 20.8721L15.1841 18.0882C14.9583 17.9527 14.7985 17.7375 14.7346 17.482C14.6711 17.227 14.7108 16.9622 14.8461 16.7365C14.9306 16.5955 15.049 16.4843 15.1862 16.4021L15.1849 16.4013C14.9591 16.2658 14.7994 16.0507 14.7357 15.7955C14.6718 15.5403 14.7115 15.2753 14.8469 15.0494C14.9342 14.9042 15.0537 14.7907 15.1902 14.7102C14.9921 14.5739 14.8494 14.376 14.7907 14.1412C14.7267 13.8858 14.7664 13.621 14.9019 13.3953C15.0372 13.1695 15.2525 13.0099 15.5077 12.9461C15.5874 12.9261 15.6682 12.9163 15.7482 12.9163C15.9054 12.9164 16.0595 12.9563 16.2012 13.0304C16.2099 12.8469 16.2645 12.6667 16.3717 12.512C16.6658 12.0878 17.2548 11.9704 17.7137 12.2457L21.5139 14.5252L21.0241 13.6429C20.8361 13.3061 20.843 12.8905 21.0423 12.5583C21.1394 12.3966 21.2781 12.2623 21.4439 12.1693C21.5802 12.0938 21.7278 12.0581 21.8734 12.0581C22.1861 12.0583 22.4898 12.2232 22.6515 12.5153C23.215 13.5306 24.2783 15.4454 24.3531 15.579C24.369 15.6022 24.417 15.671 24.4582 15.7296C24.4974 15.7852 24.5397 15.8383 24.5835 15.8911C25.5324 17.0413 25.6468 18.5476 24.8818 19.8225L24.8818 19.8225ZM24.1795 16.2249C24.1273 16.1617 24.0762 16.0973 24.0296 16.0309C23.8879 15.8298 23.8843 15.8246 23.8736 15.7719C23.708 15.4979 23.3039 14.7704 22.1932 12.7694C22.0958 12.5937 21.8744 12.5296 21.6981 12.627C21.6114 12.6756 21.5417 12.7433 21.4908 12.8281C21.3878 12.9998 21.3839 13.2143 21.4811 13.3884L22.4451 15.1253C22.5027 15.2289 22.4835 15.3582 22.3984 15.4405C22.3134 15.523 22.1835 15.5374 22.0815 15.4767L17.4442 12.6947C17.2256 12.5637 16.9375 12.615 16.8023 12.8102C16.7246 12.9224 16.6998 13.0562 16.7323 13.1869C16.7621 13.3063 16.8371 13.407 16.9432 13.4706C16.9435 13.4708 16.9437 13.4711 16.944 13.4712L19.9761 15.2902C20.1001 15.3647 20.1402 15.5254 20.0658 15.6496C19.9913 15.7734 19.8308 15.8139 19.7065 15.7393L15.984 13.5062C15.8784 13.4429 15.7541 13.4242 15.6347 13.4542C15.515 13.484 15.4143 13.5588 15.3508 13.6649C15.2872 13.7707 15.2688 13.8948 15.2984 14.0142C15.3282 14.1336 15.4031 14.2345 15.5091 14.2981L16.2334 14.7325L19.2314 16.5312C19.3554 16.6057 19.3955 16.7664 19.3211 16.8905C19.2466 17.0143 19.0861 17.0547 18.9618 16.9802L15.9291 15.1607C15.711 15.0295 15.4269 15.1007 15.2957 15.3191C15.2321 15.4251 15.2137 15.5492 15.2433 15.6686C15.2731 15.788 15.348 15.8887 15.4542 15.9525L16.1977 16.3985L18.4869 17.772C18.6108 17.8464 18.651 18.0071 18.5766 18.1313C18.5021 18.2551 18.3416 18.2958 18.2172 18.221L15.9281 16.8475C15.8225 16.7842 15.6987 16.7655 15.5786 16.7956C15.4592 16.8254 15.3582 16.9002 15.2948 17.006C15.2313 17.1119 15.2128 17.2362 15.2423 17.3554C15.2721 17.4748 15.3471 17.5755 15.4532 17.6393L20.0939 20.4232C20.8469 20.875 21.7154 21.0314 22.5384 20.8635C23.3527 20.6972 24.0254 20.232 24.4325 19.5534C25.0902 18.4576 24.9956 17.2132 24.1798 16.2248L24.1795 16.2249Z"/>
</mask>
<path d="M24.8818 19.8225C24.3985 20.6285 23.6037 21.1802 22.6435 21.3764C21.6919 21.5704 20.691 21.3914 19.8248 20.8721L15.1841 18.0882C14.9583 17.9527 14.7985 17.7375 14.7346 17.482C14.6711 17.227 14.7108 16.9622 14.8461 16.7365C14.9306 16.5955 15.049 16.4843 15.1862 16.4021L15.1849 16.4013C14.9591 16.2658 14.7994 16.0507 14.7357 15.7955C14.6718 15.5403 14.7115 15.2753 14.8469 15.0494C14.9342 14.9042 15.0537 14.7907 15.1902 14.7102C14.9921 14.5739 14.8494 14.376 14.7907 14.1412C14.7267 13.8858 14.7664 13.621 14.9019 13.3953C15.0372 13.1695 15.2525 13.0099 15.5077 12.9461C15.5874 12.9261 15.6682 12.9163 15.7482 12.9163C15.9054 12.9164 16.0595 12.9563 16.2012 13.0304C16.2099 12.8469 16.2645 12.6667 16.3717 12.512C16.6658 12.0878 17.2548 11.9704 17.7137 12.2457L21.5139 14.5252L21.0241 13.6429C20.8361 13.3061 20.843 12.8905 21.0423 12.5583C21.1394 12.3966 21.2781 12.2623 21.4439 12.1693C21.5802 12.0938 21.7278 12.0581 21.8734 12.0581C22.1861 12.0583 22.4898 12.2232 22.6515 12.5153C23.215 13.5306 24.2783 15.4454 24.3531 15.579C24.369 15.6022 24.417 15.671 24.4582 15.7296C24.4974 15.7852 24.5397 15.8383 24.5835 15.8911C25.5324 17.0413 25.6468 18.5476 24.8818 19.8225L24.8818 19.8225ZM24.1795 16.2249C24.1273 16.1617 24.0762 16.0973 24.0296 16.0309C23.8879 15.8298 23.8843 15.8246 23.8736 15.7719C23.708 15.4979 23.3039 14.7704 22.1932 12.7694C22.0958 12.5937 21.8744 12.5296 21.6981 12.627C21.6114 12.6756 21.5417 12.7433 21.4908 12.8281C21.3878 12.9998 21.3839 13.2143 21.4811 13.3884L22.4451 15.1253C22.5027 15.2289 22.4835 15.3582 22.3984 15.4405C22.3134 15.523 22.1835 15.5374 22.0815 15.4767L17.4442 12.6947C17.2256 12.5637 16.9375 12.615 16.8023 12.8102C16.7246 12.9224 16.6998 13.0562 16.7323 13.1869C16.7621 13.3063 16.8371 13.407 16.9432 13.4706C16.9435 13.4708 16.9437 13.4711 16.944 13.4712L19.9761 15.2902C20.1001 15.3647 20.1402 15.5254 20.0658 15.6496C19.9913 15.7734 19.8308 15.8139 19.7065 15.7393L15.984 13.5062C15.8784 13.4429 15.7541 13.4242 15.6347 13.4542C15.515 13.484 15.4143 13.5588 15.3508 13.6649C15.2872 13.7707 15.2688 13.8948 15.2984 14.0142C15.3282 14.1336 15.4031 14.2345 15.5091 14.2981L16.2334 14.7325L19.2314 16.5312C19.3554 16.6057 19.3955 16.7664 19.3211 16.8905C19.2466 17.0143 19.0861 17.0547 18.9618 16.9802L15.9291 15.1607C15.711 15.0295 15.4269 15.1007 15.2957 15.3191C15.2321 15.4251 15.2137 15.5492 15.2433 15.6686C15.2731 15.788 15.348 15.8887 15.4542 15.9525L16.1977 16.3985L18.4869 17.772C18.6108 17.8464 18.651 18.0071 18.5766 18.1313C18.5021 18.2551 18.3416 18.2958 18.2172 18.221L15.9281 16.8475C15.8225 16.7842 15.6987 16.7655 15.5786 16.7956C15.4592 16.8254 15.3582 16.9002 15.2948 17.006C15.2313 17.1119 15.2128 17.2362 15.2423 17.3554C15.2721 17.4748 15.3471 17.5755 15.4532 17.6393L20.0939 20.4232C20.8469 20.875 21.7154 21.0314 22.5384 20.8635C23.3527 20.6972 24.0254 20.232 24.4325 19.5534C25.0902 18.4576 24.9956 17.2132 24.1798 16.2248L24.1795 16.2249Z" fill="#4CAF4F"/>
<path d="M24.8818 19.8225L24.5883 18.9421L26.9674 18.149L25.6778 20.2998L24.8818 19.8225ZM22.6435 21.3764L22.8293 22.2857L22.8289 22.2857L22.6435 21.3764ZM19.8248 20.8721L19.3475 21.668L19.3474 21.6679L19.8248 20.8721ZM15.1841 18.0882L15.6615 17.2923L15.6615 17.2923L15.1841 18.0882ZM14.7346 17.482L13.8343 17.7074L13.834 17.7062L14.7346 17.482ZM14.8461 16.7365L15.6423 17.2133L15.6421 17.2137L14.8461 16.7365ZM15.1862 16.4021L15.678 15.615L16.965 16.4191L15.6629 17.1985L15.1862 16.4021ZM15.1849 16.4013L15.6623 15.6054L15.6695 15.6097L15.6767 15.6142L15.1849 16.4013ZM14.7357 15.7955L15.636 15.5699L15.6363 15.571L14.7357 15.7955ZM14.8469 15.0494L14.0509 14.5721L14.0515 14.5712L14.8469 15.0494ZM15.1902 14.7102L15.7162 13.9456L16.9148 14.7701L15.6618 15.5095L15.1902 14.7102ZM14.7907 14.1412L15.691 13.9157L15.6911 13.9161L14.7907 14.1412ZM14.9019 13.3953L15.698 13.8723L15.6976 13.873L14.9019 13.3953ZM15.5077 12.9461L15.7336 13.8463L15.7327 13.8465L15.5077 12.9461ZM15.7482 12.9163L15.7482 11.9882L15.7492 11.9882L15.7482 12.9163ZM16.2012 13.0304L17.1282 13.0743L17.0594 14.5269L15.771 13.8528L16.2012 13.0304ZM16.3717 12.512L17.1345 13.0407L17.1344 13.0409L16.3717 12.512ZM17.7137 12.2457L17.2363 13.0416L17.2362 13.0415L17.7137 12.2457ZM21.5139 14.5252L22.3253 14.0747L24.0064 17.1025L21.0365 15.3211L21.5139 14.5252ZM21.0241 13.6429L21.8345 13.1907L21.8355 13.1924L21.0241 13.6429ZM21.0423 12.5583L20.2463 12.0809L20.2466 12.0805L21.0423 12.5583ZM21.4439 12.1693L20.9899 11.3598L20.9944 11.3573L21.4439 12.1693ZM21.8734 12.0581L21.8734 11.13L21.8739 11.13L21.8734 12.0581ZM22.6515 12.5153L21.84 12.9657L21.8395 12.9648L22.6515 12.5153ZM24.3531 15.579L23.5885 16.1051L23.5641 16.0696L23.5431 16.0321L24.3531 15.579ZM24.4582 15.7296L23.6997 16.2644L23.699 16.2634L24.4582 15.7296ZM24.5835 15.8911L25.2979 15.2987L25.2994 15.3005L24.5835 15.8911ZM24.8818 19.8225L25.1753 20.703L22.795 21.4964L24.086 19.345L24.8818 19.8225ZM24.1795 16.2249L24.2706 17.1485L23.7787 17.197L23.4639 16.8159L24.1795 16.2249ZM24.0296 16.0309L24.7882 15.4962L24.7894 15.498L24.0296 16.0309ZM23.8736 15.7719L24.6679 15.2918L24.7513 15.4298L24.7832 15.5877L23.8736 15.7719ZM22.1932 12.7694L21.3817 13.2198L21.3816 13.2195L22.1932 12.7694ZM21.6981 12.627L21.2449 11.8171L21.2492 11.8147L21.6981 12.627ZM21.4908 12.8281L22.2868 13.3053L22.2867 13.3055L21.4908 12.8281ZM21.4811 13.3884L22.2915 12.936L22.2926 12.9381L21.4811 13.3884ZM22.4451 15.1253L21.6337 15.5759L21.6336 15.5757L22.4451 15.1253ZM22.3984 15.4405L21.7518 14.7746L21.7531 14.7734L22.3984 15.4405ZM22.0815 15.4767L21.607 16.2744L21.6041 16.2726L22.0815 15.4767ZM17.4442 12.6947L17.9213 11.8987L17.9216 11.8989L17.4442 12.6947ZM16.8023 12.8102L17.5653 13.3386L17.5651 13.3388L16.8023 12.8102ZM16.7323 13.1869L15.8319 13.412L15.8316 13.4106L16.7323 13.1869ZM16.9432 13.4706L16.528 14.3007L16.4963 14.2848L16.4659 14.2665L16.9432 13.4706ZM16.944 13.4712L17.3591 12.6412L17.391 12.6571L17.4215 12.6754L16.944 13.4712ZM19.9761 15.2902L20.4535 14.4944L20.4539 14.4946L19.9761 15.2902ZM20.0658 15.6496L20.8617 16.1269L20.8612 16.1278L20.0658 15.6496ZM19.7065 15.7393L20.1839 14.9434L20.1841 14.9435L19.7065 15.7393ZM15.984 13.5062L16.4611 12.7101L16.4614 12.7103L15.984 13.5062ZM15.6347 13.4542L15.861 14.3543L15.8592 14.3547L15.6347 13.4542ZM15.3508 13.6649L16.1473 14.1413L16.1461 14.1433L15.3508 13.6649ZM15.2984 14.0142L14.398 14.2393L14.3974 14.237L15.2984 14.0142ZM15.5091 14.2981L15.0317 15.094L15.0312 15.0937L15.5091 14.2981ZM16.2334 14.7325L16.7108 13.9366L16.7109 13.9367L16.2334 14.7325ZM19.2314 16.5312L19.7089 15.7354L19.7092 15.7356L19.2314 16.5312ZM19.3211 16.8905L20.117 17.3679L20.1165 17.3688L19.3211 16.8905ZM18.9618 16.9802L18.4849 17.7764L18.4843 17.7761L18.9618 16.9802ZM15.9291 15.1607L15.4516 15.9566L15.4507 15.956L15.9291 15.1607ZM15.2957 15.3191L16.0914 15.797L16.0914 15.797L15.2957 15.3191ZM15.2433 15.6686L14.3429 15.8937L14.3423 15.8914L15.2433 15.6686ZM15.4542 15.9525L14.9767 16.7483L14.9759 16.7479L15.4542 15.9525ZM16.1977 16.3985L16.6751 15.6027L16.6752 15.6027L16.1977 16.3985ZM18.4869 17.772L18.9643 16.9761L18.9647 16.9763L18.4869 17.772ZM18.5766 18.1313L19.3725 18.6086L19.3719 18.6096L18.5766 18.1313ZM18.2172 18.221L18.6947 17.4251L18.6957 17.4257L18.2172 18.221ZM15.9281 16.8475L16.4052 16.0515L16.4056 16.0517L15.9281 16.8475ZM15.5786 16.7956L15.3535 15.8952L15.3535 15.8952L15.5786 16.7956ZM15.2948 17.006L14.4986 16.529L14.4989 16.5285L15.2948 17.006ZM15.2423 17.3554L14.3419 17.5805L14.3414 17.5785L15.2423 17.3554ZM15.4532 17.6393L14.9757 18.4352L14.9749 18.4347L15.4532 17.6393ZM20.0939 20.4232L20.5713 19.6273L20.5713 19.6274L20.0939 20.4232ZM22.5384 20.8635L22.724 21.7729L22.7239 21.7729L22.5384 20.8635ZM24.4325 19.5534L23.6366 19.076L23.6367 19.0757L24.4325 19.5534ZM24.1798 16.2248L24.0886 15.3012L24.5807 15.2527L24.8955 15.634L24.1798 16.2248ZM24.8818 19.8225L25.6778 20.2998C25.0543 21.3397 24.032 22.04 22.8293 22.2857L22.6435 21.3764L22.4578 20.467C23.1754 20.3205 23.7428 19.9174 24.0859 19.3452L24.8818 19.8225ZM22.6435 21.3764L22.8289 22.2857C21.6403 22.5281 20.4041 22.3015 19.3475 21.668L19.8248 20.8721L20.302 20.0761C20.9779 20.4813 21.7434 20.6127 22.4581 20.467L22.6435 21.3764ZM19.8248 20.8721L19.3474 21.6679L14.7067 18.884L15.1841 18.0882L15.6615 17.2923L20.3022 20.0762L19.8248 20.8721ZM15.1841 18.0882L14.7067 18.884C14.2702 18.6222 13.9581 18.2021 13.8343 17.7074L14.7346 17.482L15.6349 17.2567C15.6374 17.2667 15.6409 17.273 15.644 17.2772C15.6472 17.2814 15.6523 17.2867 15.6615 17.2923L15.1841 18.0882ZM14.7346 17.482L13.834 17.7062C13.711 17.2121 13.7888 16.6951 14.0501 16.2593L14.8461 16.7365L15.6421 17.2137C15.6365 17.223 15.6345 17.2303 15.6337 17.2356C15.6329 17.2409 15.6328 17.2481 15.6352 17.2579L14.7346 17.482ZM14.8461 16.7365L14.0499 16.2597C14.2219 15.9723 14.4571 15.7569 14.7096 15.6058L15.1862 16.4021L15.6629 17.1985C15.6516 17.2052 15.6456 17.2105 15.6431 17.2128C15.641 17.215 15.6413 17.2151 15.6423 17.2133L14.8461 16.7365ZM15.1862 16.4021L14.6945 17.1892L14.6931 17.1884L15.1849 16.4013L15.6767 15.6142L15.678 15.615L15.1862 16.4021ZM15.1849 16.4013L14.7075 17.1972C14.2713 16.9355 13.9587 16.5152 13.8352 16.02L14.7357 15.7955L15.6363 15.571C15.6386 15.5804 15.6419 15.5863 15.6449 15.5904C15.648 15.5945 15.6531 15.5999 15.6623 15.6054L15.1849 16.4013ZM14.7357 15.7955L13.8355 16.0211C13.7114 15.526 13.7895 15.0083 14.0509 14.5721L14.8469 15.0494L15.6429 15.5266C15.6373 15.536 15.6353 15.5433 15.6345 15.5484C15.6337 15.5535 15.6336 15.5604 15.636 15.5699L14.7357 15.7955ZM14.8469 15.0494L14.0515 14.5712C14.2228 14.2862 14.457 14.0653 14.7185 13.9109L15.1902 14.7102L15.6618 15.5095C15.6558 15.5131 15.6517 15.5164 15.649 15.5191C15.6465 15.5216 15.6444 15.5242 15.6424 15.5275L14.8469 15.0494ZM15.1902 14.7102L14.6642 15.4749C14.2893 15.217 14.0066 14.8316 13.8903 14.3662L14.7907 14.1412L15.6911 13.9161C15.6922 13.9204 15.6936 13.9236 15.696 13.9269C15.6986 13.9306 15.7044 13.9375 15.7162 13.9456L15.1902 14.7102ZM14.7907 14.1412L13.8904 14.3667C13.7664 13.8716 13.8443 13.3538 14.1061 12.9176L14.9019 13.3953L15.6976 13.873C15.6921 13.8821 15.6902 13.8891 15.6894 13.8941C15.6887 13.8991 15.6885 13.9059 15.691 13.9157L14.7907 14.1412ZM14.9019 13.3953L14.1057 12.9183C14.3677 12.4811 14.7885 12.1693 15.2826 12.0457L15.5077 12.9461L15.7327 13.8465C15.7228 13.849 15.7166 13.8525 15.7125 13.8555C15.7084 13.8586 15.7033 13.8635 15.698 13.8723L14.9019 13.3953ZM15.5077 12.9461L15.2817 12.046C15.4354 12.0074 15.5922 11.9882 15.7482 11.9882V12.9163V13.8444C15.7442 13.8444 15.7393 13.8449 15.7336 13.8463L15.5077 12.9461ZM15.7482 12.9163L15.7492 11.9882C16.0645 11.9885 16.3651 12.0688 16.6314 12.2081L16.2012 13.0304L15.771 13.8528C15.7621 13.8482 15.7558 13.8461 15.7523 13.8452C15.7489 13.8444 15.7474 13.8444 15.7473 13.8444L15.7482 12.9163ZM16.2012 13.0304L15.2741 12.9865C15.2901 12.649 15.3919 12.2964 15.6091 11.9831L16.3717 12.512L17.1344 13.0409C17.1371 13.037 17.1296 13.0448 17.1282 13.0743L16.2012 13.0304ZM16.3717 12.512L15.609 11.9833C16.1968 11.1352 17.3365 10.937 18.1912 11.4499L17.7137 12.2457L17.2362 13.0415C17.2091 13.0253 17.1826 13.0227 17.1618 13.0268C17.1415 13.0309 17.1359 13.0387 17.1345 13.0407L16.3717 12.512ZM17.7137 12.2457L18.1911 11.4498L21.9913 13.7293L21.5139 14.5252L21.0365 15.3211L17.2363 13.0416L17.7137 12.2457ZM21.5139 14.5252L20.7025 14.9757L20.2126 14.0934L21.0241 13.6429L21.8355 13.1924L22.3253 14.0747L21.5139 14.5252ZM21.0241 13.6429L20.2136 14.0951C19.863 13.4668 19.877 12.6968 20.2463 12.0809L21.0423 12.5583L21.8382 13.0356C21.809 13.0843 21.8092 13.1453 21.8345 13.1907L21.0241 13.6429ZM21.0423 12.5583L20.2466 12.0805C20.4276 11.7791 20.6847 11.531 20.9899 11.3598L21.4439 12.1693L21.8979 12.9788C21.8715 12.9935 21.8511 13.0141 21.838 13.036L21.0423 12.5583ZM21.4439 12.1693L20.9944 11.3573C21.2721 11.2036 21.575 11.13 21.8734 11.13V12.0581V12.9862C21.8766 12.9862 21.8802 12.9858 21.8841 12.9848C21.8882 12.9838 21.8914 12.9824 21.8934 12.9813L21.4439 12.1693ZM21.8734 12.0581L21.8739 11.13C22.5081 11.1303 23.1309 11.4649 23.4635 12.0659L22.6515 12.5153L21.8395 12.9648C21.841 12.9674 21.8434 12.9709 21.8468 12.9743C21.8501 12.9776 21.8534 12.9801 21.8564 12.9818C21.8616 12.9848 21.8669 12.9862 21.8729 12.9862L21.8734 12.0581ZM22.6515 12.5153L23.463 12.0649C24.0272 13.0814 25.0893 14.9941 25.1631 15.126L24.3531 15.579L23.5431 16.0321C23.4673 15.8967 22.4028 13.9798 21.84 12.9657L22.6515 12.5153ZM24.3531 15.579L25.1177 15.053C25.1308 15.0721 25.1766 15.1378 25.2174 15.1958L24.4582 15.7296L23.699 16.2634C23.6574 16.2043 23.6072 16.1323 23.5885 16.1051L24.3531 15.579ZM24.4582 15.7296L25.2167 15.1948C25.2359 15.222 25.261 15.2541 25.2979 15.2987L24.5835 15.8911L23.869 16.4835C23.8184 16.4225 23.7589 16.3483 23.6997 16.2644L24.4582 15.7296ZM24.5835 15.8911L25.2994 15.3005C26.4974 16.7527 26.6457 18.6867 25.6776 20.3001L24.8818 19.8225L24.086 19.345C24.6479 18.4086 24.5674 17.33 23.8676 16.4817L24.5835 15.8911ZM24.8818 19.8225L24.5883 18.9421L24.5883 18.9421L24.8818 19.8225L25.1753 20.703L25.1753 20.703L24.8818 19.8225ZM24.1795 16.2249L23.4639 16.8159C23.4052 16.7449 23.3366 16.6591 23.2697 16.5637L24.0296 16.0309L24.7894 15.498C24.8157 15.5355 24.8494 15.5786 24.895 15.6338L24.1795 16.2249ZM24.0296 16.0309L23.2709 16.5655C23.2125 16.4826 23.1497 16.3946 23.108 16.3256C23.0801 16.2794 23.0428 16.212 23.0113 16.1261C22.9806 16.0425 22.967 15.9709 22.964 15.9561L23.8736 15.7719L24.7832 15.5877C24.7856 15.5993 24.7764 15.548 24.7538 15.4865C24.7304 15.4227 24.7048 15.379 24.6969 15.3659C24.6931 15.3597 24.6917 15.3576 24.6946 15.362C24.6974 15.3662 24.7023 15.3736 24.7107 15.3856C24.728 15.4107 24.7518 15.4445 24.7882 15.4962L24.0296 16.0309ZM23.8736 15.7719L23.0793 16.252C22.902 15.9586 22.4847 15.2069 21.3817 13.2198L22.1932 12.7694L23.0047 12.3189C24.1232 14.334 24.5139 15.0371 24.6679 15.2918L23.8736 15.7719ZM22.1932 12.7694L21.3816 13.2195C21.5319 13.4905 21.874 13.5902 22.147 13.4393L21.6981 12.627L21.2492 11.8147C21.8748 11.469 22.6597 11.697 23.0048 12.3192L22.1932 12.7694ZM21.6981 12.627L22.1513 13.4369C22.2058 13.4064 22.2543 13.3595 22.2868 13.3053L21.4908 12.8281L20.6948 12.3508C20.829 12.1271 21.0169 11.9447 21.2449 11.8171L21.6981 12.627ZM21.4908 12.8281L22.2867 13.3055C22.3532 13.1947 22.3577 13.0545 22.2915 12.936L21.4811 13.3884L20.6708 13.8409C20.4101 13.374 20.4225 12.8049 20.6949 12.3507L21.4908 12.8281ZM21.4811 13.3884L22.2926 12.9381L23.2566 14.6749L22.4451 15.1253L21.6336 15.5757L20.6697 13.8388L21.4811 13.3884ZM22.4451 15.1253L23.2565 14.6747C23.5178 15.1452 23.431 15.7329 23.0436 16.1076L22.3984 15.4405L21.7531 14.7734C21.536 14.9834 21.4876 15.3127 21.6337 15.5759L22.4451 15.1253ZM22.3984 15.4405L23.0449 16.1063C22.6545 16.4854 22.0641 16.5462 21.607 16.2744L22.0815 15.4767L22.556 14.6791C22.303 14.5286 21.9724 14.5605 21.7518 14.7746L22.3984 15.4405ZM22.0815 15.4767L21.6041 16.2726L16.9667 13.4906L17.4442 12.6947L17.9216 11.8989L22.559 14.6809L22.0815 15.4767ZM17.4442 12.6947L16.967 13.4908C17.0576 13.545 17.1598 13.5609 17.2558 13.5437C17.3517 13.5265 17.4755 13.4683 17.5653 13.3386L16.8023 12.8102L16.0393 12.2818C16.4861 11.6367 17.3354 11.5475 17.9213 11.8987L17.4442 12.6947ZM16.8023 12.8102L17.5651 13.3388C17.6376 13.2343 17.6656 13.0944 17.633 12.9631L16.7323 13.1869L15.8316 13.4106C15.734 13.0179 15.8116 12.6104 16.0395 12.2816L16.8023 12.8102ZM16.7323 13.1869L17.6327 12.9618C17.6023 12.8402 17.5237 12.7365 17.4205 12.6746L16.9432 13.4706L16.4659 14.2665C16.1505 14.0774 15.922 13.7723 15.8319 13.412L16.7323 13.1869ZM16.9432 13.4706L17.3583 12.6405C17.4422 12.6825 17.5039 12.7293 17.543 12.7623C17.5622 12.7786 17.5771 12.7925 17.5861 12.8011C17.5906 12.8055 17.5943 12.8091 17.5965 12.8113C17.5976 12.8124 17.5985 12.8133 17.5991 12.8139C17.5994 12.8142 17.5996 12.8144 17.5997 12.8145C17.5998 12.8146 17.5999 12.8147 17.5999 12.8147C17.5999 12.8147 17.5999 12.8147 17.5999 12.8147C17.5999 12.8147 17.5999 12.8147 17.5999 12.8147C17.6 12.8148 17.6 12.8148 17.6 12.8148C17.6003 12.8151 17.5986 12.8134 17.5966 12.8114C17.5944 12.8092 17.5908 12.8057 17.5862 12.8013C17.5773 12.7928 17.5625 12.7789 17.5434 12.7627C17.5045 12.7297 17.4429 12.6831 17.3591 12.6412L16.944 13.4712L16.5289 14.3013C16.445 14.2594 16.3832 14.2126 16.3442 14.1795C16.325 14.1632 16.3101 14.1493 16.3011 14.1407C16.2966 14.1363 16.2929 14.1327 16.2907 14.1305C16.2896 14.1294 16.2887 14.1285 16.2881 14.128C16.2878 14.1277 16.2876 14.1274 16.2875 14.1273C16.2874 14.1272 16.2873 14.1272 16.2873 14.1271C16.2873 14.1271 16.2873 14.1271 16.2873 14.1271C16.2872 14.1271 16.2872 14.1271 16.2872 14.1271C16.2872 14.1271 16.2872 14.1271 16.2872 14.1271C16.2869 14.1268 16.2886 14.1285 16.2906 14.1304C16.2928 14.1326 16.2964 14.1362 16.301 14.1405C16.3099 14.1491 16.3247 14.1629 16.3438 14.1791C16.3827 14.2121 16.4443 14.2588 16.528 14.3007L16.9432 13.4706ZM16.944 13.4712L17.4215 12.6754L20.4535 14.4944L19.9761 15.2902L19.4986 16.0861L16.4666 14.2671L16.944 13.4712ZM19.9761 15.2902L20.4539 14.4946C21.0173 14.8329 21.1996 15.5635 20.8617 16.1269L20.0658 15.6496L19.2699 15.1722C19.0809 15.4873 19.1828 15.8965 19.4983 16.0859L19.9761 15.2902ZM20.0658 15.6496L20.8612 16.1278C20.5236 16.6891 19.7939 16.8742 19.2288 16.535L19.7065 15.7393L20.1841 14.9435C19.8677 14.7535 19.459 14.8576 19.2704 15.1713L20.0658 15.6496ZM19.7065 15.7393L19.229 16.5351L15.5066 14.3021L15.984 13.5062L16.4614 12.7103L20.1839 14.9434L19.7065 15.7393ZM15.984 13.5062L15.5069 14.3022C15.6111 14.3647 15.7397 14.3848 15.861 14.3543L15.6347 13.4542L15.4085 12.5541C15.7685 12.4636 16.1457 12.521 16.4611 12.7101L15.984 13.5062ZM15.6347 13.4542L15.8592 14.3547C15.9797 14.3247 16.0845 14.2463 16.1473 14.1413L15.3508 13.6649L14.5543 13.1885C14.7441 12.8713 15.0502 12.6434 15.4102 12.5537L15.6347 13.4542ZM15.3508 13.6649L16.1461 14.1433C16.2099 14.0374 16.2284 13.9092 16.1993 13.7915L15.2984 14.0142L14.3974 14.237C14.3092 13.8805 14.3645 13.504 14.5555 13.1865L15.3508 13.6649ZM15.2984 14.0142L16.1987 13.7891C16.1685 13.6682 16.0904 13.5647 15.9869 13.5025L15.5091 14.2981L15.0312 15.0937C14.7158 14.9043 14.4879 14.599 14.398 14.2393L15.2984 14.0142ZM15.5091 14.2981L15.9864 13.5022L16.7108 13.9366L16.2334 14.7325L15.7561 15.5285L15.0317 15.094L15.5091 14.2981ZM16.2334 14.7325L16.7109 13.9367L19.7089 15.7354L19.2314 16.5312L18.7539 17.3271L15.756 15.5284L16.2334 14.7325ZM19.2314 16.5312L19.7092 15.7356C20.2726 16.0739 20.4549 16.8045 20.117 17.3679L19.3211 16.8905L18.5252 16.4132C18.3362 16.7282 18.4381 17.1374 18.7536 17.3269L19.2314 16.5312ZM19.3211 16.8905L20.1165 17.3688C19.7784 17.931 19.0488 18.1142 18.4849 17.7764L18.9618 16.9802L19.4387 16.184C19.1234 15.9952 18.7149 16.0977 18.5257 16.4123L19.3211 16.8905ZM18.9618 16.9802L18.4843 17.7761L15.4516 15.9566L15.9291 15.1607L16.4066 14.3649L19.4393 16.1844L18.9618 16.9802ZM15.9291 15.1607L15.4507 15.956C15.6736 16.0901 15.9594 16.0166 16.0914 15.797L15.2957 15.3191L14.5001 14.8413C14.8944 14.1848 15.7484 13.969 16.4075 14.3654L15.9291 15.1607ZM15.2957 15.3191L16.0914 15.797C16.1546 15.6916 16.1734 15.5638 16.1442 15.4458L15.2433 15.6686L14.3423 15.8914C14.2541 15.5347 14.3096 15.1585 14.5001 14.8413L15.2957 15.3191ZM15.2433 15.6686L16.1436 15.4435C16.1132 15.3218 16.0347 15.2186 15.9324 15.1571L15.4542 15.9525L14.9759 16.7479C14.6614 16.5588 14.433 16.2541 14.3429 15.8937L15.2433 15.6686ZM15.4542 15.9525L15.9316 15.1566L16.6751 15.6027L16.1977 16.3985L15.7202 17.1944L14.9767 16.7483L15.4542 15.9525ZM16.1977 16.3985L16.6752 15.6027L18.9643 16.9761L18.4869 17.772L18.0094 18.5678L15.7202 17.1944L16.1977 16.3985ZM18.4869 17.772L18.9647 16.9763C19.5281 17.3147 19.7104 18.0453 19.3725 18.6086L18.5766 18.1313L17.7806 17.6539C17.5917 17.969 17.6936 18.3782 18.009 18.5676L18.4869 17.772ZM18.5766 18.1313L19.3719 18.6096C19.0349 19.17 18.3051 19.357 17.7388 19.0163L18.2172 18.221L18.6957 17.4257C18.378 17.2346 17.9693 17.3402 17.7812 17.653L18.5766 18.1313ZM18.2172 18.221L17.7398 19.0168L15.4506 17.6434L15.9281 16.8475L16.4056 16.0517L18.6947 17.4251L18.2172 18.221ZM15.9281 16.8475L15.451 17.6436C15.5555 17.7062 15.6841 17.7258 15.8037 17.6959L15.5786 16.7956L15.3535 15.8952C15.7132 15.8053 16.0895 15.8622 16.4052 16.0515L15.9281 16.8475ZM15.5786 16.7956L15.8037 17.6959C15.9231 17.6661 16.0274 17.5887 16.0906 17.4835L15.2948 17.006L14.4989 16.5285C14.689 16.2116 14.9953 15.9847 15.3535 15.8952L15.5786 16.7956ZM15.2948 17.006L16.0909 17.4829C16.1533 17.3788 16.1727 17.2515 16.1432 17.1324L15.2423 17.3554L14.3414 17.5785C14.2529 17.2209 14.3093 16.845 14.4986 16.529L15.2948 17.006ZM15.2423 17.3554L16.1427 17.1303C16.1122 17.0087 16.0337 16.9054 15.9314 16.8439L15.4532 17.6393L14.9749 18.4347C14.6604 18.2456 14.432 17.941 14.3419 17.5805L15.2423 17.3554ZM15.4532 17.6393L15.9306 16.8434L20.5713 19.6273L20.0939 20.4232L19.6164 21.2191L14.9757 18.4352L15.4532 17.6393ZM20.0939 20.4232L20.5713 19.6274C21.1353 19.9657 21.7684 20.0734 22.3528 19.9542L22.5384 20.8635L22.7239 21.7729C21.6624 21.9895 20.5585 21.7843 19.6164 21.2191L20.0939 20.4232ZM22.5384 20.8635L22.3527 19.9542C22.9266 19.837 23.3709 19.519 23.6366 19.076L24.4325 19.5534L25.2284 20.0308C24.68 20.945 23.7788 21.5575 22.724 21.7729L22.5384 20.8635ZM24.4325 19.5534L23.6367 19.0757C24.0913 18.3185 24.0306 17.5021 23.464 16.8156L24.1798 16.2248L24.8955 15.634C25.9606 16.9244 26.0892 18.5967 25.2282 20.031L24.4325 19.5534ZM24.1798 16.2248L24.2709 17.1484L24.2706 17.1485L24.1795 16.2249L24.0883 15.3013L24.0886 15.3012L24.1798 16.2248Z" fill="#4CAF4F" mask="url(#path-5-inside-3_211_2339)"/>
</svg>
