<svg width="24" height="22" viewBox="0 0 24 22" fill="none" xmlns="http://www.w3.org/2000/svg">
<mask id="path-1-inside-1_211_2339" fill="white">
<path d="M15.0106 10.7646C14.843 10.7646 14.6874 10.7185 14.5491 10.6444V10.6463C14.5491 10.91 14.4466 11.1577 14.2607 11.3431C14.0747 11.5291 13.8272 11.6316 13.5638 11.6316C13.3938 11.6316 13.2362 11.5844 13.0965 11.5083C13.0824 11.7495 12.9859 11.975 12.8139 12.1472C12.6279 12.3332 12.3805 12.4357 12.1169 12.4357C11.5933 12.4357 11.168 12.024 11.1374 11.5081C10.9754 11.5957 10.7922 11.6416 10.6033 11.6295C10.0881 11.5957 9.68473 11.1506 9.68473 10.616V6.18435L9.1801 7.05859C8.9879 7.39297 8.62812 7.60058 8.24075 7.60058C8.052 7.60058 7.86554 7.55105 7.7004 7.45643C7.49476 7.33721 7.34765 7.14583 7.28648 6.91687C7.22499 6.68778 7.2568 6.44818 7.37569 6.24285C7.37586 6.24285 9.02677 3.38395 9.12748 3.20834C9.13945 3.18194 9.17357 3.10536 9.20259 3.04009C9.23031 2.97777 9.25409 2.91381 9.27688 2.84953C9.77474 1.44397 11.0075 0.570865 12.4943 0.570865C14.4249 0.570865 15.9956 2.27408 15.9956 4.36764L15.9958 9.77913C15.9958 10.0425 15.8935 10.29 15.7077 10.4761C15.5217 10.6621 15.2743 10.7646 15.0106 10.7646L15.0106 10.7646ZM12.4943 1.09441C11.2168 1.09441 10.1985 1.816 9.77035 3.02462C9.74297 3.10137 9.71443 3.17811 9.68114 3.2529C9.58455 3.46953 9.58455 3.46953 9.55733 3.50069L9.55372 3.49757C9.41892 3.75192 9.01845 4.44544 7.82901 6.50487C7.78014 6.58933 7.76718 6.6874 7.79211 6.7812C7.81737 6.875 7.87788 6.95405 7.96168 7.00242C8.22177 7.15182 8.57798 7.05539 8.72622 6.79711L9.71985 5.07681C9.77922 4.97431 9.89926 4.92397 10.0144 4.95513C10.1288 4.98579 10.2084 5.0896 10.2084 5.208V10.6161C10.2084 10.8713 10.4009 11.0915 10.6376 11.1071C10.774 11.1143 10.9013 11.0686 10.9969 10.9731C11.0838 10.8862 11.1317 10.7704 11.1317 10.6466V7.10963C11.1317 6.96499 11.2489 6.84774 11.3936 6.84774C11.5382 6.84774 11.6555 6.96483 11.6555 7.10963L11.6553 11.4506C11.6553 11.7051 11.8624 11.9122 12.1169 11.9122C12.2406 11.9122 12.3567 11.8643 12.4438 11.7774C12.5307 11.6903 12.5786 11.5742 12.5786 11.4506V7.10963C12.5786 6.96499 12.6957 6.84773 12.8405 6.84773C12.9851 6.84773 13.1024 6.96483 13.1024 7.10963L13.1022 10.6059V10.6466C13.1022 10.901 13.3093 11.1081 13.564 11.1081C13.6875 11.1081 13.8033 11.06 13.8908 10.9728C13.9778 10.886 14.0256 10.7703 14.0256 10.6464V7.10945C14.0256 6.96481 14.1427 6.84755 14.2875 6.84755C14.4322 6.84755 14.5494 6.96464 14.5494 7.10945L14.5491 9.77925C14.5491 10.0339 14.7562 10.2411 15.0106 10.2411C15.1344 10.2411 15.2502 10.193 15.3371 10.1063C15.4243 10.019 15.4721 9.9029 15.4721 9.77925L15.4722 4.36777C15.4722 2.56304 14.1363 1.09446 12.4943 1.09446L12.4943 1.09441Z"/>
</mask>
<path d="M15.0106 10.7646C14.843 10.7646 14.6874 10.7185 14.5491 10.6444V10.6463C14.5491 10.91 14.4466 11.1577 14.2607 11.3431C14.0747 11.5291 13.8272 11.6316 13.5638 11.6316C13.3938 11.6316 13.2362 11.5844 13.0965 11.5083C13.0824 11.7495 12.9859 11.975 12.8139 12.1472C12.6279 12.3332 12.3805 12.4357 12.1169 12.4357C11.5933 12.4357 11.168 12.024 11.1374 11.5081C10.9754 11.5957 10.7922 11.6416 10.6033 11.6295C10.0881 11.5957 9.68473 11.1506 9.68473 10.616V6.18435L9.1801 7.05859C8.9879 7.39297 8.62812 7.60058 8.24075 7.60058C8.052 7.60058 7.86554 7.55105 7.7004 7.45643C7.49476 7.33721 7.34765 7.14583 7.28648 6.91687C7.22499 6.68778 7.2568 6.44818 7.37569 6.24285C7.37586 6.24285 9.02677 3.38395 9.12748 3.20834C9.13945 3.18194 9.17357 3.10536 9.20259 3.04009C9.23031 2.97777 9.25409 2.91381 9.27688 2.84953C9.77474 1.44397 11.0075 0.570865 12.4943 0.570865C14.4249 0.570865 15.9956 2.27408 15.9956 4.36764L15.9958 9.77913C15.9958 10.0425 15.8935 10.29 15.7077 10.4761C15.5217 10.6621 15.2743 10.7646 15.0106 10.7646L15.0106 10.7646ZM12.4943 1.09441C11.2168 1.09441 10.1985 1.816 9.77035 3.02462C9.74297 3.10137 9.71443 3.17811 9.68114 3.2529C9.58455 3.46953 9.58455 3.46953 9.55733 3.50069L9.55372 3.49757C9.41892 3.75192 9.01845 4.44544 7.82901 6.50487C7.78014 6.58933 7.76718 6.6874 7.79211 6.7812C7.81737 6.875 7.87788 6.95405 7.96168 7.00242C8.22177 7.15182 8.57798 7.05539 8.72622 6.79711L9.71985 5.07681C9.77922 4.97431 9.89926 4.92397 10.0144 4.95513C10.1288 4.98579 10.2084 5.0896 10.2084 5.208V10.6161C10.2084 10.8713 10.4009 11.0915 10.6376 11.1071C10.774 11.1143 10.9013 11.0686 10.9969 10.9731C11.0838 10.8862 11.1317 10.7704 11.1317 10.6466V7.10963C11.1317 6.96499 11.2489 6.84774 11.3936 6.84774C11.5382 6.84774 11.6555 6.96483 11.6555 7.10963L11.6553 11.4506C11.6553 11.7051 11.8624 11.9122 12.1169 11.9122C12.2406 11.9122 12.3567 11.8643 12.4438 11.7774C12.5307 11.6903 12.5786 11.5742 12.5786 11.4506V7.10963C12.5786 6.96499 12.6957 6.84773 12.8405 6.84773C12.9851 6.84773 13.1024 6.96483 13.1024 7.10963L13.1022 10.6059V10.6466C13.1022 10.901 13.3093 11.1081 13.564 11.1081C13.6875 11.1081 13.8033 11.06 13.8908 10.9728C13.9778 10.886 14.0256 10.7703 14.0256 10.6464V7.10945C14.0256 6.96481 14.1427 6.84755 14.2875 6.84755C14.4322 6.84755 14.5494 6.96464 14.5494 7.10945L14.5491 9.77925C14.5491 10.0339 14.7562 10.2411 15.0106 10.2411C15.1344 10.2411 15.2502 10.193 15.3371 10.1063C15.4243 10.019 15.4721 9.9029 15.4721 9.77925L15.4722 4.36777C15.4722 2.56304 14.1363 1.09446 12.4943 1.09446L12.4943 1.09441Z" fill="#4CAF4F"/>
<path d="M15.0106 10.7646V9.83647H18.2896L15.497 11.555L15.0106 10.7646ZM14.5491 10.6444H13.621V9.09362L14.9877 9.82642L14.5491 10.6444ZM14.2607 11.3431L13.6044 10.6869L13.6053 10.686L14.2607 11.3431ZM13.0965 11.5083L12.17 11.4541L12.2553 9.99345L13.5403 10.6932L13.0965 11.5083ZM12.8139 12.1472L13.4705 12.8031L13.4702 12.8035L12.8139 12.1472ZM11.1374 11.5081L10.6961 10.6916L11.9775 9.9991L12.0638 11.4531L11.1374 11.5081ZM10.6033 11.6295L10.5438 12.5557L10.5425 12.5556L10.6033 11.6295ZM9.68473 6.18435L8.88093 5.72039L10.6128 2.71998V6.18435H9.68473ZM9.1801 7.05859L8.37546 6.59609L8.3763 6.59462L9.1801 7.05859ZM7.7004 7.45643L7.23898 8.2617L7.23492 8.25935L7.7004 7.45643ZM7.28648 6.91687L8.18284 6.67627L8.18312 6.67731L7.28648 6.91687ZM7.37569 6.24285L6.57253 5.77779L6.84064 5.31476H7.37569V6.24285ZM9.12748 3.20834L9.97274 3.5916L9.95452 3.63179L9.93257 3.67007L9.12748 3.20834ZM9.20259 3.04009L8.35458 2.66296L8.35458 2.66295L9.20259 3.04009ZM9.27688 2.84953L10.1517 3.1594L10.1516 3.15966L9.27688 2.84953ZM15.9956 4.36764L15.0676 4.36767V4.36764H15.9956ZM15.9958 9.77913L16.9239 9.7791V9.77913H15.9958ZM15.7077 10.4761L16.3645 11.1318L16.3639 11.1324L15.7077 10.4761ZM15.0106 10.7646V11.6927H11.7316L14.5242 9.97416L15.0106 10.7646ZM12.4943 1.09441V0.166316H13.7247L13.3867 1.34938L12.4943 1.09441ZM9.77035 3.02462L10.6452 3.33454L10.6445 3.33654L9.77035 3.02462ZM9.68114 3.2529L10.529 3.63035L10.5288 3.63084L9.68114 3.2529ZM9.55733 3.50069L10.2562 4.11134L9.64908 4.80623L8.95071 4.20309L9.55733 3.50069ZM9.55372 3.49757L8.73367 3.06297L9.27899 2.03401L10.1603 2.79517L9.55372 3.49757ZM7.82901 6.50487L8.63269 6.96904L8.63231 6.96971L7.82901 6.50487ZM7.79211 6.7812L6.89593 7.02248L6.89516 7.01958L7.79211 6.7812ZM7.96168 7.00242L7.49942 7.8072L7.49768 7.8062L7.96168 7.00242ZM8.72622 6.79711L7.92127 6.33512L7.92255 6.33291L8.72622 6.79711ZM9.71985 5.07681L8.91618 4.61261L8.91675 4.61164L9.71985 5.07681ZM10.0144 4.95513L9.77421 5.85161L9.77191 5.85098L10.0144 4.95513ZM10.6376 11.1071L10.5885 12.034L10.5766 12.0332L10.6376 11.1071ZM10.9969 10.9731L11.6531 11.6294L11.6526 11.63L10.9969 10.9731ZM11.6555 7.10963L12.5836 7.10963L12.5836 7.10967L11.6555 7.10963ZM11.6553 11.4506L10.7272 11.4506L10.7272 11.4505L11.6553 11.4506ZM12.4438 11.7774L13.1007 12.4331L13.0994 12.4343L12.4438 11.7774ZM13.1024 7.10963L14.0305 7.10963L14.0305 7.10967L13.1024 7.10963ZM13.1022 10.6059L12.1741 10.6059L12.1741 10.6059L13.1022 10.6059ZM13.8908 10.9728L14.5465 11.6297L14.5459 11.6303L13.8908 10.9728ZM14.5494 7.10945L15.4775 7.10945L15.4775 7.10956L14.5494 7.10945ZM14.5491 9.77925L13.621 9.77925L13.621 9.77914L14.5491 9.77925ZM15.3371 10.1063L15.9934 10.7625L15.9927 10.7631L15.3371 10.1063ZM15.4721 9.77925L14.544 9.77925L14.544 9.77923L15.4721 9.77925ZM15.4722 4.36777L16.4003 4.36777L16.4003 4.36779L15.4722 4.36777ZM12.4943 1.09446V2.02256H11.2639L11.6019 0.839496L12.4943 1.09446ZM15.0106 10.7646V11.6927C14.6689 11.6927 14.3638 11.598 14.1106 11.4623L14.5491 10.6444L14.9877 9.82642C14.9997 9.83285 15.0073 9.83531 15.0103 9.83613C15.0129 9.83683 15.0126 9.83647 15.0106 9.83647V10.7646ZM14.5491 10.6444H15.4772V10.6463H14.5491H13.621V10.6444H14.5491ZM14.5491 10.6463H15.4772C15.4772 11.1554 15.2775 11.6398 14.9161 12.0003L14.2607 11.3431L13.6053 10.686C13.6119 10.6794 13.6152 10.6737 13.6171 10.6691C13.619 10.6644 13.621 10.6573 13.621 10.6463H14.5491ZM14.2607 11.3431L14.9169 11.9994C14.5568 12.3596 14.0732 12.5597 13.5638 12.5597V11.6316V10.7035C13.5745 10.7035 13.5815 10.7016 13.5863 10.6996C13.591 10.6976 13.5972 10.6941 13.6044 10.6869L14.2607 11.3431ZM13.5638 11.6316V12.5597C13.2176 12.5597 12.9087 12.4628 12.6526 12.3234L13.0965 11.5083L13.5403 10.6932C13.5524 10.6998 13.5601 10.7023 13.5631 10.7031C13.5657 10.7038 13.5655 10.7035 13.5638 10.7035V11.6316ZM13.0965 11.5083L14.023 11.5624C13.9963 12.0193 13.811 12.4623 13.4705 12.8031L12.8139 12.1472L12.1573 11.4913C12.1607 11.4878 12.1627 11.4848 12.1644 11.481C12.1662 11.4768 12.1691 11.4683 12.17 11.4541L13.0965 11.5083ZM12.8139 12.1472L13.4702 12.8035C13.1099 13.1637 12.6263 13.3638 12.1169 13.3638V12.4357V11.5076C12.1277 11.5076 12.1348 11.5056 12.1395 11.5037C12.1443 11.5017 12.1504 11.4982 12.1576 11.4909L12.8139 12.1472ZM12.1169 12.4357V13.3638C11.0923 13.3638 10.2701 12.5596 10.2109 11.5632L11.1374 11.5081L12.0638 11.4531C12.0648 11.4689 12.0712 11.4827 12.0827 11.4936C12.0882 11.4989 12.0939 11.5023 12.0988 11.5044C12.1031 11.5061 12.1086 11.5076 12.1169 11.5076V12.4357ZM11.1374 11.5081L11.5787 12.3246C11.2789 12.4866 10.9234 12.58 10.5438 12.5557L10.6033 11.6295L10.6627 10.7033C10.6628 10.7033 10.6647 10.7035 10.6696 10.7023C10.6749 10.7011 10.684 10.6982 10.6961 10.6916L11.1374 11.5081ZM10.6033 11.6295L10.5425 12.5556C9.51203 12.488 8.75663 11.6116 8.75663 10.616H9.68473H10.6128C10.6128 10.6474 10.6242 10.6715 10.6385 10.6873C10.6524 10.7026 10.6619 10.7032 10.664 10.7034L10.6033 11.6295ZM9.68473 10.616H8.75663V6.18435H9.68473H10.6128V10.616H9.68473ZM9.68473 6.18435L10.4885 6.64832L9.9839 7.52255L9.1801 7.05859L8.3763 6.59462L8.88093 5.72039L9.68473 6.18435ZM9.1801 7.05859L9.98474 7.52109C9.62612 8.14501 8.95858 8.52867 8.24075 8.52867V7.60058V6.67248C8.29766 6.67248 8.34969 6.64093 8.37546 6.59609L9.1801 7.05859ZM8.24075 7.60058V8.52867C7.88978 8.52867 7.5443 8.43664 7.23898 8.26169L7.7004 7.45643L8.16182 6.65116C8.18678 6.66546 8.21421 6.67248 8.24075 6.67248V7.60058ZM7.7004 7.45643L7.23492 8.25935C6.81823 8.01778 6.51494 7.62465 6.38984 7.15644L7.28648 6.91687L8.18312 6.67731C8.18228 6.67414 8.17996 6.66854 8.17549 6.66271C8.17106 6.65693 8.16695 6.65413 8.16589 6.65351L7.7004 7.45643ZM7.28648 6.91687L6.39012 7.15748C6.26453 6.68961 6.33028 6.19616 6.57253 5.77779L7.37569 6.24285L8.17886 6.70791C8.18018 6.70563 8.1825 6.70033 8.1835 6.69283C8.18449 6.68531 8.18366 6.67931 8.18284 6.67627L7.28648 6.91687ZM7.37569 6.24285V5.31476C6.92043 5.43409 6.57967 5.76568 6.57712 5.76995C6.57627 5.77138 6.57501 5.77353 6.57461 5.77422C6.57438 5.77461 6.57398 5.77529 6.57385 5.77552C6.57376 5.77566 6.5736 5.77596 6.57355 5.77603C6.57342 5.77625 6.57346 5.77618 6.57381 5.77558C6.57444 5.77449 6.5755 5.77266 6.57704 5.77C6.58009 5.76473 6.58467 5.7568 6.59072 5.74633C6.60281 5.72542 6.62056 5.69469 6.64323 5.65544C6.68856 5.57696 6.75344 5.46463 6.83162 5.32926C6.98797 5.05853 7.19748 4.6957 7.41014 4.32739C7.83616 3.58953 8.27292 2.83288 8.32239 2.74662L9.12748 3.20834L9.93257 3.67007C9.88132 3.75942 9.44228 4.52002 9.01762 5.25551C8.80494 5.62387 8.5954 5.98675 8.43901 6.25755C8.36082 6.39294 8.29591 6.50533 8.25053 6.58389C8.22785 6.62316 8.21002 6.65401 8.19785 6.67507C8.19178 6.68558 8.18707 6.69373 8.18385 6.69929C8.18226 6.70204 8.18095 6.70432 8.17998 6.70598C8.17954 6.70675 8.17898 6.70771 8.17844 6.70863C8.17825 6.70897 8.17765 6.71 8.17694 6.71122C8.17648 6.71199 8.17518 6.71421 8.17431 6.71568C8.17174 6.72 7.83096 7.05161 7.37569 7.17094V6.24285ZM9.12748 3.20834L8.28222 2.82508C8.29243 2.80255 8.3248 2.72991 8.35458 2.66296L9.20259 3.04009L10.0506 3.41721C10.0223 3.48081 9.98647 3.56133 9.97274 3.5916L9.12748 3.20834ZM9.20259 3.04009L8.35458 2.66295C8.36748 2.63395 8.38175 2.59689 8.40213 2.5394L9.27688 2.84953L10.1516 3.15966C10.1264 3.23074 10.0931 3.32159 10.0506 3.41723L9.20259 3.04009ZM9.27688 2.84953L8.40205 2.53965C9.03063 0.765036 10.6128 -0.357228 12.4943 -0.357228V0.570865V1.49896C11.4022 1.49896 10.5189 2.1229 10.1517 3.1594L9.27688 2.84953ZM12.4943 0.570865V-0.357228C15.0068 -0.357228 16.9237 1.83371 16.9237 4.36764H15.9956H15.0676C15.0676 2.71445 13.843 1.49896 12.4943 1.49896V0.570865ZM15.9956 4.36764L16.9237 4.36761L16.9239 9.7791L15.9958 9.77913L15.0677 9.77916L15.0676 4.36767L15.9956 4.36764ZM15.9958 9.77913H16.9239C16.9239 10.2881 16.7242 10.7714 16.3645 11.1318L15.7077 10.4761L15.0508 9.82047C15.0581 9.81312 15.0617 9.80687 15.0637 9.80199C15.0658 9.79711 15.0677 9.78995 15.0677 9.77913H15.9958ZM15.7077 10.4761L16.3639 11.1324C16.0037 11.4927 15.52 11.6927 15.0106 11.6927V10.7646V9.83649C15.0215 9.83649 15.0286 9.83451 15.0333 9.83255C15.0381 9.83059 15.0442 9.8271 15.0514 9.81986L15.7077 10.4761ZM15.0106 10.7646L14.5242 9.97416L14.5242 9.97414L15.0106 10.7646L15.497 11.555L15.497 11.555L15.0106 10.7646ZM12.4943 1.09441V2.0225C11.6119 2.0225 10.9428 2.49454 10.6452 3.33454L9.77035 3.02462L8.89554 2.7147C9.4543 1.13745 10.8217 0.166316 12.4943 0.166316V1.09441ZM9.77035 3.02462L10.6445 3.33654C10.6152 3.41863 10.5771 3.52232 10.529 3.63035L9.68114 3.2529L8.83327 2.87544C8.85176 2.83391 8.87077 2.7841 8.89625 2.7127L9.77035 3.02462ZM9.68114 3.2529L10.5288 3.63084C10.4863 3.72616 10.4507 3.80666 10.4234 3.86119C10.4065 3.89503 10.3791 3.94719 10.3394 4.00496C10.2992 4.06349 10.2595 4.10764 10.2562 4.11134L9.55733 3.50069L8.85843 2.89003C8.86061 2.88754 8.85989 2.88835 8.85879 2.88963C8.85738 2.89127 8.85377 2.89548 8.84904 2.90125C8.84413 2.90722 8.83796 2.91494 8.831 2.92412C8.82398 2.93338 8.81684 2.94323 8.8097 2.95362C8.79516 2.97478 8.78396 2.99331 8.776 3.00733C8.76857 3.02041 8.76402 3.02946 8.763 3.0315C8.76195 3.03361 8.76261 3.03237 8.76576 3.02562C8.76882 3.01908 8.77314 3.00965 8.77935 2.99594C8.7855 2.98234 8.79288 2.96592 8.80195 2.94563C8.81101 2.92537 8.82136 2.90216 8.83349 2.87495L9.68114 3.2529ZM9.55733 3.50069L8.95071 4.20309L8.9471 4.19997L9.55372 3.49757L10.1603 2.79517L10.1639 2.79828L9.55733 3.50069ZM9.55372 3.49757L10.3738 3.93217C10.2285 4.20625 9.81383 4.92398 8.63269 6.96904L7.82901 6.50487L7.02533 6.0407C8.22306 3.96691 8.60933 3.2976 8.73367 3.06297L9.55372 3.49757ZM7.82901 6.50487L8.63231 6.96971C8.70657 6.84138 8.72726 6.68654 8.68907 6.54282L7.79211 6.7812L6.89516 7.01958C6.8071 6.68826 6.85371 6.33728 7.02572 6.04003L7.82901 6.50487ZM7.79211 6.7812L8.68829 6.53992C8.6501 6.39807 8.55624 6.27401 8.42568 6.19865L7.96168 7.00242L7.49768 7.8062C7.19953 7.63408 6.98463 7.35194 6.89593 7.02248L7.79211 6.7812ZM7.96168 7.00242L8.42395 6.19765C8.31831 6.13696 8.21556 6.13737 8.14461 6.15647C8.07393 6.1755 7.98331 6.22704 7.92128 6.33513L8.72622 6.79711L9.53116 7.25909C9.12668 7.96384 8.20228 8.21093 7.49942 7.8072L7.96168 7.00242ZM8.72622 6.79711L7.92255 6.33291L8.91618 4.61261L9.71985 5.07681L10.5235 5.541L9.52988 7.2613L8.72622 6.79711ZM9.71985 5.07681L8.91675 4.61164C9.18482 4.14882 9.73198 3.91721 10.2569 4.05927L10.0144 4.95513L9.77191 5.85098C10.0665 5.93073 10.3736 5.7998 10.523 5.54198L9.71985 5.07681ZM10.0144 4.95513L10.2546 4.05865C10.7752 4.19814 11.1365 4.66998 11.1365 5.208H10.2084H9.28029C9.28029 5.50922 9.48247 5.77345 9.77421 5.8516L10.0144 4.95513ZM10.2084 5.208H11.1365V10.6161H10.2084H9.28029V5.208H10.2084ZM10.2084 10.6161H11.1365C11.1365 10.5104 11.0973 10.4142 11.033 10.3407C10.9688 10.2672 10.8555 10.1914 10.6985 10.181L10.6376 11.1071L10.5766 12.0332C9.79534 11.9818 9.28029 11.3012 9.28029 10.6161H10.2084ZM10.6376 11.1071L10.6866 10.1803C10.5769 10.1745 10.443 10.2147 10.3412 10.3163L10.9969 10.9731L11.6526 11.63C11.3595 11.9225 10.9711 12.0541 10.5886 12.0339L10.6376 11.1071ZM10.9969 10.9731L10.3406 10.3169C10.2525 10.4049 10.2036 10.5256 10.2036 10.6466H11.1317H12.0598C12.0598 11.0152 11.915 11.3675 11.6531 11.6294L10.9969 10.9731ZM11.1317 10.6466H10.2036V7.10963H11.1317H12.0598V10.6466H11.1317ZM11.1317 7.10963H10.2036C10.2036 6.45242 10.7364 5.91964 11.3936 5.91964V6.84774V7.77583C11.7615 7.77583 12.0598 7.47756 12.0598 7.10963H11.1317ZM11.3936 6.84774V5.91964C12.0504 5.91964 12.5836 6.45189 12.5836 7.10963H11.6555H10.7274C10.7274 7.47777 11.026 7.77583 11.3936 7.77583V6.84774ZM11.6555 7.10963L12.5836 7.10967L12.5834 11.4506L11.6553 11.4506L10.7272 11.4505L10.7274 7.1096L11.6555 7.10963ZM11.6553 11.4506H12.5834C12.5834 11.1925 12.375 10.9841 12.1169 10.9841V11.9122V12.8403C11.3499 12.8403 10.7272 12.2177 10.7272 11.4506H11.6553ZM12.1169 11.9122V10.9841C11.9961 10.9841 11.876 11.0328 11.7882 11.1205L12.4438 11.7774L13.0994 12.4343C12.8373 12.6959 12.485 12.8403 12.1169 12.8403V11.9122ZM12.4438 11.7774L11.7869 11.1218C11.6992 11.2097 11.6505 11.3298 11.6505 11.4506H12.5786H13.5067C13.5067 11.8187 13.3622 12.171 13.1007 12.4331L12.4438 11.7774ZM12.5786 11.4506H11.6505V7.10963H12.5786H13.5067V11.4506H12.5786ZM12.5786 7.10963H11.6505C11.6505 6.4528 12.1827 5.91964 12.8405 5.91964V6.84773V7.77583C13.2086 7.77583 13.5067 7.47718 13.5067 7.10963H12.5786ZM12.8405 6.84773V5.91964C13.4973 5.91964 14.0305 6.45188 14.0305 7.10963H13.1024H12.1743C12.1743 7.47777 12.4729 7.77583 12.8405 7.77583V6.84773ZM13.1024 7.10963L14.0305 7.10967L14.0303 10.606L13.1022 10.6059L12.1741 10.6059L12.1743 7.10959L13.1024 7.10963ZM13.1022 10.6059H14.0303V10.6466H13.1022H12.1741V10.6059H13.1022ZM13.1022 10.6466H14.0303C14.0303 10.3879 13.8214 10.18 13.564 10.18V11.1081V12.0362C12.7972 12.0362 12.1741 11.414 12.1741 10.6466H13.1022ZM13.564 11.1081V10.18C13.4407 10.18 13.3213 10.2301 13.2358 10.3153L13.8908 10.9728L14.5459 11.6303C14.2853 11.8899 13.9343 12.0362 13.564 12.0362V11.1081ZM13.8908 10.9728L13.2352 10.3159C13.1464 10.4045 13.0976 10.5256 13.0976 10.6464H14.0256H14.9537C14.9537 11.0149 14.8091 11.3675 14.5465 11.6297L13.8908 10.9728ZM14.0256 10.6464H13.0976V7.10945H14.0256H14.9537V10.6464H14.0256ZM14.0256 7.10945H13.0976C13.0976 6.45261 13.6298 5.91946 14.2875 5.91946V6.84755V7.77564C14.6557 7.77564 14.9537 7.47701 14.9537 7.10945H14.0256ZM14.2875 6.84755V5.91946C14.9444 5.91946 15.4775 6.45169 15.4775 7.10945H14.5494H13.6213C13.6213 7.47759 13.92 7.77564 14.2875 7.77564V6.84755ZM14.5494 7.10945L15.4775 7.10956L15.4772 9.77937L14.5491 9.77925L13.621 9.77914L13.6213 7.10933L14.5494 7.10945ZM14.5491 9.77925H15.4772C15.4772 9.5218 15.2692 9.31297 15.0106 9.31297V10.2411V11.1692C14.2432 11.1692 13.621 10.5461 13.621 9.77925H14.5491ZM15.0106 10.2411V9.31297C14.8888 9.31297 14.7687 9.36226 14.6814 9.44938L15.3371 10.1063L15.9927 10.7631C15.7316 11.0238 15.38 11.1692 15.0106 11.1692V10.2411ZM15.3371 10.1063L14.6808 9.45C14.5925 9.53837 14.544 9.65899 14.544 9.77925H15.4721H16.4001C16.4001 10.1468 16.2562 10.4997 15.9934 10.7625L15.3371 10.1063ZM15.4721 9.77925L14.544 9.77923L14.5441 4.36774L15.4722 4.36777L16.4003 4.36779L16.4001 9.77928L15.4721 9.77925ZM15.4722 4.36777H14.5441C14.5441 2.99103 13.5431 2.02256 12.4943 2.02256V1.09446V0.16637C14.7296 0.16637 16.4003 2.13505 16.4003 4.36777H15.4722ZM12.4943 1.09446L11.6019 0.839496L11.6019 0.839442L12.4943 1.09441L13.3867 1.34938L13.3866 1.34943L12.4943 1.09446Z" fill="#4CAF4F" mask="url(#path-1-inside-1_211_2339)"/>
<path d="M3.63086 12.5525L3.5791 12.5251C3.56683 12.5473 3.53238 12.6092 3.48145 12.7009C3.49954 12.7099 3.51786 12.7175 3.53613 12.7244C3.56728 12.6682 3.59851 12.6108 3.63086 12.5525Z" fill="#4CAF4F" stroke="#4CAF4F" stroke-width="0.928093"/>
<mask id="path-4-inside-2_211_2339" fill="white">
<path d="M22.8808 19.8225C22.3975 20.6285 21.6027 21.1802 20.6425 21.3764C19.6909 21.5704 18.69 21.3914 17.8238 20.8721L13.1831 18.0882C12.9573 17.9527 12.7976 17.7375 12.7336 17.482C12.6701 17.227 12.7098 16.9622 12.8451 16.7365C12.9296 16.5955 13.048 16.4843 13.1852 16.4021L13.1839 16.4013C12.9581 16.2658 12.7984 16.0507 12.7348 15.7955C12.6708 15.5403 12.7105 15.2753 12.846 15.0494C12.9332 14.9042 13.0527 14.7907 13.1892 14.7102C12.9911 14.5739 12.8484 14.376 12.7897 14.1412C12.7257 13.8858 12.7654 13.621 12.9009 13.3953C13.0362 13.1695 13.2515 13.0099 13.5067 12.9461C13.5864 12.9261 13.6672 12.9163 13.7473 12.9163C13.9044 12.9164 14.0585 12.9563 14.2002 13.0304C14.2089 12.8469 14.2635 12.6667 14.3708 12.512C14.6648 12.0878 15.2539 11.9704 15.7127 12.2457L19.5129 14.5252L19.0231 13.6429C18.8352 13.3061 18.842 12.8905 19.0413 12.5583C19.1384 12.3966 19.2771 12.2623 19.4429 12.1693C19.5792 12.0938 19.7268 12.0581 19.8724 12.0581C20.1851 12.0583 20.4889 12.2232 20.6505 12.5153C21.214 13.5306 22.2773 15.4454 22.3521 15.579C22.368 15.6022 22.4161 15.671 22.4572 15.7296C22.4964 15.7852 22.5387 15.8383 22.5825 15.8911C23.5314 17.0413 23.6458 18.5476 22.8808 19.8225L22.8808 19.8225ZM22.1785 16.2249C22.1263 16.1617 22.0752 16.0973 22.0286 16.0309C21.8869 15.8298 21.8833 15.8246 21.8726 15.7719C21.707 15.4979 21.3029 14.7704 20.1922 12.7694C20.0948 12.5937 19.8734 12.5296 19.6971 12.627C19.6104 12.6756 19.5407 12.7433 19.4898 12.8281C19.3869 12.9998 19.3829 13.2143 19.4802 13.3884L20.4441 15.1253C20.5017 15.2289 20.4825 15.3582 20.3974 15.4405C20.3124 15.523 20.1826 15.5374 20.0805 15.4767L15.4432 12.6947C15.2246 12.5637 14.9365 12.615 14.8013 12.8102C14.7236 12.9224 14.6988 13.0562 14.7313 13.1869C14.7612 13.3063 14.8361 13.407 14.9422 13.4706C14.9425 13.4708 14.9427 13.4711 14.943 13.4712L17.9751 15.2902C18.0991 15.3647 18.1393 15.5254 18.0648 15.6496C17.9904 15.7734 17.8298 15.8139 17.7055 15.7393L13.983 13.5062C13.8774 13.4429 13.7531 13.4242 13.6337 13.4542C13.514 13.484 13.4133 13.5588 13.3499 13.6649C13.2862 13.7707 13.2679 13.8948 13.2974 14.0142C13.3272 14.1336 13.4022 14.2345 13.5081 14.2981L14.2325 14.7325L17.2304 16.5312C17.3544 16.6057 17.3946 16.7664 17.3201 16.8905C17.2457 17.0143 17.0851 17.0547 16.9608 16.9802L13.9281 15.1607C13.71 15.0295 13.426 15.1007 13.2948 15.3191C13.2311 15.4251 13.2128 15.5492 13.2423 15.6686C13.2721 15.788 13.3471 15.8887 13.4532 15.9525L14.1967 16.3985L16.4859 17.772C16.6099 17.8464 16.65 18.0071 16.5756 18.1313C16.5011 18.2551 16.3406 18.2958 16.2163 18.221L13.9271 16.8475C13.8215 16.7842 13.6977 16.7655 13.5776 16.7956C13.4583 16.8254 13.3572 16.9002 13.2938 17.006C13.2303 17.1119 13.2118 17.2362 13.2413 17.3554C13.2711 17.4748 13.3461 17.5755 13.4522 17.6393L18.0929 20.4232C18.846 20.875 19.7144 21.0314 20.5374 20.8635C21.3517 20.6972 22.0245 20.232 22.4315 19.5534C23.0893 18.4576 22.9946 17.2132 22.1788 16.2248L22.1785 16.2249Z"/>
</mask>
<path d="M22.8808 19.8225C22.3975 20.6285 21.6027 21.1802 20.6425 21.3764C19.6909 21.5704 18.69 21.3914 17.8238 20.8721L13.1831 18.0882C12.9573 17.9527 12.7976 17.7375 12.7336 17.482C12.6701 17.227 12.7098 16.9622 12.8451 16.7365C12.9296 16.5955 13.048 16.4843 13.1852 16.4021L13.1839 16.4013C12.9581 16.2658 12.7984 16.0507 12.7348 15.7955C12.6708 15.5403 12.7105 15.2753 12.846 15.0494C12.9332 14.9042 13.0527 14.7907 13.1892 14.7102C12.9911 14.5739 12.8484 14.376 12.7897 14.1412C12.7257 13.8858 12.7654 13.621 12.9009 13.3953C13.0362 13.1695 13.2515 13.0099 13.5067 12.9461C13.5864 12.9261 13.6672 12.9163 13.7473 12.9163C13.9044 12.9164 14.0585 12.9563 14.2002 13.0304C14.2089 12.8469 14.2635 12.6667 14.3708 12.512C14.6648 12.0878 15.2539 11.9704 15.7127 12.2457L19.5129 14.5252L19.0231 13.6429C18.8352 13.3061 18.842 12.8905 19.0413 12.5583C19.1384 12.3966 19.2771 12.2623 19.4429 12.1693C19.5792 12.0938 19.7268 12.0581 19.8724 12.0581C20.1851 12.0583 20.4889 12.2232 20.6505 12.5153C21.214 13.5306 22.2773 15.4454 22.3521 15.579C22.368 15.6022 22.4161 15.671 22.4572 15.7296C22.4964 15.7852 22.5387 15.8383 22.5825 15.8911C23.5314 17.0413 23.6458 18.5476 22.8808 19.8225L22.8808 19.8225ZM22.1785 16.2249C22.1263 16.1617 22.0752 16.0973 22.0286 16.0309C21.8869 15.8298 21.8833 15.8246 21.8726 15.7719C21.707 15.4979 21.3029 14.7704 20.1922 12.7694C20.0948 12.5937 19.8734 12.5296 19.6971 12.627C19.6104 12.6756 19.5407 12.7433 19.4898 12.8281C19.3869 12.9998 19.3829 13.2143 19.4802 13.3884L20.4441 15.1253C20.5017 15.2289 20.4825 15.3582 20.3974 15.4405C20.3124 15.523 20.1826 15.5374 20.0805 15.4767L15.4432 12.6947C15.2246 12.5637 14.9365 12.615 14.8013 12.8102C14.7236 12.9224 14.6988 13.0562 14.7313 13.1869C14.7612 13.3063 14.8361 13.407 14.9422 13.4706C14.9425 13.4708 14.9427 13.4711 14.943 13.4712L17.9751 15.2902C18.0991 15.3647 18.1393 15.5254 18.0648 15.6496C17.9904 15.7734 17.8298 15.8139 17.7055 15.7393L13.983 13.5062C13.8774 13.4429 13.7531 13.4242 13.6337 13.4542C13.514 13.484 13.4133 13.5588 13.3499 13.6649C13.2862 13.7707 13.2679 13.8948 13.2974 14.0142C13.3272 14.1336 13.4022 14.2345 13.5081 14.2981L14.2325 14.7325L17.2304 16.5312C17.3544 16.6057 17.3946 16.7664 17.3201 16.8905C17.2457 17.0143 17.0851 17.0547 16.9608 16.9802L13.9281 15.1607C13.71 15.0295 13.426 15.1007 13.2948 15.3191C13.2311 15.4251 13.2128 15.5492 13.2423 15.6686C13.2721 15.788 13.3471 15.8887 13.4532 15.9525L14.1967 16.3985L16.4859 17.772C16.6099 17.8464 16.65 18.0071 16.5756 18.1313C16.5011 18.2551 16.3406 18.2958 16.2163 18.221L13.9271 16.8475C13.8215 16.7842 13.6977 16.7655 13.5776 16.7956C13.4583 16.8254 13.3572 16.9002 13.2938 17.006C13.2303 17.1119 13.2118 17.2362 13.2413 17.3554C13.2711 17.4748 13.3461 17.5755 13.4522 17.6393L18.0929 20.4232C18.846 20.875 19.7144 21.0314 20.5374 20.8635C21.3517 20.6972 22.0245 20.232 22.4315 19.5534C23.0893 18.4576 22.9946 17.2132 22.1788 16.2248L22.1785 16.2249Z" fill="#4CAF4F"/>
<path d="M22.8808 19.8225L22.5814 18.9441L24.98 18.1263L23.6768 20.2998L22.8808 19.8225ZM20.6425 21.3764L20.8283 22.2857L20.8279 22.2857L20.6425 21.3764ZM17.8238 20.8721L17.3466 21.668L17.3464 21.6679L17.8238 20.8721ZM13.1831 18.0882L13.6605 17.2923L13.6605 17.2923L13.1831 18.0882ZM12.7336 17.482L11.8333 17.7074L11.833 17.7062L12.7336 17.482ZM12.8451 16.7365L13.6414 17.2133L13.6411 17.2137L12.8451 16.7365ZM13.1852 16.4021L13.6771 15.6151L14.9638 16.4192L13.6619 17.1985L13.1852 16.4021ZM13.1839 16.4013L13.6614 15.6054L13.6686 15.6098L13.6758 15.6143L13.1839 16.4013ZM12.7348 15.7955L13.635 15.5699L13.6353 15.571L12.7348 15.7955ZM12.846 15.0494L12.0499 14.5721L12.0505 14.5712L12.846 15.0494ZM13.1892 14.7102L13.7152 13.9456L14.9138 14.7701L13.6609 15.5095L13.1892 14.7102ZM12.7897 14.1412L13.69 13.9157L13.6901 13.9161L12.7897 14.1412ZM12.9009 13.3953L13.697 13.8723L13.6966 13.873L12.9009 13.3953ZM13.5067 12.9461L13.7327 13.8463L13.7317 13.8465L13.5067 12.9461ZM13.7473 12.9163V11.9882L13.7482 11.9882L13.7473 12.9163ZM14.2002 13.0304L15.1273 13.0743L15.0585 14.5269L13.77 13.8528L14.2002 13.0304ZM14.3708 12.512L15.1336 13.0407L15.1334 13.0409L14.3708 12.512ZM15.7127 12.2457L15.2353 13.0416L15.2352 13.0415L15.7127 12.2457ZM19.5129 14.5252L20.3244 14.0747L22.0054 17.1025L19.0355 15.3211L19.5129 14.5252ZM19.0231 13.6429L19.8336 13.1907L19.8345 13.1924L19.0231 13.6429ZM19.0413 12.5583L18.2454 12.0809L18.2456 12.0805L19.0413 12.5583ZM19.4429 12.1693L18.9889 11.3598L18.9934 11.3573L19.4429 12.1693ZM19.8724 12.0581V11.13L19.8729 11.13L19.8724 12.0581ZM20.6505 12.5153L19.839 12.9657L19.8385 12.9648L20.6505 12.5153ZM22.3521 15.579L21.5875 16.1051L21.5631 16.0696L21.5421 16.0321L22.3521 15.579ZM22.4572 15.7296L21.6987 16.2644L21.698 16.2634L22.4572 15.7296ZM22.5825 15.8911L23.297 15.2987L23.2984 15.3005L22.5825 15.8911ZM22.8808 19.8225L23.1803 20.701L20.7804 21.5191L22.085 19.345L22.8808 19.8225ZM22.1785 16.2249L22.2704 17.1484L21.778 17.1974L21.4629 16.8159L22.1785 16.2249ZM22.0286 16.0309L22.7872 15.4962L22.7885 15.498L22.0286 16.0309ZM21.8726 15.7719L22.6669 15.2918L22.7503 15.4298L22.7823 15.5877L21.8726 15.7719ZM20.1922 12.7694L19.3808 13.2198L19.3806 13.2195L20.1922 12.7694ZM19.6971 12.627L19.2439 11.8171L19.2483 11.8147L19.6971 12.627ZM19.4898 12.8281L20.2858 13.3053L20.2857 13.3055L19.4898 12.8281ZM19.4802 13.3884L20.2905 12.936L20.2917 12.9381L19.4802 13.3884ZM20.4441 15.1253L19.6328 15.5759L19.6326 15.5757L20.4441 15.1253ZM20.3974 15.4405L19.7508 14.7746L19.7521 14.7734L20.3974 15.4405ZM20.0805 15.4767L19.6061 16.2744L19.6031 16.2726L20.0805 15.4767ZM15.4432 12.6947L15.9204 11.8987L15.9207 11.8989L15.4432 12.6947ZM14.8013 12.8102L15.5643 13.3386L15.5642 13.3388L14.8013 12.8102ZM14.7313 13.1869L13.8309 13.412L13.8306 13.4106L14.7313 13.1869ZM14.9422 13.4706L14.5271 14.3007L14.4953 14.2848L14.4649 14.2665L14.9422 13.4706ZM14.943 13.4712L15.3582 12.6412L15.39 12.6571L15.4205 12.6754L14.943 13.4712ZM17.9751 15.2902L18.4526 14.4944L18.4529 14.4946L17.9751 15.2902ZM18.0648 15.6496L18.8607 16.1269L18.8602 16.1278L18.0648 15.6496ZM17.7055 15.7393L18.1829 14.9434L18.1832 14.9435L17.7055 15.7393ZM13.983 13.5062L14.4602 12.7101L14.4605 12.7103L13.983 13.5062ZM13.6337 13.4542L13.86 14.3543L13.8582 14.3547L13.6337 13.4542ZM13.3499 13.6649L14.1463 14.1413L14.1451 14.1433L13.3499 13.6649ZM13.2974 14.0142L12.397 14.2393L12.3964 14.237L13.2974 14.0142ZM13.5081 14.2981L13.0308 15.094L13.0302 15.0937L13.5081 14.2981ZM14.2325 14.7325L14.7098 13.9366L14.7099 13.9367L14.2325 14.7325ZM17.2304 16.5312L17.7079 15.7354L17.7082 15.7356L17.2304 16.5312ZM17.3201 16.8905L18.116 17.3679L18.1155 17.3688L17.3201 16.8905ZM16.9608 16.9802L16.4839 17.7764L16.4833 17.7761L16.9608 16.9802ZM13.9281 15.1607L13.4506 15.9566L13.4497 15.956L13.9281 15.1607ZM13.2948 15.3191L14.0904 15.797L14.0904 15.797L13.2948 15.3191ZM13.2423 15.6686L12.3419 15.8937L12.3413 15.8914L13.2423 15.6686ZM13.4532 15.9525L12.9757 16.7483L12.975 16.7479L13.4532 15.9525ZM14.1967 16.3985L14.6742 15.6027L14.6742 15.6027L14.1967 16.3985ZM16.4859 17.772L16.9634 16.9761L16.9637 16.9763L16.4859 17.772ZM16.5756 18.1313L17.3715 18.6086L17.3709 18.6096L16.5756 18.1313ZM16.2163 18.221L16.6938 17.4251L16.6947 17.4257L16.2163 18.221ZM13.9271 16.8475L14.4043 16.0515L14.4046 16.0517L13.9271 16.8475ZM13.5776 16.7956L13.3526 15.8952L13.3526 15.8952L13.5776 16.7956ZM13.2938 17.006L12.4976 16.529L12.4979 16.5285L13.2938 17.006ZM13.2413 17.3554L12.3409 17.5805L12.3404 17.5785L13.2413 17.3554ZM13.4522 17.6393L12.9748 18.4352L12.974 18.4347L13.4522 17.6393ZM18.0929 20.4232L18.5703 19.6273L18.5704 19.6274L18.0929 20.4232ZM20.5374 20.8635L20.7231 21.7729L20.7229 21.7729L20.5374 20.8635ZM22.4315 19.5534L21.6356 19.076L21.6357 19.0757L22.4315 19.5534ZM22.1788 16.2248L22.0868 15.3013L22.5794 15.2523L22.8945 15.634L22.1788 16.2248ZM23.6768 20.2998C23.0533 21.3397 22.031 22.04 20.8283 22.2857L20.4568 20.467C21.1744 20.3205 21.7418 19.9174 22.0849 19.3452L23.6768 20.2998ZM20.8279 22.2857C19.6393 22.5281 18.4031 22.3015 17.3466 21.668L18.3011 20.0761C18.977 20.4813 19.7424 20.6127 20.4571 20.467L20.8279 22.2857ZM17.3464 21.6679L12.7057 18.884L13.6605 17.2923L18.3012 20.0762L17.3464 21.6679ZM12.7057 18.884C12.2693 18.6222 11.9571 18.2021 11.8333 17.7074L13.6339 17.2567C13.6365 17.2667 13.64 17.273 13.6431 17.2772C13.6462 17.2814 13.6513 17.2867 13.6605 17.2923L12.7057 18.884ZM11.833 17.7062C11.71 17.2121 11.7878 16.6951 12.0491 16.2593L13.6411 17.2137C13.6356 17.223 13.6335 17.2303 13.6327 17.2356C13.6319 17.2409 13.6318 17.2481 13.6342 17.2579L11.833 17.7062ZM12.0489 16.2597C12.221 15.9723 12.4561 15.7569 12.7086 15.6058L13.6619 17.1985C13.6506 17.2052 13.6446 17.2105 13.6422 17.2128C13.64 17.215 13.6403 17.2151 13.6414 17.2133L12.0489 16.2597ZM12.6934 17.1891L12.692 17.1883L13.6758 15.6143L13.6771 15.6151L12.6934 17.1891ZM12.7065 17.1972C12.2703 16.9355 11.9577 16.5152 11.8342 16.02L13.6353 15.571C13.6376 15.5804 13.6409 15.5863 13.644 15.5904C13.647 15.5945 13.6521 15.5999 13.6614 15.6054L12.7065 17.1972ZM11.8345 16.0211C11.7104 15.526 11.7885 15.0083 12.0499 14.5721L13.642 15.5266C13.6363 15.536 13.6343 15.5433 13.6335 15.5484C13.6328 15.5535 13.6326 15.5604 13.635 15.5699L11.8345 16.0211ZM12.0505 14.5712C12.2219 14.2862 12.456 14.0653 12.7175 13.9109L13.6609 15.5095C13.6548 15.5131 13.6508 15.5164 13.6481 15.5191C13.6455 15.5216 13.6434 15.5242 13.6414 15.5275L12.0505 14.5712ZM12.6632 15.4749C12.2883 15.217 12.0057 14.8316 11.8893 14.3662L13.6901 13.9161C13.6912 13.9204 13.6927 13.9236 13.695 13.9269C13.6977 13.9306 13.7035 13.9375 13.7152 13.9456L12.6632 15.4749ZM11.8894 14.3667C11.7654 13.8716 11.8433 13.3538 12.1052 12.9176L13.6966 13.873C13.6911 13.8821 13.6892 13.8891 13.6884 13.8941C13.6877 13.8991 13.6875 13.9059 13.69 13.9157L11.8894 14.3667ZM12.1048 12.9183C12.3667 12.4811 12.7875 12.1693 13.2816 12.0457L13.7317 13.8465C13.7218 13.849 13.7157 13.8525 13.7115 13.8555C13.7074 13.8586 13.7023 13.8635 13.697 13.8723L12.1048 12.9183ZM13.2807 12.046C13.4345 12.0074 13.5912 11.9882 13.7473 11.9882V13.8444C13.7433 13.8444 13.7383 13.8449 13.7327 13.8463L13.2807 12.046ZM13.7482 11.9882C14.0635 11.9885 14.3642 12.0688 14.6304 12.2081L13.77 13.8528C13.7612 13.8482 13.7548 13.8461 13.7513 13.8452C13.7479 13.8444 13.7464 13.8444 13.7463 13.8444L13.7482 11.9882ZM13.2732 12.9865C13.2891 12.649 13.3909 12.2964 13.6081 11.9831L15.1334 13.0409C15.1361 13.037 15.1287 13.0448 15.1273 13.0743L13.2732 12.9865ZM13.608 11.9833C14.1958 11.1352 15.3355 10.937 16.1902 11.4499L15.2352 13.0415C15.2082 13.0253 15.1816 13.0227 15.1608 13.0268C15.1405 13.0309 15.1349 13.0387 15.1335 13.0407L13.608 11.9833ZM16.1901 11.4498L19.9903 13.7293L19.0355 15.3211L15.2353 13.0416L16.1901 11.4498ZM18.7015 14.9757L18.2117 14.0934L19.8345 13.1924L20.3244 14.0747L18.7015 14.9757ZM18.2126 14.0951C17.8621 13.4668 17.876 12.6968 18.2454 12.0809L19.8372 13.0356C19.808 13.0843 19.8083 13.1453 19.8336 13.1907L18.2126 14.0951ZM18.2456 12.0805C18.4266 11.7791 18.6837 11.531 18.9889 11.3598L19.8969 12.9788C19.8705 12.9935 19.8502 13.0141 19.837 13.036L18.2456 12.0805ZM18.9934 11.3573C19.2711 11.2036 19.574 11.13 19.8724 11.13V12.9862C19.8756 12.9862 19.8793 12.9858 19.8832 12.9848C19.8872 12.9838 19.8904 12.9824 19.8924 12.9813L18.9934 11.3573ZM19.8729 11.13C20.5071 11.1303 21.1299 11.4649 21.4625 12.0659L19.8385 12.9648C19.84 12.9674 19.8425 12.9709 19.8459 12.9743C19.8491 12.9776 19.8524 12.9801 19.8554 12.9818C19.8607 12.9848 19.8659 12.9862 19.8719 12.9862L19.8729 11.13ZM21.462 12.0649C22.0262 13.0814 23.0883 14.9941 23.1621 15.126L21.5421 16.0321C21.4664 15.8967 20.4018 13.9798 19.839 12.9657L21.462 12.0649ZM23.1167 15.053C23.1298 15.0721 23.1757 15.1378 23.2164 15.1958L21.698 16.2634C21.6565 16.2043 21.6062 16.1323 21.5875 16.1051L23.1167 15.053ZM23.2158 15.1948C23.2349 15.222 23.26 15.2541 23.297 15.2987L21.8681 16.4835C21.8175 16.4225 21.7579 16.3483 21.6987 16.2644L23.2158 15.1948ZM23.2984 15.3005C24.4964 16.7527 24.6448 18.6867 23.6766 20.3001L22.085 19.345C22.6469 18.4086 22.5664 17.33 21.8666 16.4817L23.2984 15.3005ZM22.5813 18.9441L22.5814 18.9441L23.1803 20.701L23.1803 20.701L22.5813 18.9441ZM21.4629 16.8159C21.4043 16.7449 21.3356 16.6591 21.2687 16.5637L22.7885 15.498C22.8148 15.5355 22.8484 15.5786 22.894 15.6338L21.4629 16.8159ZM21.27 16.5655C21.2115 16.4826 21.1487 16.3946 21.107 16.3256C21.0792 16.2794 21.0419 16.212 21.0103 16.1261C20.9796 16.0425 20.966 15.9709 20.963 15.9561L22.7823 15.5877C22.7846 15.5993 22.7754 15.548 22.7528 15.4865C22.7294 15.4227 22.7039 15.379 22.6959 15.3659C22.6921 15.3597 22.6907 15.3576 22.6936 15.362C22.6964 15.3662 22.7013 15.3736 22.7097 15.3856C22.727 15.4107 22.7508 15.4445 22.7872 15.4962L21.27 16.5655ZM21.0784 16.252C20.9011 15.9586 20.4837 15.2069 19.3808 13.2198L21.0037 12.3189C22.1222 14.334 22.513 15.0371 22.6669 15.2918L21.0784 16.252ZM19.3806 13.2195C19.5309 13.4905 19.873 13.5902 20.146 13.4393L19.2483 11.8147C19.8739 11.469 20.6587 11.697 21.0038 12.3192L19.3806 13.2195ZM20.1503 13.4369C20.2049 13.4064 20.2534 13.3595 20.2858 13.3053L18.6939 12.3508C18.828 12.1271 19.0159 11.9447 19.244 11.8171L20.1503 13.4369ZM20.2857 13.3055C20.3522 13.1947 20.3567 13.0545 20.2905 12.936L18.6698 13.8409C18.4091 13.374 18.4215 12.8049 18.6939 12.3507L20.2857 13.3055ZM20.2917 12.9381L21.2556 14.6749L19.6326 15.5757L18.6687 13.8388L20.2917 12.9381ZM21.2555 14.6747C21.5168 15.1452 21.43 15.7329 21.0426 16.1076L19.7521 14.7734C19.535 14.9834 19.4866 15.3127 19.6328 15.5759L21.2555 14.6747ZM21.0439 16.1063C20.6535 16.4855 20.0631 16.5462 19.6061 16.2744L20.555 14.6791C20.302 14.5286 19.9714 14.5605 19.7508 14.7747L21.0439 16.1063ZM19.6031 16.2726L14.9658 13.4906L15.9207 11.8989L20.558 14.6809L19.6031 16.2726ZM14.9661 13.4908C15.0566 13.545 15.1589 13.5609 15.2548 13.5437C15.3507 13.5265 15.4745 13.4683 15.5643 13.3386L14.0383 12.2818C14.4851 11.6367 15.3344 11.5475 15.9204 11.8987L14.9661 13.4908ZM15.5642 13.3388C15.6366 13.2343 15.6647 13.0944 15.632 12.9631L13.8306 13.4106C13.733 13.0179 13.8106 12.6104 14.0385 12.2816L15.5642 13.3388ZM15.6317 12.9618C15.6013 12.8402 15.5227 12.7365 15.4195 12.6746L14.4649 14.2665C14.1495 14.0774 13.921 13.7723 13.8309 13.412L15.6317 12.9618ZM15.3573 12.6405C15.4412 12.6825 15.5029 12.7292 15.5419 12.7622C15.5611 12.7785 15.576 12.7924 15.5849 12.801C15.5895 12.8054 15.5932 12.809 15.5954 12.8112C15.5965 12.8123 15.5974 12.8132 15.598 12.8137C15.5982 12.814 15.5985 12.8143 15.5986 12.8144C15.5987 12.8145 15.5987 12.8145 15.5988 12.8146C15.5988 12.8146 15.5988 12.8146 15.5988 12.8146C15.5988 12.8146 15.5988 12.8146 15.5988 12.8146C15.5988 12.8146 15.5988 12.8146 15.5988 12.8146C15.5991 12.8149 15.5975 12.8132 15.5955 12.8113C15.5933 12.8091 15.5897 12.8055 15.5851 12.8012C15.5762 12.7927 15.5614 12.7788 15.5423 12.7626C15.5034 12.7297 15.4418 12.683 15.3582 12.6412L14.5279 14.3013C14.444 14.2594 14.3824 14.2126 14.3433 14.1796C14.3241 14.1633 14.3093 14.1494 14.3003 14.1408C14.2957 14.1364 14.2921 14.1329 14.2899 14.1307C14.2887 14.1295 14.2878 14.1286 14.2873 14.1281C14.287 14.1278 14.2868 14.1276 14.2866 14.1274C14.2865 14.1274 14.2865 14.1273 14.2865 14.1273C14.2864 14.1273 14.2864 14.1272 14.2864 14.1272C14.2864 14.1272 14.2864 14.1272 14.2864 14.1272C14.2864 14.1272 14.2864 14.1272 14.2864 14.1272C14.2861 14.1269 14.2878 14.1286 14.2898 14.1306C14.292 14.1327 14.2956 14.1363 14.3001 14.1406C14.309 14.1492 14.3238 14.163 14.3429 14.1792C14.3819 14.2122 14.4434 14.2588 14.5271 14.3007L15.3573 12.6405ZM15.4205 12.6754L18.4526 14.4944L17.4976 16.0861L14.4656 14.2671L15.4205 12.6754ZM18.4529 14.4946C19.0163 14.8329 19.1986 15.5635 18.8607 16.1269L17.2689 15.1722C17.0799 15.4873 17.1819 15.8965 17.4973 16.0859L18.4529 14.4946ZM18.8602 16.1278C18.5227 16.6891 17.7929 16.8742 17.2278 16.535L18.1832 14.9435C17.8667 14.7535 17.458 14.8576 17.2694 15.1713L18.8602 16.1278ZM17.2281 16.5351L13.5056 14.3021L14.4605 12.7103L18.1829 14.9434L17.2281 16.5351ZM13.5059 14.3022C13.6101 14.3647 13.7387 14.3848 13.86 14.3543L13.4075 12.5541C13.7675 12.4636 14.1447 12.521 14.4602 12.7101L13.5059 14.3022ZM13.8582 14.3547C13.9788 14.3247 14.0835 14.2463 14.1463 14.1413L12.5534 13.1885C12.7431 12.8713 13.0493 12.6434 13.4092 12.5537L13.8582 14.3547ZM14.1451 14.1433C14.2089 14.0374 14.2275 13.9092 14.1983 13.7915L12.3964 14.237C12.3083 13.8805 12.3636 13.504 12.5546 13.1865L14.1451 14.1433ZM14.1978 13.7891C14.1675 13.6682 14.0895 13.5646 13.986 13.5025L13.0302 15.0937C12.7149 14.9043 12.4869 14.599 12.397 14.2393L14.1978 13.7891ZM13.9855 13.5022L14.7098 13.9366L13.7551 15.5285L13.0308 15.094L13.9855 13.5022ZM14.7099 13.9367L17.7079 15.7354L16.7529 17.3271L13.755 15.5284L14.7099 13.9367ZM17.7082 15.7356C18.2716 16.0739 18.4539 16.8045 18.116 17.3679L16.5242 16.4132C16.3352 16.7282 16.4372 17.1374 16.7526 17.3269L17.7082 15.7356ZM18.1155 17.3688C17.7774 17.931 17.0478 18.1142 16.4839 17.7764L17.4377 16.184C17.1224 15.9952 16.7139 16.0977 16.5247 16.4123L18.1155 17.3688ZM16.4833 17.7761L13.4506 15.9566L14.4056 14.3649L17.4383 16.1844L16.4833 17.7761ZM13.4497 15.956C13.6726 16.0901 13.9585 16.0166 14.0904 15.797L12.4991 14.8413C12.8934 14.1848 13.7474 13.969 14.4065 14.3654L13.4497 15.956ZM14.0904 15.797C14.1537 15.6916 14.1724 15.5638 14.1432 15.4458L12.3413 15.8914C12.2531 15.5347 12.3086 15.1585 12.4991 14.8413L14.0904 15.797ZM14.1427 15.4435C14.1122 15.3218 14.0337 15.2186 13.9314 15.1571L12.975 16.7479C12.6604 16.5588 12.432 16.2541 12.3419 15.8937L14.1427 15.4435ZM13.9306 15.1566L14.6742 15.6027L13.7193 17.1944L12.9757 16.7483L13.9306 15.1566ZM14.6742 15.6027L16.9634 16.9761L16.0084 18.5678L13.7192 17.1944L14.6742 15.6027ZM16.9637 16.9763C17.5271 17.3147 17.7094 18.0453 17.3715 18.6086L15.7797 17.6539C15.5907 17.969 15.6926 18.3782 16.0081 18.5676L16.9637 16.9763ZM17.3709 18.6096C17.034 19.17 16.3041 19.357 15.7378 19.0163L16.6947 17.4257C16.377 17.2346 15.9683 17.3402 15.7802 17.653L17.3709 18.6096ZM15.7388 19.0168L13.4496 17.6434L14.4046 16.0517L16.6938 17.4251L15.7388 19.0168ZM13.45 17.6436C13.5545 17.7062 13.6831 17.7258 13.8027 17.6959L13.3526 15.8952C13.7122 15.8053 14.0885 15.8622 14.4043 16.0515L13.45 17.6436ZM13.8027 17.6959C13.9222 17.6661 14.0264 17.5887 14.0896 17.4835L12.4979 16.5285C12.688 16.2116 12.9944 15.9847 13.3526 15.8952L13.8027 17.6959ZM14.0899 17.4829C14.1523 17.3788 14.1717 17.2515 14.1422 17.1324L12.3404 17.5785C12.2519 17.2209 12.3083 16.845 12.4976 16.529L14.0899 17.4829ZM14.1417 17.1303C14.1113 17.0087 14.0328 16.9054 13.9304 16.8439L12.974 18.4347C12.6594 18.2456 12.431 17.941 12.3409 17.5805L14.1417 17.1303ZM13.9296 16.8434L18.5703 19.6273L17.6155 21.2191L12.9748 18.4352L13.9296 16.8434ZM18.5704 19.6274C19.1344 19.9657 19.7675 20.0734 20.3518 19.9542L20.7229 21.7729C19.6614 21.9895 18.5576 21.7843 17.6154 21.2191L18.5704 19.6274ZM20.3517 19.9542C20.9257 19.837 21.3699 19.519 21.6356 19.076L23.2274 20.0308C22.6791 20.945 21.7778 21.5575 20.7231 21.7729L20.3517 19.9542ZM21.6357 19.0757C22.0903 18.3185 22.0296 17.5021 21.463 16.8156L22.8945 15.634C23.9597 16.9244 24.0882 18.5967 23.2272 20.031L21.6357 19.0757ZM22.2707 17.1484L22.2704 17.1484L22.0865 15.3013L22.0868 15.3013L22.2707 17.1484Z" fill="#4CAF4F" mask="url(#path-4-inside-2_211_2339)"/>
</svg>
