<svg width="34" height="22" viewBox="0 0 34 22" fill="none" xmlns="http://www.w3.org/2000/svg">
<path d="M11.4102 0.386597C12.9494 0.38669 14.4537 0.830843 15.7441 1.66199L15.999 1.83289C17.2601 2.71533 18.2385 3.94148 18.8193 5.36218L18.9297 5.64929C19.4571 7.09551 19.5556 8.66086 19.2168 10.1581L19.1436 10.4559C18.7201 12.0423 17.8189 13.4605 16.5625 14.5175L16.1396 14.8729L16.6436 15.1005C18.7131 16.037 20.4937 17.5112 21.8008 19.369L21.8057 19.3759L21.8115 19.3827C21.8876 19.4801 21.9479 19.5887 21.9912 19.704L22.0293 19.8221C22.0713 19.9817 22.0799 20.1482 22.0557 20.3114C22.0375 20.4337 22.0009 20.5521 21.9473 20.663L21.8877 20.7714C21.8227 20.8768 21.7426 20.9718 21.6494 21.0526L21.5527 21.1288C21.4179 21.2237 21.2648 21.2899 21.1035 21.3241C20.9825 21.3497 20.858 21.3573 20.7354 21.3456L20.6133 21.327C20.4514 21.2948 20.2972 21.23 20.1611 21.1366H20.1621C20.0261 21.0432 19.9095 20.9235 19.8213 20.7841L19.8174 20.7772L19.8125 20.7704L19.6309 20.5204C18.7683 19.3672 17.6732 18.4081 16.416 17.7059L16.1445 17.5594C14.6822 16.7994 13.0582 16.4023 11.4102 16.4022C9.86492 16.4022 8.34071 16.7518 6.95117 17.4218L6.6748 17.5594C5.30361 18.2721 4.11249 19.285 3.18848 20.5204L3.00684 20.7704L3.00586 20.7714C2.92232 20.8913 2.81815 20.9949 2.69824 21.077L2.57324 21.1512C2.44367 21.2187 2.30343 21.2621 2.15918 21.2792L2.01367 21.288H2.01172C1.82409 21.2886 1.63984 21.2443 1.47363 21.161L1.31445 21.0653L1.3125 21.0643L1.21777 20.9901C1.00629 20.807 0.863708 20.5552 0.81543 20.2772C0.767179 19.9992 0.816693 19.7143 0.954102 19.4706L1.01855 19.369C2.32562 17.5112 4.10627 16.037 6.17578 15.1005L6.67969 14.8729L6.25684 14.5175C5.07898 13.5266 4.21326 12.2185 3.76074 10.7518L3.67578 10.4559C3.27889 8.96888 3.31996 7.40134 3.79004 5.94031L3.88965 5.64929C4.41703 4.20319 5.34932 2.94216 6.57227 2.01453L6.82031 1.83289C8.16554 0.89161 9.76832 0.386597 11.4102 0.386597ZM22.0459 0.396362H22.0479C23.5879 0.391959 25.0942 0.83266 26.3867 1.66199L26.6426 1.83386C27.9057 2.71491 28.8852 3.94084 29.4668 5.36218L29.5781 5.64929C30.106 7.09615 30.2038 8.66243 29.8633 10.16L29.79 10.4579C29.3645 12.0446 28.4599 13.462 27.2002 14.5165L26.7754 14.8719L27.2803 15.1005C29.2206 15.9785 30.9072 17.329 32.1875 19.0253L32.4375 19.369L32.4395 19.371C32.5092 19.4685 32.5636 19.5761 32.6016 19.6893L32.6338 19.8036C32.6605 19.9205 32.6698 20.0409 32.6611 20.16L32.6465 20.2782C32.626 20.3962 32.5881 20.5106 32.5342 20.6171L32.4746 20.7206C32.4102 20.8215 32.331 20.9118 32.2402 20.9891L32.1455 21.0624L32.1416 21.0653C31.9383 21.2106 31.6942 21.2878 31.4443 21.287C31.2492 21.2857 31.0569 21.2384 30.8838 21.1483C30.754 21.0807 30.6378 20.9906 30.54 20.8827L30.4482 20.7684C29.4992 19.4223 28.241 18.3234 26.7793 17.5643C25.4087 16.8526 23.8965 16.4589 22.3555 16.411L22.0469 16.4061L21.9258 16.4003C21.6869 16.3765 21.4601 16.2829 21.2744 16.1307L21.1855 16.0497C20.9571 15.8213 20.8282 15.5114 20.8281 15.1884C20.8281 14.9055 20.9267 14.6327 21.1045 14.4159L21.1855 14.327C21.414 14.0987 21.7239 13.9706 22.0469 13.9706C23.4314 13.9705 24.7627 13.4542 25.7842 12.5292L25.9844 12.3387C27.0285 11.2945 27.6152 9.87795 27.6152 8.40125C27.6152 7.01683 27.0996 5.68535 26.1748 4.66394L25.9844 4.46375C25.0053 3.48462 23.6987 2.90792 22.3223 2.83972L22.0469 2.83289C21.6652 2.83219 21.2849 2.87147 20.9121 2.95007L20.541 3.04187L20.4199 3.07214C20.3014 3.09499 20.18 3.09969 20.0596 3.08679C19.9389 3.07387 19.8211 3.04353 19.71 2.99597L19.6016 2.94324C19.4954 2.88479 19.3985 2.81114 19.3145 2.72449L19.2354 2.63367C19.1599 2.53862 19.0988 2.43277 19.0547 2.32019L19.0166 2.20593C18.9837 2.08917 18.9689 1.96836 18.9717 1.84753L18.9805 1.72742C18.9953 1.60712 19.0279 1.49003 19.0771 1.37976L19.1318 1.27234C19.1919 1.16713 19.2665 1.07085 19.3545 0.988159L19.4473 0.910034C19.5433 0.836258 19.6497 0.777492 19.7627 0.735229L19.8779 0.69812L19.8838 0.697144C20.4989 0.522017 21.1329 0.422523 21.7715 0.401245L22.0459 0.396362ZM12.4961 2.94031C11.4834 2.73888 10.4361 2.82293 9.4707 3.18152L9.27832 3.25671C8.32452 3.65184 7.50085 4.30414 6.89746 5.13855L6.7793 5.3075C6.16748 6.22315 5.84089 7.3 5.84082 8.40125C5.84082 9.78583 6.35629 11.118 7.28125 12.1395L7.47168 12.3387C8.51599 13.3831 9.93328 13.9706 11.4102 13.9706C12.4425 13.9705 13.4534 13.6834 14.3301 13.1434L14.5029 13.0321C15.3614 12.4585 16.0426 11.6577 16.4717 10.7216L16.5547 10.5321C16.9496 9.57838 17.0705 8.53498 16.9072 7.51843L16.8711 7.31531C16.6696 6.30253 16.1911 5.36688 15.4902 4.61218L15.3477 4.46375C14.6175 3.7336 13.6992 3.2224 12.6973 2.98425L12.4961 2.94031Z" fill="#4CAF4F" stroke="#4CAF4F" stroke-width="0.696069"/>
</svg>
