<svg width="30" height="24" viewBox="0 0 30 24" fill="none" xmlns="http://www.w3.org/2000/svg">
<path d="M5.09082 0.717163H24.9287C26.0104 0.717163 27.0506 1.12058 27.8486 1.84314L28.0049 1.99158C28.8207 2.80739 29.2792 3.91402 29.2793 5.06775V18.641C29.2793 19.7948 28.8207 20.9013 28.0049 21.7172C27.189 22.533 26.0825 22.9916 24.9287 22.9916H5.09082C4.00921 22.9915 2.96889 22.5891 2.1709 21.8666L2.01465 21.7172C1.19896 20.9013 0.740234 19.7947 0.740234 18.641V5.06775C0.740291 3.98604 1.14354 2.94585 1.86621 2.14783L2.01465 1.99158C2.77944 1.22678 3.79986 0.776441 4.875 0.723022L5.09082 0.717163ZM2.13281 18.641C2.13281 19.3275 2.37146 19.9896 2.80273 20.516L2.99902 20.7328C3.55376 21.2875 4.30631 21.5999 5.09082 21.6H24.9287C25.7133 21.6 26.4657 21.2876 27.0205 20.7328C27.5753 20.178 27.8877 19.4256 27.8877 18.641V8.37439H2.13281V18.641ZM20.2305 15.3353H23.3633C23.5015 15.3354 23.6357 15.376 23.749 15.4515L23.8555 15.5385C23.9859 15.6689 24.0585 15.8462 24.0586 16.0306C24.0586 16.2151 23.9857 16.3923 23.8555 16.5228C23.725 16.6533 23.5477 16.7268 23.3633 16.7269H20.2305C20.0459 16.7269 19.8688 16.6533 19.7383 16.5228C19.6079 16.3923 19.5342 16.2151 19.5342 16.0306C19.5343 15.8923 19.5758 15.7583 19.6514 15.6449L19.7383 15.5385C19.8688 15.408 20.046 15.3354 20.2305 15.3353ZM5.09082 2.10974C4.30631 2.1098 3.55376 2.42122 2.99902 2.97595C2.44429 3.53069 2.13287 4.28324 2.13281 5.06775V6.98181H27.8877V5.06775C27.8876 4.3813 27.6491 3.71911 27.2178 3.19275L27.0205 2.97595C26.4657 2.42133 25.7132 2.10974 24.9287 2.10974H5.09082Z" fill="#4CAF4F" stroke="#4CAF4F" stroke-width="0.696069"/>
</svg>
